<svg width="36" height="36" viewBox="0 0 36 36" fill="none" xmlns="http://www.w3.org/2000/svg">
<path d="M9.84017 29.2084H6.86749C6.63742 29.2084 6.41683 29.1192 6.25415 28.9605C6.09146 28.8018 6 28.5866 6 28.3622C6 28.1377 6.09146 27.9226 6.25415 27.7639C6.41683 27.6052 6.63742 27.516 6.86749 27.516H9.84017V20.6455H6.86749C6.63742 20.6455 6.41683 20.5563 6.25415 20.3976C6.09146 20.2389 6 20.0238 6 19.7993C6 19.5749 6.09146 19.3597 6.25415 19.201C6.41683 19.0423 6.63742 18.9531 6.86749 18.9531H9.84017C10.3003 18.9531 10.7415 19.1316 11.0669 19.4489C11.3922 19.7663 11.5752 20.1967 11.5752 20.6455V27.5168C11.5749 27.9655 11.3914 28.3962 11.066 28.7134C10.7407 29.0306 10.3002 29.2084 9.84017 29.2084Z" fill="#252525"/>
<path d="M18.5961 30.0022C16.6979 29.9287 14.8259 29.5458 13.0574 28.8693C12.2506 28.6095 11.4138 28.3412 10.4786 28.0942C10.295 28.0451 10.1323 27.9386 10.0169 27.7909C9.90152 27.6432 9.83956 27.4626 9.83984 27.2769V20.8345C9.83984 20.6101 9.93131 20.3949 10.094 20.2362C10.2567 20.0775 10.4773 19.9883 10.7073 19.9883H13.7774C15.2517 19.9855 16.7013 20.3542 17.9861 21.0593C18.2993 21.2304 18.653 21.3204 19.012 21.3196C19.2627 21.3196 19.4331 21.3197 20.1193 21.3146H20.5302H20.553C20.9784 21.303 21.3992 21.4024 21.7712 21.6039C22.1433 21.8053 22.4534 22.1009 22.6684 22.4591C22.8735 22.8028 22.9895 23.1899 23.0072 23.5871L25.985 22.7128C28.2093 21.9563 29.226 22.8681 29.5617 23.2954C29.7593 23.5736 29.8942 23.8892 29.9582 24.2218C30.0222 24.5544 30.0135 24.8959 29.9328 25.225C29.8821 25.513 29.769 25.7873 29.6007 26.0291C29.4324 26.2708 29.2127 26.4745 28.9569 26.6265C24.1752 29.1727 21.1066 30.0022 18.5961 30.0022ZM11.5748 26.6373C12.2948 26.842 12.9559 27.0539 13.5995 27.2603C17.564 28.5297 20.184 29.3761 28.1216 25.1366C28.1987 25.0146 28.2437 24.8763 28.2537 24.7333C28.2637 24.5903 28.2378 24.4471 28.1783 24.316C28.0048 24.0934 27.4317 24.0063 26.5382 24.316C26.5261 24.3209 26.5137 24.3246 26.5009 24.3276L21.6501 25.7531C21.3519 25.8679 21.0337 25.9255 20.7131 25.9225H16.2757C16.0456 25.9225 15.8251 25.8332 15.6624 25.6745C15.4997 25.5159 15.4082 25.3007 15.4082 25.0763C15.4082 24.8518 15.4997 24.6367 15.6624 24.478C15.8251 24.3193 16.0456 24.2301 16.2757 24.2301H20.7114C20.8038 24.2325 20.8954 24.2186 20.9825 24.1887C20.9964 24.1821 21.0104 24.1766 21.0249 24.1714C21.0977 24.136 21.1582 24.0799 21.1986 24.0111C21.2534 23.9011 21.2795 23.7796 21.2748 23.6574C21.2701 23.5352 21.2346 23.416 21.1715 23.3103C21.1067 23.2072 21.0138 23.1238 20.9029 23.0698C20.792 23.0158 20.6679 22.9939 20.5446 23.0054H20.1345C19.431 23.0104 19.2568 23.012 19.007 23.0103C18.3479 23.0091 17.7002 22.8421 17.1263 22.5261C16.1054 21.9672 14.9532 21.6757 13.7825 21.6799H11.5799L11.5748 26.6373Z" fill="#252525"/>
<path d="M19.1476 8.06263C17.9331 9.54518 16.0243 12.3011 15.9063 15.1215C15.9063 15.9631 16.2493 16.77 16.8594 17.3651C17.4695 17.9602 18.2967 18.2947 19.1594 18.2947C20.0222 18.2947 20.8494 17.9602 21.4595 17.3651C22.0695 16.77 22.4125 15.9631 22.4125 15.1215C22.4047 14.5278 22.3154 13.9376 22.1465 13.3671C21.5007 11.4298 20.4832 9.62939 19.1484 8.06263H19.1476ZM19.1484 6.00084C19.3039 6.00075 19.4571 6.03381 19.5983 6.09752C19.7394 6.16124 19.8645 6.2537 19.9651 6.3694C21.6909 8.27374 23.0013 10.5014 23.8154 12.9159C24.0264 13.6332 24.1369 14.3753 24.1441 15.1215C24.1441 16.4119 23.6191 17.6492 22.6836 18.5617C21.7482 19.4741 20.479 19.9871 19.156 19.9871C17.8331 19.9871 16.5648 19.4741 15.6293 18.5617C14.6939 17.6492 14.168 16.4119 14.168 15.1215C14.168 15.0369 14.1678 14.9434 14.1756 14.8554C14.3239 11.3369 16.9618 7.9164 18.3394 6.36362C18.4397 6.24888 18.5648 6.15706 18.7054 6.09422C18.8459 6.03137 18.9989 5.99927 19.1535 6.00001L19.1484 6.00084Z" fill="#252525"/>
</svg>
