<svg width="36" height="36" viewBox="0 0 36 36" fill="none" xmlns="http://www.w3.org/2000/svg">
<path d="M17.9914 7.66983L17.9556 7.68695C16.1439 9.78591 11.9073 15.2456 11.6836 20.6525L11.6738 20.9982C11.6738 21.8296 11.8375 22.6533 12.1556 23.4214C12.4738 24.1896 12.9399 24.8874 13.5277 25.4753C14.1156 26.0632 14.8134 26.5293 15.5815 26.8475C16.3495 27.1657 17.1731 27.3294 18.0045 27.3294C18.8358 27.3294 19.6586 27.1657 20.4267 26.8475C21.1948 26.5293 21.8925 26.0632 22.4804 25.4753C23.0683 24.8874 23.5352 24.1896 23.8534 23.4214C24.1715 22.6533 24.3352 21.8296 24.3352 20.9982C24.3231 19.9215 24.1656 18.8516 23.868 17.8168C22.7092 13.6213 19.7121 9.66901 18.0241 7.68776C18.0198 7.68179 18.0143 7.67711 18.0077 7.6739C18.0012 7.67069 17.9939 7.66948 17.9865 7.66983H17.9914ZM17.9865 6C18.236 5.99985 18.4826 6.05401 18.7089 6.159C18.9351 6.26398 19.1358 6.41687 19.2967 6.60743C21.0866 8.71308 24.231 12.8697 25.4741 17.3732C25.8114 18.5528 25.9882 19.7722 26 20.999C26 23.121 25.1572 25.1562 23.6569 26.6567C22.1565 28.1572 20.1214 29 17.9996 29C15.8778 29 13.8435 28.1572 12.3431 26.6567C10.8428 25.1562 10 23.121 10 20.999C10 20.8529 10.0047 20.7073 10.0122 20.5628C10.2502 14.7761 14.482 9.14999 16.6911 6.59683C16.8518 6.40913 17.0511 6.2588 17.2756 6.15573C17.5002 6.05267 17.7444 5.99945 17.9914 6H17.9865Z" fill="#252525"/>
</svg>
