<svg width="36" height="36" viewBox="0 0 36 36" fill="none" xmlns="http://www.w3.org/2000/svg">
<path d="M18 36C27.9411 36 36 27.9411 36 18C36 8.05887 27.9411 0 18 0C8.05887 0 0 8.05887 0 18C0 27.9411 8.05887 36 18 36Z" fill="white"/>
<path d="M15.016 15.007H9.33003V9.33203H15.016V15.007ZM15.622 7.33203H8.65603C8.29894 7.34851 7.96198 7.50214 7.71534 7.76089C7.4687 8.01965 7.3314 8.36357 7.33203 8.72104V15.61C7.33388 15.9801 7.4822 16.3344 7.74455 16.5955C8.0069 16.8565 8.36194 17.003 8.73203 17.003H15.632C15.9895 17.0039 16.3336 16.8669 16.5925 16.6204C16.8514 16.374 17.0053 16.0371 17.022 15.68C17.0233 15.6567 17.0233 15.6333 17.022 15.61V8.72504C17.0202 8.35495 16.8719 8.00065 16.6095 7.73961C16.3472 7.47857 15.9921 7.33203 15.622 7.33203Z" fill="#EA0029"/>
<path d="M26.6656 15.007H20.9796V9.33203H26.6656V15.007ZM27.2716 7.33203H20.3006C19.9435 7.34851 19.6065 7.50214 19.3599 7.76089C19.1132 8.01965 18.9759 8.36357 18.9766 8.72104V15.61C18.9768 15.7935 19.0133 15.9751 19.0838 16.1444C19.1543 16.3138 19.2576 16.4675 19.3876 16.5969C19.5177 16.7263 19.672 16.8288 19.8416 16.8985C20.0113 16.9682 20.1931 17.0037 20.3766 17.003H27.2766C27.634 17.0039 27.9781 16.8669 28.237 16.6204C28.496 16.374 28.6498 16.0371 28.6666 15.68C28.6679 15.6567 28.6679 15.6333 28.6666 15.61V8.72504C28.6647 8.35495 28.5164 8.00065 28.254 7.73961C27.9917 7.47857 27.6367 7.33203 27.2666 7.33203" fill="#EA0029"/>
<path d="M26.6656 26.6711H20.9796V20.9931H26.6656V26.6711ZM27.2716 18.9991H20.3006C19.9435 19.0156 19.6065 19.1692 19.3599 19.4279C19.1132 19.6867 18.9759 20.0306 18.9766 20.3881V27.2741C18.9768 27.4575 19.0133 27.6391 19.0838 27.8085C19.1543 27.9778 19.2576 28.1316 19.3876 28.261C19.5177 28.3904 19.672 28.4929 19.8416 28.5625C20.0113 28.6322 20.1931 28.6678 20.3766 28.6671H27.2766C27.6342 28.668 27.9784 28.5308 28.2373 28.2841C28.4963 28.0375 28.6501 27.7004 28.6666 27.3431C28.6679 27.3201 28.6679 27.2971 28.6666 27.2741V20.3891C28.6647 20.019 28.5164 19.6647 28.254 19.4037C27.9917 19.1426 27.6367 18.9961 27.2666 18.9961" fill="#EA0029"/>
<path d="M15.016 26.6711H9.33003V20.9931H15.016V26.6711ZM15.622 18.9991H8.65603C8.29894 19.0156 7.96198 19.1692 7.71534 19.4279C7.4687 19.6867 7.3314 20.0306 7.33203 20.3881V27.2741C7.33388 27.6442 7.4822 27.9985 7.74455 28.2595C8.0069 28.5206 8.36194 28.6671 8.73203 28.6671H15.632C15.9897 28.668 16.3339 28.5308 16.5928 28.2841C16.8518 28.0375 17.0055 27.7004 17.022 27.3431C17.0233 27.3201 17.0233 27.2971 17.022 27.2741V20.3891C17.0202 20.019 16.8719 19.6647 16.6095 19.4037C16.3472 19.1426 15.9921 18.9961 15.622 18.9961" fill="#EA0029"/>
</svg>
