<svg width="36" height="36" viewBox="0 0 36 36" fill="none" xmlns="http://www.w3.org/2000/svg">
<path d="M14.9232 14.9144H9.0602V9.06237H14.9232V14.9144ZM15.5481 7H8.36521C7.99701 7.017 7.64956 7.17542 7.39524 7.44224C7.14092 7.70906 6.99934 8.06371 7 8.43232V15.5362C7.00191 15.9178 7.15484 16.2831 7.42536 16.5523C7.69588 16.8215 8.06197 16.9726 8.44358 16.9726H15.5584C15.927 16.9735 16.2817 16.8322 16.5487 16.5781C16.8157 16.3239 16.9744 15.9766 16.9916 15.6083C16.993 15.5843 16.993 15.5602 16.9916 15.5362V8.43645C16.9897 8.05482 16.8368 7.68947 16.5663 7.42029C16.2958 7.15111 15.9297 7 15.5481 7Z" fill="#AA182C"/>
<path d="M26.9362 14.9144H21.0732V9.06237H26.9362V14.9144ZM27.561 7H20.373C20.0048 7.017 19.6574 7.17542 19.4031 7.44224C19.1487 7.70906 19.0072 8.06371 19.0078 8.43232V15.5362C19.0081 15.7253 19.0457 15.9126 19.1184 16.0872C19.1911 16.2618 19.2976 16.4204 19.4317 16.5538C19.5658 16.6873 19.7248 16.7929 19.8998 16.8648C20.0748 16.9366 20.2622 16.9733 20.4514 16.9726H27.5662C27.9348 16.9735 28.2895 16.8322 28.5565 16.5781C28.8235 16.3239 28.9822 15.9766 28.9995 15.6083C29.0008 15.5843 29.0008 15.5602 28.9995 15.5362V8.43645C28.9975 8.05482 28.8446 7.68947 28.5741 7.42029C28.3036 7.15111 27.9375 7 27.5559 7" fill="#AA182C"/>
<path d="M26.9362 26.9417H21.0732V21.0866H26.9362V26.9417ZM27.561 19.0304H20.373C20.0048 19.0474 19.6574 19.2058 19.4031 19.4727C19.1487 19.7395 19.0072 20.0942 19.0078 20.4628V27.5635C19.0081 27.7527 19.0457 27.9399 19.1184 28.1146C19.1911 28.2892 19.2976 28.4477 19.4317 28.5812C19.5658 28.7146 19.7248 28.8203 19.8998 28.8921C20.0748 28.964 20.2622 29.0006 20.4514 28.9999H27.5662C27.935 29.0009 28.2898 28.8594 28.5569 28.605C28.8239 28.3507 28.9824 28.0031 28.9995 27.6347C29.0008 27.611 29.0008 27.5872 28.9995 27.5635V20.4638C28.9975 20.0822 28.8446 19.7168 28.5741 19.4476C28.3036 19.1785 27.9375 19.0273 27.5559 19.0273" fill="#AA182C"/>
<path d="M14.9232 26.9417H9.0602V21.0866H14.9232V26.9417ZM15.5481 19.0304H8.36521C7.99701 19.0474 7.64956 19.2058 7.39524 19.4727C7.14092 19.7395 6.99934 20.0942 7 20.4628V27.5635C7.00191 27.9451 7.15484 28.3105 7.42536 28.5797C7.69588 28.8488 8.06197 29 8.44358 28.9999H15.5584C15.9271 29.0009 16.282 28.8594 16.5491 28.605C16.8161 28.3507 16.9746 28.0031 16.9916 27.6347C16.993 27.611 16.993 27.5872 16.9916 27.5635V20.4638C16.9897 20.0822 16.8368 19.7168 16.5663 19.4476C16.2958 19.1785 15.9297 19.0273 15.5481 19.0273" fill="#AA182C"/>
</svg>
