<svg width="24" height="20" viewBox="0 0 24 20" fill="none" xmlns="http://www.w3.org/2000/svg">
<path d="M21.3874 20H2.61526C1.92178 19.9992 1.25694 19.7405 0.766663 19.2812C0.276384 18.822 0.000680395 18.1998 0 17.5505V2.44954C0.000453852 1.8001 0.276125 1.17731 0.766454 0.718009C1.25678 0.25871 1.92171 0.000637818 2.61526 0H8.48258C8.67849 4.84894e-05 8.86851 0.0626791 9.02093 0.177935C9.72809 0.71251 11.0155 1.94414 11.5633 2.47149H21.3847C22.0781 2.47234 22.7428 2.73042 23.233 3.1895C23.7233 3.64858 23.9991 4.27101 24 4.92024V17.5505C23.9993 18.1994 23.7239 18.8212 23.2342 19.2804C22.7444 19.7396 22.0804 19.9985 21.3874 20ZM2.61526 1.60533C2.37632 1.60576 2.14732 1.69474 1.97845 1.85303C1.80957 2.01132 1.71457 2.22579 1.71435 2.44954V17.5505C1.71457 17.7742 1.80957 17.9887 1.97845 18.147C2.14732 18.3053 2.37632 18.3942 2.61526 18.3947H21.3874C21.6263 18.3942 21.8553 18.3053 22.0242 18.147C22.193 17.9887 22.2879 17.7742 22.2882 17.5505V4.92024C22.2879 4.69657 22.193 4.48189 22.0241 4.32373C21.8552 4.16557 21.6262 4.07703 21.3874 4.07682H11.2007C11.0846 4.07674 10.9697 4.05467 10.863 4.01176C10.7564 3.96885 10.6601 3.90557 10.5801 3.82677C10.5638 3.81072 9.04742 2.32454 8.17139 1.60455L2.61526 1.60533Z" fill="#252525"/>
<path d="M23.1498 5.59375H0.863281V7.19908H23.1498V5.59375Z" fill="#252525"/>
</svg>
