<svg width="36" height="36" viewBox="0 0 36 36" fill="none" xmlns="http://www.w3.org/2000/svg">
<path d="M28.951 30.915H7.05103C6.242 30.914 5.46638 30.5917 4.89441 30.0195C4.32244 29.4474 4.00079 28.6723 4 27.8633V9.0498C4.00053 8.2407 4.32213 7.4648 4.89417 6.89258C5.4662 6.32036 6.24192 5.99884 7.05103 5.99805H13.896C14.1245 5.99811 14.3462 6.07614 14.524 6.21973C15.349 6.88573 16.851 8.42015 17.49 9.07715H28.948C29.7568 9.07821 30.5323 9.39974 31.1042 9.97168C31.6762 10.5436 31.998 11.3191 31.999 12.1279V27.8633C31.9982 28.6718 31.6769 29.4465 31.1056 30.0186C30.5343 30.5906 29.7596 30.9132 28.951 30.915V30.915ZM7.05103 7.99805C6.77227 7.99858 6.50512 8.10944 6.30811 8.30664C6.11109 8.50384 6.00026 8.77105 6 9.0498V27.8633C6.00026 28.142 6.11109 28.4092 6.30811 28.6064C6.50512 28.8036 6.77227 28.9145 7.05103 28.915H28.951C29.2298 28.9145 29.497 28.8036 29.694 28.6064C29.891 28.4092 30.0017 28.142 30.002 27.8633V12.1279C30.0017 11.8493 29.8909 11.5818 29.6938 11.3848C29.4968 11.1877 29.2297 11.0774 28.951 11.0771H17.067C16.9316 11.077 16.7976 11.0496 16.6731 10.9961C16.5486 10.9426 16.4363 10.8638 16.343 10.7656C16.324 10.7456 14.555 8.89407 13.533 7.99707L7.05103 7.99805Z" fill="white"/>
<path d="M31.0039 12.9727H5.00391V14.9727H31.0039V12.9727Z" fill="white"/>
</svg>
