<svg width="100" height="100" viewBox="0 0 100 100" fill="none" xmlns="http://www.w3.org/2000/svg">
<path d="M50 100C77.6142 100 100 77.6142 100 50C100 22.3858 77.6142 0 50 0C22.3858 0 0 22.3858 0 50C0 77.6142 22.3858 100 50 100Z" fill="#EA0029"/>
<path d="M49.9737 29.0962C49.9952 29.0958 50.0171 29.1004 50.0364 29.1098C50.0557 29.1193 50.0726 29.1332 50.0855 29.1505C54.1084 33.8833 63.4622 46.1077 63.4622 57.3925C63.4344 60.9441 62.0041 64.341 59.4829 66.8426C56.9616 69.3442 53.5544 70.7479 50.0026 70.7479C46.4509 70.7479 43.0429 69.3442 40.5216 66.8426C38.0003 64.341 36.5701 60.9441 36.5423 57.3925C36.5423 57.1586 36.548 56.9174 36.5628 56.6514V56.6068C37.0322 45.177 46.0225 33.5944 49.8651 29.1448C49.8774 29.1283 49.8933 29.1151 49.9118 29.1062C49.9303 29.0973 49.9508 29.093 49.9713 29.0938L49.9737 29.0962ZM49.9713 25.5938C49.4481 25.593 48.9316 25.7054 48.4561 25.9235C47.9806 26.1416 47.5575 26.4599 47.2168 26.8568C42.5416 32.2699 33.5692 44.1947 33.0652 56.4636C33.0479 56.7708 33.0391 57.0796 33.0391 57.3909C33.0703 61.8686 34.8709 66.1524 38.0482 69.3076C41.2255 72.4628 45.5217 74.2335 49.9994 74.2335C54.4772 74.2335 58.773 72.4628 61.9502 69.3076C65.1275 66.1524 66.9278 61.8686 66.959 57.3909C66.959 45.1615 57.5511 32.5319 52.7491 26.8825C52.4077 26.4784 51.9825 26.1537 51.5025 25.9311C51.0226 25.7085 50.4995 25.5933 49.9705 25.5938H49.9713Z" fill="white"/>
</svg>
