<svg width="100" height="101" viewBox="0 0 100 101" fill="none" xmlns="http://www.w3.org/2000/svg">
<path d="M50 100.123C77.6142 100.123 100 77.7095 100 50.0614C100 22.4132 77.6142 0 50 0C22.3858 0 0 22.4132 0 50.0614C0 77.7095 22.3858 100.123 50 100.123Z" fill="#EA0029"/>
<path d="M49.9683 28.9078C49.99 28.9074 50.0122 28.9121 50.0317 28.9217C50.0513 28.9313 50.0683 28.9454 50.0814 28.9628C54.1522 33.7579 63.6173 46.143 63.6173 57.5762C63.5892 61.1745 62.1419 64.616 59.5907 67.1505C57.0394 69.685 53.5916 71.1072 49.9976 71.1072C46.4035 71.1072 42.9549 69.685 40.4036 67.1505C37.8524 64.616 36.4051 61.1745 36.377 57.5762C36.377 57.3392 36.3827 57.0948 36.3977 56.8253V56.7801C36.8727 45.2001 45.9701 33.4652 49.8584 28.9571C49.8708 28.9404 49.8869 28.927 49.9056 28.918C49.9243 28.909 49.9451 28.9047 49.9658 28.9054L49.9683 28.9078ZM49.9658 25.3594C49.4365 25.3586 48.9138 25.4725 48.4326 25.6934C47.9514 25.9144 47.5234 26.2369 47.1785 26.639C42.4477 32.1232 33.3685 44.2049 32.8585 56.6351C32.841 56.9463 32.832 57.2592 32.832 57.5746C32.8636 62.1111 34.6857 66.4512 37.9008 69.6479C41.1159 72.8445 45.4632 74.6385 49.9943 74.6385C54.5254 74.6385 58.8723 72.8445 62.0874 69.6479C65.3025 66.4512 67.1242 62.1111 67.1558 57.5746C67.1558 45.1844 57.6359 32.3888 52.7767 26.6651C52.4312 26.2556 52.0009 25.9267 51.5153 25.7012C51.0297 25.4756 50.5004 25.359 49.965 25.3594H49.9658Z" fill="white"/>
</svg>
