<svg width="72" height="72" viewBox="0 0 72 72" fill="none" xmlns="http://www.w3.org/2000/svg">
<path d="M61.3288 4.5C60.7658 4.50647 60.2276 4.73253 59.8288 5.13L38.2513 26.685C38.1248 26.8233 38.0547 27.0039 38.0547 27.1912C38.0547 27.3786 38.1248 27.5592 38.2513 27.6975L44.3038 33.75C44.441 33.8822 44.6233 33.9573 44.8138 33.96C44.9086 33.9611 45.0026 33.943 45.0902 33.9069C45.1778 33.8709 45.2573 33.8175 45.3238 33.75L66.8638 12.21C67.2682 11.805 67.4954 11.2561 67.4954 10.6838C67.4954 10.1114 67.2682 9.56249 66.8638 9.1575L62.8513 5.1375C62.453 4.73935 61.9145 4.51318 61.3513 4.5075L61.3288 4.5Z" fill="#AA182C"/>
<path d="M34.8862 30.4766C34.6833 30.4812 34.4856 30.5418 34.3148 30.6516C34.1441 30.7615 34.0071 30.9163 33.9187 31.0991C32.4679 34.0119 31.176 37.0013 30.0487 40.0541C29.5537 41.3591 29.9512 42.1616 30.9412 42.1616C31.286 42.1511 31.6261 42.08 31.9462 41.9516C34.999 40.8243 37.9884 39.5324 40.9012 38.0816C41.0452 38.0189 41.1727 37.9236 41.2735 37.8031C41.3743 37.6827 41.4457 37.5405 41.4821 37.3877C41.5185 37.2349 41.5188 37.0758 41.4831 36.9229C41.4473 36.7699 41.3765 36.6274 41.2762 36.5066L35.4937 30.7466C35.414 30.667 35.3192 30.6041 35.2149 30.5617C35.1106 30.5192 34.9989 30.4979 34.8862 30.4991V30.4766Z" fill="#AA182C"/>
<path d="M42.8886 42.0594C39.837 43.5755 36.7076 44.9298 33.5136 46.1169C32.6932 46.4363 31.8215 46.6041 30.9411 46.6119C30.0465 46.6283 29.1615 46.4249 28.3639 46.0195C27.5662 45.6141 26.8802 45.0192 26.3661 44.2869C25.8056 43.4372 25.4678 42.4602 25.3839 41.4457C25.3001 40.4313 25.4727 39.4121 25.8861 38.4819C27.0728 35.2889 28.4247 32.1596 29.9361 29.1069C30.3936 28.1994 42.6861 15.8994 50.1861 8.42188H10.9761C9.25871 8.42584 7.6128 9.10982 6.39842 10.3242C5.18404 11.5386 4.50006 13.1845 4.49609 14.9019V61.0119C4.49609 62.7312 5.17857 64.3802 6.39359 65.5966C7.60861 66.813 9.2568 67.4974 10.9761 67.4994H57.1086C58.8272 67.4994 60.4754 66.8167 61.6906 65.6014C62.9059 64.3862 63.5886 62.738 63.5886 61.0194V21.8094C56.1111 29.3094 43.8036 41.6094 42.8886 42.0594Z" fill="#AA182C"/>
</svg>
