<svg width="36" height="36" viewBox="0 0 36 36" fill="none" xmlns="http://www.w3.org/2000/svg">
<path d="M8.42676 31.4258H5C4.73478 31.4258 4.48051 31.3203 4.29297 31.1328C4.10543 30.9453 4 30.691 4 30.4258C4 30.1606 4.10543 29.9063 4.29297 29.7188C4.48051 29.5312 4.73478 29.4258 5 29.4258H8.42676V21.3066H5C4.73478 21.3066 4.48051 21.2012 4.29297 21.0137C4.10543 20.8261 4 20.5719 4 20.3066C4 20.0414 4.10543 19.7871 4.29297 19.5996C4.48051 19.4121 4.73478 19.3066 5 19.3066H8.42676C8.95719 19.3066 9.46575 19.5175 9.84082 19.8926C10.2159 20.2677 10.4268 20.7762 10.4268 21.3066V29.4268C10.4265 29.957 10.2149 30.466 9.83984 30.8408C9.4648 31.2157 8.95702 31.4258 8.42676 31.4258Z" fill="white"/>
<path d="M18.5195 32.3633C16.3314 32.2763 14.1735 31.8239 12.1348 31.0244C11.2048 30.7174 10.2401 30.4004 9.16211 30.1084C8.95043 30.0505 8.76289 29.9246 8.62988 29.75C8.49688 29.5754 8.42546 29.3621 8.42578 29.1426V21.5293C8.42578 21.2641 8.53121 21.0098 8.71875 20.8223C8.90629 20.6347 9.16057 20.5293 9.42578 20.5293H12.9648C14.6643 20.526 16.3353 20.9617 17.8164 21.7949C18.1775 21.9972 18.5852 22.1035 18.999 22.1026C19.288 22.1026 19.4844 22.1027 20.2754 22.0967H20.749H20.7754C21.2657 22.083 21.7508 22.2005 22.1797 22.4385C22.6086 22.6765 22.9661 23.0259 23.2139 23.4492C23.4503 23.8553 23.5841 24.3128 23.6045 24.7822L27.0371 23.749C29.6011 22.855 30.7732 23.9325 31.1602 24.4375C31.3879 24.7662 31.5434 25.1392 31.6172 25.5322C31.6909 25.9253 31.681 26.3289 31.5879 26.7178C31.5295 27.0581 31.3991 27.3823 31.2051 27.668C31.011 27.9536 30.7578 28.1944 30.4629 28.374C24.9509 31.383 21.4135 32.3633 18.5195 32.3633ZM10.4258 28.3867C11.2558 28.6287 12.0178 28.8791 12.7598 29.1231C17.3298 30.6231 20.35 31.6233 29.5 26.6133C29.5889 26.4691 29.6408 26.3057 29.6523 26.1367C29.6638 25.9677 29.634 25.7985 29.5654 25.6436C29.3654 25.3806 28.7048 25.2776 27.6748 25.6436C27.6609 25.6494 27.6465 25.6538 27.6318 25.6572L22.04 27.3418C21.6963 27.4775 21.3295 27.5456 20.96 27.542H15.8447C15.5795 27.542 15.3252 27.4366 15.1377 27.249C14.9502 27.0615 14.8447 26.8072 14.8447 26.542C14.8447 26.2768 14.9502 26.0225 15.1377 25.835C15.3252 25.6474 15.5795 25.542 15.8447 25.542H20.958C21.0645 25.5449 21.17 25.5285 21.2705 25.4932C21.2865 25.4854 21.3027 25.4789 21.3193 25.4727C21.4032 25.4308 21.473 25.3646 21.5195 25.2832C21.5827 25.1533 21.6128 25.0097 21.6074 24.8653C21.602 24.7208 21.561 24.58 21.4883 24.4551C21.4137 24.3333 21.3065 24.2347 21.1787 24.1709C21.0509 24.1071 20.9079 24.0812 20.7656 24.0947H20.293C19.482 24.1007 19.2812 24.1026 18.9932 24.1006C18.2334 24.0991 17.4868 23.9018 16.8252 23.5283C15.6484 22.8679 14.3202 22.5234 12.9707 22.5283H10.4316L10.4258 28.3867Z" fill="white"/>
<path d="M19.1543 6.43751C17.7543 8.18951 15.554 11.4463 15.418 14.7793C15.418 15.7739 15.8133 16.7274 16.5166 17.4307C17.2199 18.1339 18.1734 18.5293 19.168 18.5293C20.1625 18.5293 21.1161 18.1339 21.8193 17.4307C22.5226 16.7274 22.918 15.7739 22.918 14.7793C22.9089 14.0777 22.806 13.3802 22.6113 12.7061C21.8668 10.4167 20.694 8.28903 19.1553 6.43751H19.1543ZM19.1553 4.00099C19.3345 4.00088 19.5111 4.03995 19.6738 4.11525C19.8365 4.19054 19.9808 4.2998 20.0967 4.43654C22.0861 6.68699 23.5966 9.31952 24.5352 12.1729C24.7783 13.0205 24.9057 13.8975 24.9141 14.7793C24.9141 16.3043 24.3088 17.7664 23.2305 18.8447C22.1521 19.9231 20.6891 20.5293 19.1641 20.5293C17.6391 20.5293 16.177 19.9231 15.0986 18.8447C14.0203 17.7664 13.4141 16.3043 13.4141 14.7793C13.4141 14.6793 13.4139 14.5689 13.4229 14.4649C13.5939 10.3069 16.6347 6.2647 18.2227 4.4297C18.3383 4.29411 18.4825 4.18561 18.6445 4.11134C18.8065 4.03708 18.9829 3.99914 19.1611 4.00001L19.1553 4.00099Z" fill="white"/>
</svg>
