<svg width="36" height="36" viewBox="0 0 36 36" fill="none" xmlns="http://www.w3.org/2000/svg">
<path d="M29.5195 27.998H6.51953C5.85649 27.998 5.22061 27.735 4.75177 27.2661C4.28293 26.7973 4.01953 26.1611 4.01953 25.498V11.498C4.01953 10.835 4.28293 10.1993 4.75177 9.73047C5.22061 9.26163 5.85649 8.99805 6.51953 8.99805H29.5195C30.1826 8.99805 30.8185 9.26163 31.2873 9.73047C31.7561 10.1993 32.0195 10.835 32.0195 11.498V25.498C32.0195 26.1611 31.7561 26.7973 31.2873 27.2661C30.8185 27.735 30.1826 27.998 29.5195 27.998ZM6.51953 10.998C6.38692 10.998 6.25975 11.0508 6.16599 11.1445C6.07222 11.2383 6.01953 11.3654 6.01953 11.498V25.498C6.01953 25.6307 6.07222 25.7578 6.16599 25.8516C6.25975 25.9453 6.38692 25.998 6.51953 25.998H29.5195C29.6521 25.998 29.7793 25.9453 29.8731 25.8516C29.9669 25.7578 30.0195 25.6307 30.0195 25.498V11.498C30.0195 11.3654 29.9669 11.2383 29.8731 11.1445C29.7793 11.0508 29.6521 10.998 29.5195 10.998H6.51953Z" fill="white"/>
<path d="M18.0213 20.6266C17.4581 20.6272 16.9061 20.4695 16.4283 20.1715L4.49026 12.6886C4.37546 12.6206 4.27545 12.5303 4.19609 12.423C4.11673 12.3157 4.05963 12.1938 4.02818 12.0641C3.99672 11.9344 3.99154 11.7998 4.01293 11.6681C4.03433 11.5364 4.08186 11.4101 4.15274 11.297C4.22361 11.184 4.3164 11.0861 4.42562 11.0094C4.53485 10.9328 4.65831 10.8789 4.78874 10.8507C4.91916 10.8225 5.05391 10.8207 5.18504 10.8454C5.31617 10.8701 5.44103 10.9206 5.55227 10.9943L17.4903 18.4777C17.6497 18.5767 17.8336 18.6291 18.0213 18.6291C18.2089 18.6291 18.3929 18.5767 18.5523 18.4777L30.4903 10.9943C30.6015 10.9206 30.7264 10.8701 30.8575 10.8454C30.9886 10.8207 31.1234 10.8225 31.2538 10.8507C31.3842 10.8789 31.5077 10.9328 31.6169 11.0094C31.7261 11.0861 31.8189 11.184 31.8898 11.297C31.9607 11.4101 32.0082 11.5364 32.0296 11.6681C32.051 11.7998 32.0458 11.9344 32.0144 12.0641C31.9829 12.1938 31.9258 12.3157 31.8464 12.423C31.7671 12.5303 31.6671 12.6206 31.5523 12.6886L19.6143 20.1715C19.1365 20.4697 18.5844 20.6275 18.0213 20.6266Z" fill="white"/>
</svg>
