<svg width="36" height="36" viewBox="0 0 36 36" fill="none" xmlns="http://www.w3.org/2000/svg">
<path d="M17.5723 6.00001L17.5293 6.02051C15.3593 8.53451 10.2846 15.0738 10.0166 21.5498L10.0049 21.9639C10.0049 22.9597 10.201 23.9462 10.582 24.8662C10.9631 25.7862 11.5214 26.622 12.2256 27.3262C12.9297 28.0303 13.7655 28.5886 14.6855 28.9697C15.6056 29.3508 16.5921 29.5469 17.5879 29.5469C18.5837 29.5469 19.5692 29.3508 20.4893 28.9697C21.4093 28.5886 22.2451 28.0303 22.9492 27.3262C23.6534 26.622 24.2127 25.7862 24.5938 24.8662C24.9748 23.9462 25.1709 22.9597 25.1709 21.9639C25.1564 20.6742 24.9678 19.3928 24.6113 18.1533C23.2233 13.1283 19.6333 8.39449 17.6113 6.02149C17.6063 6.01433 17.5997 6.00873 17.5918 6.00489C17.5839 6.00104 17.5752 5.99959 17.5664 6.00001H17.5723ZM17.5664 4.00001C17.8652 3.99982 18.1606 4.06469 18.4316 4.19043C18.7026 4.31618 18.943 4.4993 19.1357 4.72754C21.2797 7.24954 25.0462 12.2281 26.5352 17.6221C26.9392 19.0349 27.151 20.4955 27.165 21.9648C27.165 24.5064 26.1556 26.9441 24.3584 28.7412C22.5612 30.5384 20.1236 31.5479 17.582 31.5479C15.0405 31.5479 12.6038 30.5384 10.8066 28.7412C9.00948 26.9441 8 24.5064 8 21.9648C8 21.7899 8.00565 21.6154 8.01465 21.4424C8.29965 14.5114 13.3686 7.77285 16.0146 4.71485C16.2071 4.49003 16.4459 4.30997 16.7148 4.18653C16.9838 4.06308 17.2763 3.99934 17.5723 4.00001H17.5664Z" fill="white"/>
</svg>
