<svg width="48" height="48" viewBox="0 0 48 48" fill="none" xmlns="http://www.w3.org/2000/svg">
<path d="M29.3076 26.6699C31.2896 26.6661 33.1961 27.4294 34.6279 28.7998C36.0598 30.1703 36.9063 32.0422 36.9893 34.0225C37.0722 36.0027 36.3855 37.9375 35.0732 39.4229C33.761 40.9082 31.9246 41.8283 29.9492 41.9902C27.9739 42.1521 26.0131 41.5439 24.4766 40.292C22.94 39.0401 21.9477 37.2417 21.707 35.2744C21.4664 33.3071 21.996 31.3236 23.1856 29.7383C24.3751 28.153 26.1318 27.0895 28.0879 26.7705C28.4912 26.7045 28.8989 26.6705 29.3076 26.6699ZM29.3076 23.6699C26.4975 23.6935 23.8111 24.826 21.8311 26.8203C19.851 28.8146 18.7378 31.5091 18.7344 34.3193C18.731 37.1296 19.8374 39.8281 21.8125 41.8271C23.7877 43.8262 26.4721 44.9647 29.2822 44.9951C29.8492 44.9947 30.4146 44.9501 30.9746 44.8613C33.6221 44.4392 36.0141 43.0349 37.6729 40.9287C39.3316 38.8225 40.136 36.1688 39.9258 33.4961C39.7155 30.8234 38.5057 28.3278 36.5381 26.5068C34.5704 24.6859 31.9886 23.6729 29.3076 23.6699Z" fill="#AA182C"/>
<path d="M19.3301 41.3242C16.9416 40.6184 14.8448 39.1601 13.3525 37.166C11.8603 35.172 11.0523 32.7484 11.0488 30.2578C11.0488 30.0578 11.0554 29.8521 11.0674 29.6231V29.6035V29.585C11.4674 19.785 19.1748 9.85993 22.4668 6.04593C22.4771 6.03213 22.4904 6.02119 22.5059 6.0137C22.5214 6.00622 22.5385 6.00244 22.5557 6.00296C22.575 6.00148 22.5948 6.00547 22.6123 6.0137C22.6298 6.02194 22.6451 6.03402 22.6562 6.04984C25.4732 9.36284 30.3061 15.7114 32.7031 22.6504C34.0128 23.0268 35.2495 23.622 36.3604 24.4112C36.2984 24.1622 36.234 23.911 36.166 23.668C33.91 15.493 28.1934 7.93445 24.9424 4.10745C24.6511 3.76356 24.2884 3.48635 23.8799 3.29593C23.4714 3.10551 23.0268 3.00593 22.5762 3.00394C22.1255 3.00194 21.6797 3.09741 21.2695 3.28421C20.8594 3.47101 20.4945 3.74467 20.2002 4.08597C16.1922 8.72697 8.50031 18.9469 8.07031 29.4629C8.05431 29.7269 8.04688 29.9918 8.04688 30.2578C8.04688 34.1133 9.57847 37.8109 12.3047 40.5371C15.0309 43.2634 18.7285 44.795 22.584 44.795C22.738 44.795 22.891 44.7892 23.043 44.7832C21.574 43.9066 20.3084 42.7276 19.3301 41.3242Z" fill="#AA182C"/>
<path d="M27.5825 38.4146C27.2875 38.4137 26.9992 38.3258 26.7534 38.1627C26.5076 37.9995 26.3151 37.7682 26.1997 37.4966L24.645 33.8052C24.4906 33.4384 24.488 33.0253 24.6382 32.6568C24.7884 32.2883 25.079 31.9948 25.4458 31.8404C25.8126 31.686 26.2257 31.6833 26.5942 31.8336C26.9627 31.9838 27.2563 32.2744 27.4106 32.6412L28.2651 34.6685L32.8452 31.648C33.009 31.5272 33.1949 31.4415 33.3931 31.3951C33.5912 31.3487 33.7971 31.3429 33.9975 31.3785C34.1979 31.4141 34.389 31.4903 34.5591 31.6021C34.7291 31.7139 34.8746 31.859 34.9868 32.0289C35.099 32.1987 35.1754 32.3891 35.2114 32.5894C35.2474 32.7897 35.2427 32.9956 35.1968 33.1939C35.1508 33.3922 35.0653 33.5787 34.9448 33.7427C34.8243 33.9068 34.671 34.0448 34.4956 34.148L28.4067 38.1627C28.1624 38.3251 27.8758 38.4126 27.5825 38.4146Z" fill="#AA182C"/>
</svg>
