<svg width="72" height="72" viewBox="0 0 72 72" fill="none" xmlns="http://www.w3.org/2000/svg">
<path d="M36.3219 60.5215C35.0268 60.5245 33.7832 60.0147 32.8629 59.1035L23.2129 49.6035C21.2509 47.6629 19.692 45.3539 18.6257 42.8086C17.5595 40.2633 17.007 37.532 17 34.7725V22.1182C16.9999 21.8883 17.045 21.6606 17.1329 21.4482C17.2208 21.2359 17.3497 21.0424 17.5122 20.8799C17.6747 20.7174 17.8677 20.5889 18.0801 20.501C18.2925 20.4131 18.5201 20.368 18.75 20.3682C20.5045 20.366 22.1864 19.6674 23.4269 18.4268C24.6674 17.1861 25.3651 15.5045 25.3669 13.75C25.3669 13.2859 25.5513 12.8409 25.8795 12.5127C26.2077 12.1845 26.6528 12 27.1169 12H45.522C45.9861 12 46.4312 12.1845 46.7594 12.5127C47.0876 12.8409 47.272 13.2859 47.272 13.75C47.2738 15.5045 47.9715 17.1861 49.212 18.4268C50.4525 19.6674 52.1345 20.366 53.8889 20.3682C54.1188 20.368 54.3465 20.4131 54.5588 20.501C54.7712 20.5889 54.9642 20.7174 55.1267 20.8799C55.2892 21.0424 55.4181 21.2359 55.506 21.4482C55.5939 21.6606 55.639 21.8883 55.6389 22.1182V34.7725C55.6319 37.532 55.0794 40.2633 54.0132 42.8086C52.9469 45.3539 51.3879 47.6629 49.4259 49.6035L39.776 59.1035C38.8569 60.0135 37.6153 60.5232 36.3219 60.5215ZM20.5 23.7217V34.7803C20.5059 37.0756 20.9654 39.3468 21.8523 41.4639C22.7392 43.5809 24.036 45.5021 25.668 47.1162L35.319 56.6162C35.5904 56.8721 35.9493 57.0146 36.3224 57.0146C36.6954 57.0146 37.0545 56.8721 37.3259 56.6162L46.9769 47.1162C48.6089 45.5021 49.9057 43.5809 50.7926 41.4639C51.6795 39.3468 52.139 37.0756 52.1449 34.7803V23.7217C50.0986 23.3589 48.2133 22.3767 46.7438 20.9072C45.2743 19.4377 44.2917 17.5521 43.929 15.5059H28.7179C28.3544 17.552 27.3711 19.4373 25.9011 20.9062C24.4311 22.3752 22.5453 23.3568 20.4989 23.7188L20.5 23.7217Z" fill="#AA182C"/>
<path d="M36.3017 23.3242C36.689 23.3244 37.0675 23.439 37.3894 23.6543C37.7113 23.8696 37.9621 24.1753 38.1101 24.5332C38.2581 24.8911 38.2967 25.2853 38.2209 25.665C38.1452 26.0448 37.9585 26.3933 37.6845 26.667C37.4106 26.9407 37.0616 27.1268 36.6817 27.2021C36.3019 27.2775 35.9082 27.2392 35.5505 27.0908C35.1928 26.9424 34.8872 26.6912 34.6722 26.3691C34.4572 26.047 34.3425 25.6685 34.3427 25.2812C34.3433 24.762 34.5499 24.2644 34.9172 23.8975C35.2845 23.5305 35.7825 23.3242 36.3017 23.3242ZM36.3017 19.8242C35.2222 19.8242 34.167 20.1444 33.2694 20.7441C32.3718 21.3439 31.6722 22.196 31.2591 23.1934C30.8461 24.1907 30.738 25.2879 30.9487 26.3467C31.1594 27.4055 31.6793 28.3783 32.4427 29.1416C33.2061 29.9049 34.1787 30.4243 35.2375 30.6348C36.2963 30.8453 37.3938 30.7375 38.3911 30.3242C39.3884 29.911 40.2408 29.2112 40.8404 28.3135C41.44 27.4158 41.7599 26.3608 41.7597 25.2812C41.7579 23.8344 41.1822 22.4468 40.159 21.4238C39.1358 20.4008 37.7486 19.8258 36.3017 19.8242Z" fill="#AA182C"/>
<path d="M36.2992 35.4453C37.9335 35.4476 39.5173 36.0133 40.7841 37.0459C42.0509 38.0785 42.9234 39.5149 43.2551 41.1152H29.3431C29.6747 39.5148 30.5474 38.0776 31.8142 37.0449C33.081 36.0123 34.6648 35.4474 36.2992 35.4453ZM36.2992 31.9453C33.489 31.949 30.7951 33.0676 28.808 35.0547C26.8209 37.0418 25.7029 39.7357 25.6992 42.5459C25.6992 43.0944 25.9171 43.62 26.3049 44.0078C26.6928 44.3956 27.2187 44.6133 27.7672 44.6133H44.8322C45.3807 44.6133 45.9068 44.3956 46.2948 44.0078C46.6828 43.62 46.9009 43.0945 46.9011 42.5459C46.8974 39.7357 45.7796 37.0418 43.7925 35.0547C41.8054 33.0676 39.1113 31.949 36.3011 31.9453H36.2992Z" fill="#AA182C"/>
</svg>
