<svg width="48" height="49" viewBox="0 0 48 49" fill="none" xmlns="http://www.w3.org/2000/svg">
<path d="M20.124 48.9141H4C2.93978 48.9119 1.92358 48.4899 1.17389 47.7402C0.424201 46.9905 0.0021141 45.9743 0 44.9141V4C0.0021141 2.93978 0.424201 1.92352 1.17389 1.17383C1.92358 0.42414 2.93978 0.0021141 4 0H32.567C33.6272 0.0021141 34.6434 0.42414 35.3931 1.17383C36.1428 1.92352 36.5649 2.93978 36.567 4V16.9463C36.567 17.4104 36.3826 17.8554 36.0544 18.1836C35.7263 18.5118 35.2811 18.6963 34.817 18.6963C34.3529 18.6963 33.9078 18.5118 33.5796 18.1836C33.2514 17.8554 33.067 17.4104 33.067 16.9463V4C33.0657 3.8678 33.0126 3.74192 32.9191 3.64844C32.8256 3.55495 32.6992 3.5013 32.567 3.5H4C3.86739 3.5 3.74019 3.55272 3.64642 3.64648C3.55266 3.74025 3.5 3.86739 3.5 4V44.9141C3.5 45.0467 3.55266 45.1738 3.64642 45.2676C3.74019 45.3613 3.86739 45.4141 4 45.4141H20.125C20.5891 45.4141 21.0342 45.5986 21.3624 45.9268C21.6906 46.2549 21.875 46.6999 21.875 47.1641C21.875 47.6282 21.6906 48.0732 21.3624 48.4014C21.0342 48.7296 20.5891 48.9141 20.125 48.9141H20.124Z" fill="#AA182C"/>
<path d="M45.6145 48.2793H26.0915C25.4749 48.2764 24.8847 48.0294 24.4503 47.5918C24.0159 47.1542 23.7728 46.5619 23.7744 45.9453C23.7539 44.3461 24.0511 42.7588 24.6488 41.2754C25.2466 39.792 26.133 38.4419 27.2566 37.3037C28.3801 36.1656 29.7185 35.2623 31.1941 34.6455C32.6697 34.0287 34.2531 33.7109 35.8524 33.7109C37.4518 33.7109 39.0352 34.0287 40.5108 34.6455C41.9864 35.2623 43.3248 36.1656 44.4484 37.3037C45.572 38.4419 46.4583 39.792 47.0561 41.2754C47.6538 42.7588 47.951 44.3461 47.9304 45.9453C47.932 46.5617 47.6891 47.1533 47.255 47.5908C46.8208 48.0284 46.2308 48.2761 45.6145 48.2793ZM27.3515 44.7793H44.3515C44.0928 42.7073 43.0862 40.8009 41.5209 39.4189C39.9556 38.037 37.9395 37.2744 35.8515 37.2744C33.7634 37.2744 31.7472 38.037 30.182 39.4189C28.6167 40.8009 27.6102 42.7073 27.3515 44.7793Z" fill="#AA182C"/>
<path d="M35.8524 33.0339C34.6257 33.0442 33.4237 32.6903 32.3988 32.0163C31.3738 31.3423 30.5723 30.379 30.0957 29.2487C29.6191 28.1184 29.4891 26.872 29.7221 25.6677C29.955 24.4633 30.5405 23.3551 31.4042 22.4841C32.268 21.613 33.371 21.0182 34.5733 20.7751C35.7757 20.532 37.0231 20.6518 38.1574 21.1188C39.2917 21.5858 40.2617 22.3789 40.9443 23.3981C41.6269 24.4173 41.9913 25.6168 41.9913 26.8434C41.9961 28.4779 41.3526 30.0471 40.2017 31.2077C39.0509 32.3683 37.4868 33.0249 35.8524 33.0339ZM35.8524 24.153C35.318 24.1427 34.7926 24.2923 34.3432 24.5817C33.8938 24.8711 33.5409 25.2872 33.3292 25.778C33.1176 26.2688 33.057 26.8121 33.155 27.3376C33.2531 27.863 33.5054 28.3467 33.8798 28.7282C34.2542 29.1097 34.7337 29.3713 35.2572 29.4792C35.7807 29.5871 36.3244 29.537 36.8192 29.3346C37.3139 29.1323 37.7372 28.7873 38.035 28.3434C38.3328 27.8996 38.4916 27.377 38.4913 26.8425C38.4967 26.1363 38.222 25.4568 37.7274 24.9528C37.2327 24.4488 36.5585 24.1609 35.8524 24.153Z" fill="#AA182C"/>
<path d="M17.5815 12.9648H9.9375C9.47337 12.9648 9.0282 12.7803 8.70001 12.4521C8.37182 12.124 8.1875 11.679 8.1875 11.2148C8.1875 10.7507 8.37182 10.3057 8.70001 9.97754C9.0282 9.64935 9.47337 9.46484 9.9375 9.46484H17.5815C18.0456 9.46484 18.4907 9.64935 18.8189 9.97754C19.1471 10.3057 19.3315 10.7507 19.3315 11.2148C19.3315 11.679 19.1471 12.124 18.8189 12.4521C18.4907 12.7803 18.0456 12.9648 17.5815 12.9648Z" fill="#AA182C"/>
<path d="M26.6305 21.9414H9.9375C9.47337 21.9414 9.0282 21.7569 8.70001 21.4287C8.37182 21.1005 8.1875 20.6555 8.1875 20.1914C8.1875 19.7273 8.37182 19.2823 8.70001 18.9541C9.0282 18.6259 9.47337 18.4414 9.9375 18.4414H26.6305C27.0946 18.4414 27.5397 18.6259 27.8679 18.9541C28.1961 19.2823 28.3805 19.7273 28.3805 20.1914C28.3805 20.6555 28.1961 21.1005 27.8679 21.4287C27.5397 21.7569 27.0946 21.9414 26.6305 21.9414Z" fill="#AA182C"/>
<path d="M26.6305 28.9414H9.9375C9.47337 28.9414 9.0282 28.7569 8.70001 28.4287C8.37182 28.1005 8.1875 27.6555 8.1875 27.1914C8.1875 26.7273 8.37182 26.2823 8.70001 25.9541C9.0282 25.6259 9.47337 25.4414 9.9375 25.4414H26.6305C27.0946 25.4414 27.5397 25.6259 27.8679 25.9541C28.1961 26.2823 28.3805 26.7273 28.3805 27.1914C28.3805 27.6555 28.1961 28.1005 27.8679 28.4287C27.5397 28.7569 27.0946 28.9414 26.6305 28.9414Z" fill="#AA182C"/>
<path d="M26.6305 35.9414H9.9375C9.47337 35.9414 9.0282 35.7569 8.70001 35.4287C8.37182 35.1005 8.1875 34.6555 8.1875 34.1914C8.1875 33.7273 8.37182 33.2823 8.70001 32.9541C9.0282 32.6259 9.47337 32.4414 9.9375 32.4414H26.6305C27.0946 32.4414 27.5397 32.6259 27.8679 32.9541C28.1961 33.2823 28.3805 33.7273 28.3805 34.1914C28.3805 34.6555 28.1961 35.1005 27.8679 35.4287C27.5397 35.7569 27.0946 35.9414 26.6305 35.9414Z" fill="#AA182C"/>
</svg>
