<svg width="72" height="72" viewBox="0 0 72 72" fill="none" xmlns="http://www.w3.org/2000/svg">
<path d="M56.1416 12C55.6912 12.0011 55.2594 12.1809 54.9414 12.5L37.9856 29.4551C37.8798 29.5613 37.8203 29.7051 37.8203 29.855C37.8203 30.0049 37.8798 30.1487 37.9856 30.255L42.7505 35.02C42.8569 35.1255 43.0005 35.1847 43.1504 35.1847C43.3002 35.1847 43.4442 35.1255 43.5505 35.02L60.5056 18.0651C60.8232 17.7464 61.0012 17.3148 61.0012 16.865C61.0012 16.4151 60.8232 15.9837 60.5056 15.665L57.3396 12.5C57.1825 12.3416 56.9955 12.2158 56.7896 12.13C56.5836 12.0442 56.3625 12 56.1394 12H56.1416Z" fill="#AA182C"/>
<path d="M35.3348 32.4464C35.175 32.4494 35.0189 32.4966 34.8841 32.5825C34.7493 32.6684 34.6409 32.7898 34.5707 32.9334C33.4318 35.228 32.4154 37.5812 31.5257 39.9834C31.1377 41.0114 31.4517 41.6434 32.2257 41.6434C32.4968 41.6355 32.7644 41.5792 33.0157 41.4774C35.418 40.5876 37.7714 39.5709 40.0658 38.4313C40.1789 38.3814 40.2787 38.306 40.3578 38.2109C40.4368 38.1158 40.4927 38.0036 40.5211 37.8833C40.5495 37.7629 40.5495 37.6377 40.5213 37.5173C40.4932 37.3969 40.4376 37.2846 40.3587 37.1894L35.8077 32.6384C35.7449 32.576 35.6703 32.5267 35.5882 32.4936C35.5061 32.4605 35.4182 32.4441 35.3297 32.4454L35.3348 32.4464Z" fill="#AA182C"/>
<path d="M53.408 60.9921H17.1001C15.748 60.9905 14.4517 60.4527 13.4956 59.4966C12.5395 58.5405 12.0016 57.2442 12 55.8921V19.6C12.0016 18.2479 12.5395 16.9516 13.4956 15.9955C14.4517 15.0394 15.748 14.5016 17.1001 14.5H43.3169C43.781 14.5 44.2263 14.6844 44.5544 15.0126C44.8826 15.3408 45.0669 15.7859 45.0669 16.25C45.0669 16.7141 44.8826 17.1592 44.5544 17.4874C44.2263 17.8156 43.781 18 43.3169 18H17.1001C16.6758 18 16.2688 18.1686 15.9688 18.4686C15.6687 18.7687 15.5 19.1756 15.5 19.6V55.8921C15.5 56.3164 15.6687 56.7234 15.9688 57.0234C16.2688 57.3235 16.6758 57.4921 17.1001 57.4921H53.407C53.8313 57.4921 54.2383 57.3235 54.5383 57.0234C54.8384 56.7234 55.0071 56.3164 55.0071 55.8921V29.6851C55.0071 29.2209 55.1913 28.7758 55.5195 28.4476C55.8477 28.1194 56.2929 27.9351 56.7571 27.9351C57.2212 27.9351 57.6662 28.1194 57.9944 28.4476C58.3226 28.7758 58.5071 29.2209 58.5071 29.6851V55.8921C58.5052 57.244 57.9673 58.5398 57.0115 59.4958C56.0557 60.4519 54.7598 60.9899 53.408 60.9921Z" fill="#AA182C"/>
</svg>
