<svg width="72" height="72" viewBox="0 0 72 72" fill="none" xmlns="http://www.w3.org/2000/svg">
<path d="M37.6459 39.6074C39.5984 39.6125 41.4768 40.3523 42.9086 41.6797C44.3404 43.0071 45.22 44.825 45.3725 46.7715C45.525 48.718 44.9395 50.6513 43.7319 52.1855C42.5243 53.7198 40.7837 54.7427 38.8559 55.0518C38.4468 55.1175 38.0329 55.1505 37.6186 55.1514C35.5576 55.1478 33.5822 54.3261 32.1274 52.8662C30.6726 51.4063 29.8572 49.4282 29.8608 47.3672C29.8644 45.3062 30.687 43.3308 32.1469 41.876C33.6068 40.4212 35.5849 39.6058 37.6459 39.6094V39.6074ZM37.6459 36.1094C37.0464 36.1099 36.4479 36.1583 35.8559 36.2529C32.9851 36.7149 30.4037 38.2696 28.6537 40.5918C26.9038 42.914 26.1202 45.823 26.4672 48.71C26.8143 51.5969 28.2656 54.2378 30.516 56.0791C32.7665 57.9204 35.6419 58.8194 38.5405 58.5879C41.439 58.3563 44.1352 57.0121 46.0649 54.8369C47.9945 52.6617 49.0077 49.8244 48.892 46.9189C48.7763 44.0135 47.5412 41.2659 45.4448 39.251C43.3483 37.2361 40.5537 36.1097 37.6459 36.1094Z" fill="#AA182C"/>
<path d="M37.2871 53.3215C37.2273 53.3221 37.1678 53.318 37.1084 53.3108C36.2745 53.2254 35.4653 52.9773 34.7276 52.5793C33.9898 52.1814 33.3379 51.6415 32.8086 50.9914C32.2793 50.3414 31.8829 49.5934 31.6426 48.7903C31.4024 47.9872 31.3228 47.1447 31.4082 46.3108C31.4553 45.849 31.6842 45.4253 32.044 45.1321C32.4038 44.8388 32.8645 44.7002 33.3262 44.7473C33.7879 44.7944 34.2127 45.0232 34.5059 45.383C34.7991 45.7428 34.9368 46.2045 34.8897 46.6662C34.8511 47.0429 34.8876 47.4236 34.9961 47.7864C35.1047 48.1491 35.2834 48.4869 35.5225 48.7805C35.7616 49.0741 36.0564 49.3177 36.3897 49.4973C36.723 49.6769 37.0882 49.789 37.4649 49.8274C37.9113 49.8728 38.324 50.0875 38.6162 50.428C38.9085 50.7685 39.0579 51.2083 39.0352 51.6565C39.0125 52.1046 38.8184 52.527 38.4932 52.8362C38.168 53.1454 37.7369 53.3175 37.2881 53.3176L37.2871 53.3215Z" fill="#AA182C"/>
<path d="M55.2954 60.9737C54.9272 60.974 54.569 60.8577 54.271 60.6416L46.1616 54.7627C45.9732 54.6288 45.8132 54.4579 45.6909 54.2618C45.5686 54.0656 45.4861 53.8473 45.4487 53.6192C45.4113 53.391 45.4198 53.1576 45.4731 52.9327C45.5264 52.7077 45.6235 52.4958 45.7593 52.3086C45.895 52.1215 46.0668 51.9633 46.2641 51.8428C46.4615 51.7223 46.6802 51.6418 46.9087 51.6065C47.1372 51.5712 47.3707 51.5814 47.5952 51.6368C47.8197 51.6921 48.0304 51.7922 48.2163 51.9297L56.3257 57.8077C56.6254 58.0245 56.8487 58.3309 56.9634 58.6827C57.078 59.0344 57.0777 59.4128 56.9634 59.7647C56.849 60.1165 56.6262 60.4235 56.3266 60.6407C56.0271 60.8578 55.6663 60.9745 55.2964 60.9737H55.2954Z" fill="#AA182C"/>
<path d="M37.2871 53.3215C37.2273 53.3221 37.1678 53.318 37.1084 53.3108C36.2745 53.2254 35.4653 52.9773 34.7276 52.5793C33.9898 52.1814 33.3379 51.6415 32.8086 50.9914C32.2793 50.3414 31.8829 49.5934 31.6426 48.7903C31.4024 47.9872 31.3228 47.1447 31.4082 46.3108C31.4553 45.849 31.6842 45.4253 32.044 45.1321C32.4038 44.8388 32.8645 44.7002 33.3262 44.7473C33.7879 44.7944 34.2127 45.0232 34.5059 45.383C34.7991 45.7428 34.9368 46.2045 34.8897 46.6662C34.8511 47.0429 34.8876 47.4236 34.9961 47.7864C35.1047 48.1491 35.2834 48.4869 35.5225 48.7805C35.7616 49.0741 36.0564 49.3177 36.3897 49.4973C36.723 49.6769 37.0882 49.789 37.4649 49.8274C37.9113 49.8728 38.324 50.0875 38.6162 50.428C38.9085 50.7685 39.0579 51.2083 39.0352 51.6565C39.0125 52.1046 38.8184 52.527 38.4932 52.8362C38.168 53.1454 37.7369 53.3175 37.2881 53.3176L37.2871 53.3215Z" fill="#AA182C"/>
<path d="M28.957 57.1045C25.7748 56.6179 22.8722 55.0085 20.7734 52.5674C18.6746 50.1264 17.5187 47.0152 17.5146 43.7959C17.5146 43.5629 17.5222 43.3197 17.5352 43.0557V43.0332V43.0118C18.0062 31.5828 26.996 19.9998 30.835 15.5508C30.8466 15.5352 30.8625 15.5226 30.8799 15.5137C30.8972 15.5049 30.9161 15.5003 30.9355 15.5C30.9574 15.4994 30.9794 15.5041 30.999 15.5137C31.0187 15.5233 31.0358 15.5372 31.0488 15.5547C34.4118 19.5137 40.2488 27.18 42.9688 35.5C44.6821 36.2664 46.2073 37.3968 47.4385 38.8135C47.2678 37.9062 47.0585 37.0038 46.8105 36.1065C44.1775 26.5705 37.51 17.7501 33.71 13.2881C33.3706 12.8866 32.949 12.5634 32.4727 12.3409C31.9963 12.1183 31.4769 12.0026 30.9512 12C30.4254 11.9975 29.9053 12.1084 29.4268 12.3262C28.9482 12.5441 28.523 12.8635 28.1797 13.2618C23.5037 18.6758 14.5313 30.6002 14.0273 42.8682C14.0093 43.1752 14 43.4839 14 43.7969C13.9998 46.3936 14.5959 48.9552 15.7422 51.2852C16.8885 53.6152 18.5551 55.6509 20.6123 57.2354C22.6695 58.8199 25.063 59.9105 27.6084 60.4239C30.1538 60.9373 32.7824 60.8596 35.293 60.1963C32.9351 59.7731 30.7415 58.7027 28.957 57.1045Z" fill="#AA182C"/>
</svg>
