<svg width="72" height="72" viewBox="0 0 72 72" fill="none" xmlns="http://www.w3.org/2000/svg">
<path d="M54.9023 54.9299H49.8435V51.4299H54.1633V15.5H23.6055V19.8199H20.1055V14.761C20.1063 14.0291 20.3972 13.3275 20.9146 12.8099C21.432 12.2923 22.1336 12.0011 22.8655 12H54.9014C55.6334 12.0008 56.3352 12.292 56.8528 12.8096C57.3704 13.3272 57.6616 14.029 57.6624 14.761V52.1689C57.6616 52.9008 57.3707 53.6025 56.8533 54.1201C56.3359 54.6377 55.6342 54.9289 54.9023 54.9299Z" fill="#AA182C"/>
<path d="M29.9835 39.2958C29.6375 39.2957 29.2995 39.193 29.0118 39.0007C28.7242 38.8084 28.4999 38.5351 28.3676 38.2154C28.2352 37.8957 28.2005 37.544 28.2679 37.2047C28.3354 36.8653 28.5019 36.5536 28.7465 36.3089L38.7665 26.2879C39.0966 25.9692 39.5388 25.7929 39.9977 25.7969C40.4565 25.801 40.8955 25.9851 41.2199 26.3096C41.5443 26.6342 41.7282 27.0732 41.7321 27.5321C41.736 27.9909 41.5594 28.4329 41.2406 28.7629L31.2196 38.7829C31.0576 38.9457 30.8648 39.0747 30.6527 39.1628C30.4406 39.2508 30.2132 39.296 29.9835 39.2958Z" fill="#AA182C"/>
<path d="M29.9832 39.2957C29.7533 39.2959 29.5258 39.2508 29.3135 39.1627C29.1012 39.0747 28.9083 38.9454 28.7461 38.7826L24.321 34.3586C23.9928 34.0304 23.8086 33.5852 23.8086 33.1211C23.8086 32.6569 23.9928 32.2119 24.321 31.8837C24.6493 31.5555 25.0944 31.3711 25.5586 31.3711C26.0227 31.3711 26.4679 31.5555 26.7961 31.8837L31.2212 36.3086C31.4658 36.5534 31.6323 36.8653 31.6997 37.2047C31.7671 37.5442 31.7324 37.896 31.5999 38.2157C31.4673 38.5354 31.2431 38.8086 30.9553 39.0009C30.6675 39.1931 30.3292 39.2957 29.9832 39.2957Z" fill="#AA182C"/>
<path d="M40.0037 47.0469H25.5586C25.0945 47.0469 24.6495 46.8625 24.3213 46.5343C23.9931 46.2061 23.8086 45.761 23.8086 45.2969C23.8086 44.8327 23.9931 44.3876 24.3213 44.0594C24.6495 43.7313 25.0945 43.5469 25.5586 43.5469H40.0037C40.4678 43.5469 40.9128 43.7313 41.241 44.0594C41.5692 44.3876 41.7537 44.8327 41.7537 45.2969C41.7537 45.761 41.5692 46.2061 41.241 46.5343C40.9128 46.8625 40.4678 47.0469 40.0037 47.0469Z" fill="#AA182C"/>
<path d="M40.0037 53.1914H25.5586C25.0945 53.1914 24.6495 53.0071 24.3213 52.679C23.9931 52.3508 23.8086 51.9055 23.8086 51.4414C23.8086 50.9773 23.9931 50.5322 24.3213 50.204C24.6495 49.8758 25.0945 49.6914 25.5586 49.6914H40.0037C40.4678 49.6914 40.9128 49.8758 41.241 50.204C41.5692 50.5322 41.7537 50.9773 41.7537 51.4414C41.7537 51.9055 41.5692 52.3508 41.241 52.679C40.9128 53.0071 40.4678 53.1914 40.0037 53.1914Z" fill="#AA182C"/>
<path d="M48.6421 61.0004H16.917C16.1436 60.9996 15.4021 60.692 14.8552 60.1451C14.3084 59.5983 14.0008 58.8568 14 58.0834V20.9834C14.0008 20.21 14.3084 19.4685 14.8552 18.9216C15.4021 18.3748 16.1436 18.0672 16.917 18.0664H48.6421C49.4155 18.0672 50.157 18.3748 50.7039 18.9216C51.2507 19.4685 51.5583 20.21 51.5591 20.9834V58.0834C51.5583 58.8568 51.2507 59.5983 50.7039 60.1451C50.157 60.692 49.4155 60.9996 48.6421 61.0004ZM17.501 57.5004H48.0591V21.5704H17.501V57.5004Z" fill="#AA182C"/>
</svg>
