<svg width="712" height="489" viewBox="0 0 712 489" fill="none" xmlns="http://www.w3.org/2000/svg">
<path d="M663.637 31.7422H660.09V269.711H663.637V31.7422Z" fill="#0074A6"/>
<path d="M671.299 0H449.393C447.964 0 446.805 1.15808 446.805 2.58664V29.98C446.805 31.4086 447.964 32.5667 449.393 32.5667H671.299C672.729 32.5667 673.888 31.4086 673.888 29.98V2.58664C673.888 1.15808 672.729 0 671.299 0Z" fill="#B7DFF0"/>
<path d="M656.721 32.5664H455.406V41.0713H656.721V32.5664Z" fill="#E0F4FD"/>
<path d="M656.721 43.1523H455.406V51.6573H656.721V43.1523Z" fill="#DAF0FA"/>
<path d="M656.721 53.7422H455.406V62.2471H656.721V53.7422Z" fill="#E0F4FD"/>
<path d="M656.721 64.3281H455.406V72.8331H656.721V64.3281Z" fill="#DAF0FA"/>
<path d="M656.721 74.918H455.406V83.4229H656.721V74.918Z" fill="#E0F4FD"/>
<path d="M656.721 85.5039H455.406V94.0088H656.721V85.5039Z" fill="#DAF0FA"/>
<path d="M656.721 96.0938H455.406V104.599H656.721V96.0938Z" fill="#E0F4FD"/>
<path d="M656.721 106.684H455.406V115.189H656.721V106.684Z" fill="#DAF0FA"/>
<path d="M656.721 117.27H455.406V125.774H656.721V117.27Z" fill="#E0F4FD"/>
<path d="M656.721 127.855H455.406V136.36H656.721V127.855Z" fill="#DAF0FA"/>
<path d="M656.721 138.449H455.406V146.954H656.721V138.449Z" fill="#E0F4FD"/>
<path d="M656.721 149.035H455.406V157.54H656.721V149.035Z" fill="#DAF0FA"/>
<path d="M656.721 159.625H455.406V168.13H656.721V159.625Z" fill="#E0F4FD"/>
<path d="M656.721 170.211H455.406V178.716H656.721V170.211Z" fill="#DAF0FA"/>
<path d="M656.721 180.801H455.406V189.306H656.721V180.801Z" fill="#E0F4FD"/>
<path d="M656.721 191.387H455.406V199.892H656.721V191.387Z" fill="#DAF0FA"/>
<path d="M656.721 201.977H455.406V210.482H656.721V201.977Z" fill="#E0F4FD"/>
<path d="M656.721 212.895H455.406V221.399H656.721V212.895Z" fill="#DAF0FA"/>
<path d="M656.721 223.48H455.406V231.985H656.721V223.48Z" fill="#E0F4FD"/>
<path d="M656.721 234.07H455.406V242.575H656.721V234.07Z" fill="#DAF0FA"/>
<path d="M656.721 244.656H455.406V253.161H656.721V244.656Z" fill="#E0F4FD"/>
<path d="M656.721 255.246H455.406V263.751H656.721V255.246Z" fill="#DAF0FA"/>
<path d="M656.721 265.832H455.406V274.337H656.721V265.832Z" fill="#E0F4FD"/>
<path d="M656.721 276.422H455.406V284.927H656.721V276.422Z" fill="#DAF0FA"/>
<path d="M661.866 275.683C665.166 275.683 667.841 273.01 667.841 269.712C667.841 266.415 665.166 263.742 661.866 263.742C658.566 263.742 655.891 266.415 655.891 269.712C655.891 273.01 658.566 275.683 661.866 275.683Z" fill="#004966"/>
<path d="M663.964 275.484C666.103 275.484 667.838 273.751 667.838 271.613C667.838 269.475 666.103 267.742 663.964 267.742C661.824 267.742 660.09 269.475 660.09 271.613C660.09 273.751 661.824 275.484 663.964 275.484Z" fill="#00638C"/>
<path d="M666.634 271.004C666.633 270.548 666.537 270.098 666.352 269.681C666.207 269.661 666.062 269.65 665.916 269.648C665.048 269.648 664.217 269.993 663.603 270.606C662.99 271.219 662.645 272.05 662.645 272.917C662.645 273.373 662.741 273.824 662.927 274.24C663.071 274.26 663.217 274.271 663.362 274.272C664.23 274.272 665.062 273.928 665.676 273.315C666.289 272.702 666.634 271.871 666.634 271.004Z" fill="#CCE8F5"/>
<path d="M449.563 32.5657H671.128C671.859 32.5654 672.561 32.2749 673.078 31.758C673.595 31.2412 673.886 30.5402 673.886 29.8093V2.75643C673.886 2.02546 673.595 1.32454 673.078 0.807666C672.561 0.290795 671.859 0.000264699 671.128 0H631.904L618.629 7.16671C607.545 13.1507 595.145 16.2836 582.547 16.2829H446.805V29.8093C446.805 30.5403 447.095 31.2415 447.612 31.7584C448.13 32.2753 448.831 32.5657 449.563 32.5657Z" fill="#A1DEF8"/>
<path d="M6.31297 463.967V282.336H709.004V478.927H5.30859L6.31297 463.967Z" fill="#FDF2F3"/>
<path d="M662.184 356.264C662.184 356.264 660.108 341.734 672.572 341.042C685.037 340.349 696.349 359.724 662.184 356.264Z" fill="#F7B4B8"/>
<path d="M659.314 332.171C659.314 332.171 661.095 319.71 650.406 319.117C639.718 318.524 630.015 335.137 659.314 332.171Z" fill="#F7B4B8"/>
<path d="M661.612 430.649C661.55 430.649 661.488 430.636 661.431 430.613C661.374 430.589 661.322 430.554 661.278 430.511C661.235 430.467 661.2 430.415 661.176 430.358C661.153 430.3 661.14 430.239 661.141 430.177V308.158C661.141 308.033 661.19 307.914 661.279 307.825C661.367 307.737 661.487 307.688 661.612 307.688C661.674 307.687 661.735 307.699 661.792 307.723C661.85 307.747 661.901 307.781 661.945 307.825C661.989 307.869 662.024 307.921 662.048 307.978C662.072 308.035 662.084 308.096 662.084 308.158V430.177C662.084 430.239 662.072 430.301 662.048 430.358C662.025 430.415 661.99 430.467 661.946 430.511C661.902 430.555 661.85 430.589 661.792 430.613C661.735 430.637 661.674 430.649 661.612 430.649Z" fill="#F49BA1"/>
<path d="M661.414 336.812C661.366 336.812 661.318 336.797 661.278 336.77C661.238 336.742 661.208 336.702 661.191 336.656C661.169 336.594 658.937 330.482 656.446 328.866C656.394 328.832 656.358 328.779 656.345 328.718C656.332 328.657 656.344 328.593 656.378 328.541C656.412 328.489 656.465 328.452 656.527 328.439C656.588 328.426 656.652 328.437 656.705 328.471C659.328 330.169 661.543 336.236 661.636 336.494C661.656 336.552 661.653 336.616 661.627 336.672C661.6 336.729 661.553 336.772 661.494 336.793C661.469 336.804 661.442 336.811 661.414 336.812Z" fill="#F49BA1"/>
<path d="M663.658 332.171C663.658 332.171 661.876 319.71 672.566 319.117C683.256 318.524 692.959 335.137 663.658 332.171Z" fill="#F18289"/>
<path d="M661.45 308.509C661.45 308.509 659.511 298.096 668.477 297.224C677.442 296.352 686.187 309.967 661.45 308.509Z" fill="#F18289"/>
<path d="M661.564 336.811C661.536 336.811 661.509 336.806 661.484 336.797C661.425 336.776 661.377 336.733 661.351 336.677C661.324 336.62 661.321 336.556 661.342 336.497C661.435 336.24 663.651 330.175 666.273 328.475C666.326 328.441 666.39 328.43 666.451 328.443C666.513 328.456 666.566 328.492 666.6 328.545C666.617 328.571 666.629 328.6 666.634 328.63C666.64 328.661 666.639 328.692 666.633 328.722C666.626 328.752 666.614 328.781 666.596 328.806C666.579 328.832 666.556 328.854 666.53 328.87C664.04 330.484 661.809 336.596 661.787 336.66C661.769 336.705 661.739 336.744 661.699 336.771C661.659 336.797 661.612 336.812 661.564 336.811Z" fill="#F49BA1"/>
<path d="M661.515 358.429C661.501 358.431 661.487 358.431 661.474 358.429C661.443 358.424 661.414 358.413 661.387 358.397C661.361 358.381 661.338 358.359 661.321 358.334C661.303 358.309 661.29 358.28 661.283 358.25C661.276 358.22 661.276 358.188 661.281 358.158C662.048 354.796 663.911 351.783 666.578 349.595C666.602 349.575 666.63 349.56 666.659 349.55C666.689 349.541 666.72 349.537 666.751 349.54C666.782 349.543 666.812 349.551 666.839 349.566C666.867 349.58 666.891 349.6 666.911 349.624C666.931 349.648 666.946 349.675 666.955 349.705C666.965 349.734 666.968 349.765 666.965 349.796C666.962 349.827 666.954 349.857 666.939 349.885C666.925 349.912 666.905 349.937 666.881 349.956C664.316 352.087 662.513 354.994 661.746 358.238C661.735 358.291 661.707 358.34 661.665 358.375C661.622 358.41 661.57 358.429 661.515 358.429Z" fill="#F49BA1"/>
<path d="M662.315 383.232C662.315 383.232 659.833 365.871 674.726 365.045C689.618 364.219 703.132 387.365 662.315 383.232Z" fill="#F18289"/>
<path d="M661.514 385.766C661.501 385.768 661.487 385.768 661.473 385.766C661.412 385.755 661.357 385.721 661.321 385.67C661.285 385.619 661.27 385.556 661.281 385.494C662.22 381.498 664.437 377.916 667.596 375.291C667.62 375.27 667.647 375.255 667.677 375.246C667.706 375.236 667.738 375.233 667.769 375.235C667.8 375.238 667.829 375.247 667.857 375.261C667.884 375.276 667.909 375.296 667.928 375.319C667.948 375.343 667.963 375.371 667.973 375.4C667.982 375.43 667.986 375.461 667.983 375.492C667.98 375.523 667.971 375.553 667.957 375.581C667.942 375.608 667.922 375.632 667.898 375.652C664.823 378.203 662.663 381.686 661.746 385.573C661.736 385.627 661.708 385.676 661.665 385.711C661.623 385.747 661.57 385.766 661.514 385.766Z" fill="#F49BA1"/>
<path d="M662.557 414.597C662.557 414.597 659.33 392.026 678.695 390.946C698.06 389.867 715.632 419.972 662.557 414.597Z" fill="#F7B4B8"/>
<path d="M661.514 417.818C661.501 417.82 661.487 417.82 661.473 417.818C661.412 417.807 661.357 417.773 661.321 417.722C661.285 417.671 661.27 417.608 661.281 417.546C662.5 412.366 665.374 407.724 669.468 404.321C669.492 404.301 669.52 404.286 669.549 404.277C669.579 404.267 669.61 404.264 669.641 404.267C669.672 404.269 669.702 404.278 669.73 404.293C669.757 404.307 669.782 404.327 669.801 404.351C669.821 404.375 669.836 404.402 669.845 404.432C669.854 404.461 669.858 404.492 669.855 404.523C669.852 404.554 669.843 404.583 669.829 404.611C669.814 404.638 669.795 404.662 669.771 404.682C665.762 408.012 662.945 412.555 661.747 417.625C661.737 417.679 661.708 417.728 661.666 417.764C661.623 417.799 661.57 417.818 661.514 417.818Z" fill="#F49BA1"/>
<path d="M660.298 355.154C660.298 355.154 662.074 340.584 649.597 340.152C637.121 339.719 626.216 359.322 660.298 355.154Z" fill="#F18289"/>
<path d="M661.009 357.297C660.955 357.297 660.902 357.277 660.86 357.242C660.817 357.207 660.788 357.159 660.778 357.105C659.942 353.879 658.08 351.011 655.471 348.935C655.422 348.896 655.391 348.839 655.384 348.777C655.377 348.715 655.395 348.652 655.434 348.603C655.473 348.555 655.531 348.524 655.593 348.517C655.655 348.51 655.717 348.528 655.766 348.567C658.478 350.7 660.404 353.672 661.241 357.017C661.253 357.079 661.24 357.142 661.205 357.194C661.17 357.245 661.115 357.281 661.054 357.293C661.039 357.295 661.024 357.297 661.009 357.297Z" fill="#F49BA1"/>
<path d="M660.729 382.115C660.729 382.115 662.851 364.706 647.945 364.188C633.038 363.67 620.008 387.095 660.729 382.115Z" fill="#F7B4B8"/>
<path d="M661.578 384.628C661.523 384.628 661.47 384.609 661.428 384.574C661.386 384.539 661.357 384.49 661.347 384.436C660.346 380.572 658.115 377.137 654.991 374.649C654.942 374.61 654.911 374.554 654.904 374.492C654.897 374.43 654.915 374.367 654.954 374.319C654.993 374.27 655.049 374.239 655.111 374.232C655.173 374.225 655.236 374.243 655.284 374.282C658.496 376.841 660.787 380.376 661.81 384.352C661.816 384.382 661.815 384.413 661.809 384.444C661.803 384.474 661.791 384.503 661.773 384.528C661.756 384.554 661.733 384.576 661.708 384.593C661.682 384.61 661.653 384.622 661.622 384.627C661.607 384.629 661.593 384.629 661.578 384.628Z" fill="#F49BA1"/>
<path d="M660.607 413.251C660.607 413.251 663.366 390.615 643.982 389.941C624.598 389.267 607.654 419.721 660.607 413.251Z" fill="#F18289"/>
<path d="M661.712 416.45C661.658 416.451 661.604 416.431 661.562 416.396C661.52 416.361 661.491 416.313 661.482 416.259C660.177 411.214 657.265 406.731 653.185 403.485C653.137 403.446 653.106 403.389 653.099 403.328C653.092 403.266 653.11 403.204 653.149 403.155C653.188 403.106 653.245 403.075 653.307 403.068C653.369 403.061 653.431 403.079 653.48 403.118C657.644 406.435 660.614 411.017 661.941 416.171C661.947 416.201 661.947 416.232 661.941 416.263C661.935 416.293 661.922 416.322 661.905 416.348C661.887 416.373 661.865 416.395 661.839 416.412C661.813 416.429 661.784 416.441 661.753 416.446C661.74 416.449 661.726 416.45 661.712 416.45Z" fill="#F49BA1"/>
<path d="M674.82 472.332H649.212L638.418 427.484H685.615L674.82 472.332Z" fill="#F18289"/>
<path d="M661.613 427.484V472.332H674.82L685.614 427.484H661.613Z" fill="#F49BA1"/>
<path d="M691.135 480.815H632.908C632.298 480.816 631.693 480.695 631.128 480.462C630.564 480.229 630.052 479.886 629.62 479.455C629.188 479.023 628.845 478.511 628.612 477.948C628.378 477.384 628.258 476.78 628.258 476.169C628.258 475.559 628.378 474.955 628.612 474.391C628.845 473.827 629.188 473.315 629.62 472.884C630.052 472.452 630.564 472.11 631.128 471.877C631.693 471.643 632.298 471.523 632.908 471.523H691.135C691.745 471.523 692.35 471.643 692.914 471.877C693.478 472.11 693.991 472.452 694.423 472.884C694.855 473.315 695.197 473.828 695.431 474.391C695.665 474.955 695.785 475.559 695.785 476.169C695.785 476.78 695.665 477.384 695.431 477.947C695.197 478.511 694.855 479.023 694.423 479.455C693.991 479.886 693.478 480.229 692.914 480.462C692.35 480.695 691.745 480.816 691.135 480.815Z" fill="#EB505A"/>
<path d="M691.133 471.52H662.02V480.807H691.133C691.743 480.808 692.348 480.688 692.912 480.454C693.476 480.221 693.989 479.878 694.421 479.447C694.853 479.016 695.195 478.503 695.429 477.94C695.663 477.376 695.782 476.772 695.782 476.162C695.781 474.93 695.292 473.749 694.42 472.879C693.548 472.008 692.365 471.519 691.133 471.52Z" fill="#EE6971"/>
<path d="M586.463 234.063H638.414C640.225 234.062 642.015 234.441 643.671 235.176C645.326 235.91 646.808 236.983 648.022 238.326C649.236 239.669 650.155 241.251 650.718 242.971C651.282 244.691 651.478 246.51 651.294 248.31C647.434 286.109 635.948 387.2 622.009 404.158C604.798 425.093 540.45 410.888 540.45 410.888L522.117 397.056L524.363 367.523L558.409 367.896L586.463 234.063Z" fill="#0074A6"/>
<path d="M565.091 206.449C565.091 206.449 553.173 252.833 560.62 267.108C568.067 281.382 585.416 281.38 585.416 281.38C585.416 281.38 605.252 275.724 605.252 275.023C605.252 274.323 595.757 201.719 595.757 201.719L565.091 206.449Z" fill="#231F20"/>
<path d="M574.689 244.675L574.07 257.324C574.071 258.268 574.268 259.201 574.648 260.066C575.029 260.93 575.585 261.706 576.281 262.344C576.977 262.982 577.798 263.469 578.692 263.774C579.586 264.079 580.534 264.195 581.476 264.115C583.207 263.968 584.816 263.167 585.976 261.875C587.137 260.583 587.76 258.898 587.721 257.163L587.395 242.945C587.395 242.945 576.187 246.065 574.689 244.675Z" fill="#F96D7F"/>
<path d="M564.106 209.258C564.106 209.258 558.209 237.291 566.243 246.635C570.851 251.994 575.952 252.896 580.45 252.015C583.932 251.293 587.102 249.503 589.519 246.896C591.936 244.289 593.479 240.994 593.934 237.469L596.522 218.521L564.106 209.258Z" fill="#FA8291"/>
<path d="M587.395 411.633H567.004V462.792H587.395V411.633Z" fill="#2D85AB"/>
<path d="M541.365 462.793H612.1C615.917 462.793 619.578 464.308 622.277 467.005C624.976 469.702 626.492 473.36 626.492 477.174V478.12H526.973V477.174C526.973 473.36 528.489 469.702 531.188 467.005C533.887 464.308 537.548 462.793 541.365 462.793V462.793Z" fill="#1D566C"/>
<path d="M623.241 402.421C623.265 402.38 623.29 402.344 623.315 402.304C623.503 402.005 623.69 401.686 623.876 401.355C623.93 401.256 623.984 401.162 624.038 401.064C624.188 400.792 624.337 400.512 624.485 400.222C624.529 400.136 624.573 400.054 624.618 399.966C624.797 399.61 624.976 399.24 625.154 398.857C625.212 398.733 625.269 398.605 625.327 398.48C625.461 398.187 625.596 397.881 625.727 397.581C625.785 397.448 625.844 397.316 625.902 397.182C626.072 396.778 626.244 396.364 626.416 395.938C626.478 395.783 626.539 395.623 626.601 395.464C626.722 395.155 626.843 394.839 626.965 394.516C627.034 394.333 627.104 394.149 627.173 393.962C627.336 393.52 627.5 393.063 627.661 392.605C627.727 392.417 627.793 392.222 627.861 392.032C627.973 391.705 628.085 391.374 628.197 391.039C628.272 390.813 628.347 390.586 628.422 390.357C628.555 389.949 628.69 389.534 628.823 389.114C639.529 355.139 647.97 280.74 651.228 248.951C651.427 247.185 651.272 245.398 650.773 243.692C650.273 241.987 649.44 240.398 648.321 239.017C647.201 237.637 645.819 236.492 644.253 235.651C642.687 234.809 640.969 234.287 639.199 234.114C635.827 233.839 632.477 234.869 629.843 236.99C627.208 239.111 625.489 242.162 625.04 245.513L609.928 358.977C607.652 376.065 593.957 387.166 576.703 387.166L522.73 388.83L522.105 397.054L537.584 408.726C539.507 410.178 541.738 411.169 544.105 411.622L544.175 411.635H602.92L602.62 413.917C605.39 413.377 608.112 412.614 610.759 411.635H610.78C610.855 411.606 610.929 411.574 611.004 411.544C611.404 411.391 611.798 411.231 612.188 411.065C612.301 411.018 612.417 410.973 612.529 410.924C613.017 410.711 613.494 410.488 613.965 410.258C614.114 410.185 614.259 410.108 614.407 410.033C614.74 409.862 615.07 409.687 615.395 409.507C615.551 409.42 615.707 409.331 615.86 409.243C616.197 409.043 616.526 408.844 616.849 408.644C616.962 408.571 617.077 408.501 617.19 408.428C617.615 408.148 618.029 407.858 618.428 407.557C618.512 407.493 618.591 407.427 618.674 407.358C618.99 407.114 619.297 406.864 619.596 406.608C619.718 406.502 619.836 406.396 619.954 406.289C620.221 406.051 620.477 405.808 620.723 405.56C620.823 405.454 620.935 405.351 621.037 405.245C621.374 404.893 621.702 404.532 622.01 404.158C622.203 403.923 622.396 403.666 622.588 403.4C622.639 403.328 622.688 403.254 622.743 403.18C622.907 402.939 623.073 402.686 623.241 402.421Z" fill="#1A99D1"/>
<path d="M552.226 287.918L546.041 323.988C545.676 326.043 544.703 327.94 543.247 329.436C541.791 330.932 539.919 331.956 537.874 332.377L518.405 335.333L512.527 336.218C510.752 336.482 508.939 336.199 507.33 335.405C504.484 334.007 499.556 332.209 496.169 334.386C494.731 335.294 493.565 336.574 492.795 338.09C492.025 339.606 491.68 341.302 491.795 342.998L553.707 343.226L561.556 291.386L552.226 287.918Z" fill="#FA8291"/>
<path d="M602.611 361.912C602.611 361.912 555.406 366.397 551.663 365.65C547.92 364.903 561.391 293.499 558.398 291.63C555.404 289.762 548.672 289.014 548.672 289.014C548.672 289.014 549.289 260.587 574.304 259.098C574.304 259.098 579.086 269.078 587.722 259.566C587.722 259.566 601.836 262.977 604.029 274.923C606.222 286.869 602.611 361.912 602.611 361.912Z" fill="#E6F4FA"/>
<path d="M553.253 366.063C552.701 366.079 552.148 366.05 551.6 365.976C550.829 365.823 550.108 364.69 551.32 353.131C552.087 345.822 553.435 336.121 554.74 326.738C555.966 317.934 557.122 309.617 557.833 303.139C558.882 293.589 558.453 292.105 558.221 291.911C555.33 290.105 548.703 289.352 548.636 289.344L548.336 289.31L548.342 289.01C548.622 284 549.795 279.081 551.806 274.482C554.836 267.745 561.201 259.55 574.286 258.772L574.509 258.758L574.608 258.958C574.627 258.996 576.496 262.806 579.872 263.295C582.233 263.638 584.794 262.309 587.483 259.347L587.615 259.201L587.807 259.247C587.95 259.282 602.155 262.848 604.361 274.868C606.536 286.714 602.985 361.181 602.949 361.932L602.935 362.218L602.649 362.245C600.872 362.411 562.327 366.063 553.253 366.063ZM549.015 288.722C550.389 288.895 555.886 289.671 558.574 291.351C560.032 292.26 558.657 303.399 555.396 326.829C554.112 336.07 552.782 345.626 552.012 352.884C550.869 363.655 551.438 365.175 551.736 365.328C555.229 366.027 598.345 361.983 602.297 361.61C602.537 356.517 605.795 286.384 603.706 274.983C601.713 264.13 589.497 260.402 587.832 259.936C585.033 262.969 582.321 264.319 579.767 263.946C576.469 263.465 574.561 260.287 574.108 259.442C563.978 260.11 556.678 265.26 552.409 274.75C550.477 279.176 549.329 283.903 549.015 288.722Z" fill="#B1E1F7"/>
<path d="M518.703 459.092C518.703 459.092 518.389 463.648 518.695 473.396C518.777 476.029 518.34 478.121 515.705 478.121H496.148C495.009 478.121 493.918 477.669 493.113 476.865C492.308 476.061 491.855 474.97 491.855 473.833C491.855 472.695 492.308 471.605 493.113 470.8C493.918 469.996 495.009 469.544 496.148 469.544H499.771C501.617 469.545 503.412 468.939 504.881 467.82C506.349 466.701 507.409 465.132 507.897 463.352L509.654 456.93L518.703 459.092Z" fill="#450207"/>
<path d="M490.164 459.237C490.164 459.237 490.437 463.596 490.743 473.344C490.826 475.977 491.287 478.125 488.651 478.125H469.092C467.954 478.125 466.862 477.673 466.057 476.869C465.253 476.064 464.801 474.974 464.801 473.837C464.801 472.699 465.253 471.609 466.057 470.805C466.862 470 467.954 469.548 469.092 469.548H472.716C474.563 469.549 476.357 468.943 477.825 467.824C479.294 466.705 480.353 465.136 480.841 463.356L482.599 456.934L490.164 459.237Z" fill="#450207"/>
<path d="M554.427 358.91L519.844 365.078C516.715 365.496 513.716 366.595 511.058 368.297C508.4 370 506.148 372.264 504.462 374.931C501.663 379.392 499.02 385.966 497.573 395.629C493.535 422.612 480.332 463.971 480.332 463.971H490.255L525.099 387.598L555.359 380.75L554.427 358.91Z" fill="#D4496E"/>
<path d="M598.25 346.215C598.25 346.215 615.941 380.747 584.646 387.304L544.066 390.65C540.78 390.921 537.672 392.257 535.215 394.455C532.758 396.653 531.087 399.593 530.455 402.827L518.516 463.968H507.922L511.176 394.297C511.352 389.544 512.613 384.894 514.862 380.702C517.111 376.51 520.289 372.887 524.152 370.109C527.016 368.06 530.244 366.577 533.665 365.738C548.05 362.339 597.69 360.373 598.25 346.215Z" fill="#CE335C"/>
<path d="M602.973 361.881C602.973 361.881 605.533 314.932 604.253 288.648C599.399 300.276 582.62 291.223 582.62 291.223C579.89 312.517 562.915 320.977 555.374 324.59C553.632 337.13 551.769 350.292 551.189 358.236C551.142 358.873 551.222 359.514 551.424 360.12C551.627 360.726 551.948 361.286 552.369 361.767C552.789 362.248 553.302 362.641 553.876 362.923C554.45 363.204 555.074 363.369 555.713 363.407C559.052 363.607 562.734 363.831 566.599 364.06C571.276 364.339 575.967 364.28 580.635 363.885C592.12 362.91 602.973 361.881 602.973 361.881Z" fill="#CCE8F5"/>
<path d="M587.724 217.435C586.808 217.789 584.999 219.855 584.061 219.716C582.376 219.467 576.113 216.42 572.23 218.008C565.803 220.634 562.25 220.941 562.25 220.941C562.25 220.941 552.827 204.87 567.294 190.681C572.591 185.483 598.978 183.443 606.794 199.143C612.579 210.771 611.675 216.681 611.675 224.864C611.675 233.048 611.475 234.742 615.573 242.954C619.671 251.166 624.162 260.442 620.652 269.376C617.142 278.309 613.861 293.609 609.244 300.115C604.958 306.154 607.481 309.284 603.946 302.811C602.361 299.902 605.246 294.316 604.571 282.924C604.301 278.367 604.517 274.535 600.847 262.037C598.532 254.157 590.116 247.89 592.641 242.498C594.601 238.316 594.087 232.038 593.696 225.963C593.55 223.572 587.724 217.435 587.724 217.435Z" fill="#231F20"/>
<path d="M579.287 404.563C574.542 399.829 570.365 394.558 566.84 388.858C558.719 375.953 554.426 362.111 554.426 348.828H562.374C562.374 377.332 584.512 398.57 584.736 398.781L579.287 404.563Z" fill="#005A7F"/>
<path d="M559.823 415.598H546.12C545.522 415.598 544.929 415.48 544.377 415.251C543.824 415.023 543.321 414.687 542.898 414.264C542.475 413.842 542.139 413.34 541.909 412.787C541.68 412.235 541.563 411.643 541.563 411.045V402.356C541.562 401.758 541.681 401.165 541.909 400.613C542.138 400.06 542.474 399.558 542.897 399.135C543.321 398.712 543.823 398.376 544.376 398.148C544.929 397.919 545.522 397.801 546.12 397.801H615.574C616.782 397.801 617.941 398.281 618.796 399.135C619.651 399.99 620.131 401.148 620.131 402.356V411.045C620.131 412.252 619.651 413.41 618.796 414.264C617.941 415.118 616.782 415.598 615.574 415.598H559.823Z" fill="#B3DDF0"/>
<path d="M560.959 343.223H491.426C488.518 343.223 486.16 345.578 486.16 348.484V349.177C486.16 352.083 488.518 354.438 491.426 354.438H560.959C563.867 354.438 566.225 352.083 566.225 349.177V348.484C566.225 345.578 563.867 343.223 560.959 343.223Z" fill="#CCE8F5"/>
<path d="M113.523 190.192C112.054 190.194 110.611 189.802 109.345 189.058C101.914 184.694 95.029 179.461 88.8374 173.469C79.1013 163.858 73.6641 153.899 72.6776 143.872C72.3264 140.307 72.7064 136.707 73.7947 133.293C74.8831 129.879 76.6569 126.722 79.0074 124.016C81.2052 121.465 83.9071 119.395 86.9439 117.937C89.9806 116.48 93.2864 115.665 96.6533 115.545C103.117 115.302 108.929 119.54 113.515 123.925C117.279 120.23 122.947 115.527 129.472 115.527C136.12 115.535 142.493 118.178 147.193 122.875C151.894 127.573 154.537 133.941 154.544 140.584C154.544 165.463 126.373 183.964 117.74 189.043C116.462 189.795 115.006 190.192 113.523 190.192Z" fill="#EB505A"/>
<path d="M129.475 115.527C122.968 115.527 117.316 120.206 113.551 123.892V190.191C115.025 190.187 116.472 189.79 117.743 189.043C126.376 183.964 154.547 165.463 154.547 140.584C154.54 133.941 151.897 127.573 147.196 122.875C142.496 118.178 136.123 115.535 129.475 115.527Z" fill="#EE6971"/>
<path d="M152.594 151.953H125.808L119.565 135.73C119.413 135.335 119.14 135 118.784 134.773C118.428 134.545 118.008 134.437 117.586 134.465C117.164 134.494 116.763 134.656 116.44 134.929C116.117 135.202 115.89 135.571 115.792 135.981L109.54 162.207L102.828 142.756C102.697 142.375 102.452 142.043 102.127 141.805C101.802 141.566 101.412 141.433 101.009 141.423C100.606 141.413 100.209 141.525 99.8724 141.746C99.5354 141.967 99.2737 142.285 99.1223 142.658L95.4474 151.723L74.3711 151.713C74.8186 153.058 75.3352 154.379 75.9191 155.671L96.7817 155.68C97.1757 155.68 97.5607 155.562 97.8876 155.342C98.2144 155.122 98.4684 154.81 98.6167 154.445L100.807 149.038L108.017 169.93C108.151 170.319 108.403 170.657 108.738 170.897C109.073 171.136 109.475 171.264 109.887 171.264H109.987C110.415 171.243 110.825 171.084 111.155 170.81C111.485 170.536 111.717 170.163 111.816 169.746L118.165 143.113L122.603 154.645C122.746 155.018 123 155.339 123.329 155.565C123.659 155.792 124.05 155.912 124.45 155.912H151.012C151.607 154.62 152.135 153.299 152.594 151.953Z" fill="#FDE8E9"/>
<path d="M45.9655 304.688H159.062C160.086 304.688 161.068 305.094 161.792 305.817C162.516 306.541 162.923 307.522 162.923 308.544V467.399H42.1055V308.544C42.1055 307.522 42.5122 306.541 43.2361 305.817C43.96 305.094 44.9418 304.688 45.9655 304.688V304.688Z" fill="#F49BA1"/>
<path d="M157.547 309.938H47.3594V386.045H157.547V309.938Z" fill="#F7B4B8"/>
<path d="M157.547 429.348H47.3594V462.152H157.547V429.348Z" fill="#F7B4B8"/>
<path d="M157.547 391.293H47.3594V424.097H157.547V391.293Z" fill="#F7B4B8"/>
<path d="M111.728 443.125H93.1816C92.501 443.125 91.9492 443.676 91.9492 444.356V447.143C91.9492 447.823 92.501 448.374 93.1816 448.374H111.728C112.409 448.374 112.961 447.823 112.961 447.143V444.356C112.961 443.676 112.409 443.125 111.728 443.125Z" fill="#FCE6E7"/>
<path d="M111.728 405.07H93.1816C92.501 405.07 91.9492 405.622 91.9492 406.302V409.088C91.9492 409.768 92.501 410.319 93.1816 410.319H111.728C112.409 410.319 112.961 409.768 112.961 409.088V406.302C112.961 405.622 112.409 405.07 111.728 405.07Z" fill="#FCE6E7"/>
<path d="M111.728 345.363H93.1816C92.501 345.363 91.9492 345.915 91.9492 346.595V349.381C91.9492 350.061 92.501 350.612 93.1816 350.612H111.728C112.409 350.612 112.961 350.061 112.961 349.381V346.595C112.961 345.915 112.409 345.363 111.728 345.363Z" fill="#FCE6E7"/>
<path d="M47.3588 458.824H42.1055V480.522H47.3588V458.824Z" fill="#F49BA1"/>
<path d="M162.8 458.824H157.547V480.522H162.8V458.824Z" fill="#F49BA1"/>
<path d="M707.016 478.387H4.98349C2.23118 478.387 0 480.616 0 483.366V484.021C0 486.772 2.23118 489.001 4.98349 489.001H707.016C709.769 489.001 712 486.772 712 484.021V483.366C712 480.616 709.769 478.387 707.016 478.387Z" fill="#EABEC4"/>
<path d="M461.17 400.675C460.22 400.674 459.271 400.625 458.326 400.529C454.641 400.167 451.07 399.048 447.836 397.244C444.603 395.44 441.777 392.988 439.536 390.042L438.092 388.16C436.08 385.524 433.563 383.314 430.688 381.659C427.813 380.003 424.638 378.936 421.346 378.519C418.057 378.084 414.714 378.306 411.511 379.174C408.309 380.042 405.312 381.537 402.694 383.574C399.8 385.829 396.476 387.469 392.925 388.395C389.374 389.32 385.672 389.511 382.045 388.955C378.413 388.426 374.928 387.161 371.804 385.237C368.679 383.314 365.981 380.772 363.875 377.769L356.978 368.016C353.337 362.857 347.884 359.259 341.705 357.938C335.529 356.606 329.077 357.647 323.634 360.855L299.687 374.943C295.57 377.399 290.871 378.711 286.076 378.741C281.281 378.772 276.564 377.52 272.416 375.117C268.238 372.765 264.766 369.339 262.36 365.195C259.954 361.051 258.701 356.339 258.731 351.547V346.467H260.717V351.547C260.689 355.988 261.85 360.356 264.081 364.197C266.311 368.039 269.53 371.214 273.402 373.394C277.246 375.623 281.617 376.783 286.062 376.755C290.507 376.726 294.863 375.51 298.679 373.233L322.627 359.146C328.496 355.684 335.455 354.56 342.117 355.997C348.783 357.422 354.666 361.304 358.596 366.87L365.492 376.624C367.445 379.406 369.946 381.761 372.842 383.543C375.738 385.325 378.968 386.497 382.334 386.987C385.696 387.502 389.127 387.326 392.418 386.468C395.709 385.61 398.79 384.09 401.472 382C404.298 379.803 407.532 378.19 410.988 377.255C414.443 376.32 418.05 376.081 421.599 376.552C425.15 377.002 428.576 378.153 431.678 379.939C434.78 381.725 437.494 384.109 439.665 386.953L441.11 388.836C443.188 391.566 445.807 393.839 448.805 395.511C451.802 397.183 455.112 398.219 458.528 398.554C461.942 398.917 465.394 398.573 468.668 397.542C471.942 396.51 474.967 394.815 477.556 392.562L547.167 332.488L548.466 333.991L478.856 394.065C473.954 398.332 467.671 400.68 461.17 400.675Z" fill="#D80020"/>
<path d="M599.187 293.944L596.832 326.389C596.631 329.512 595.383 332.477 593.288 334.804C591.193 337.131 588.375 338.685 585.287 339.214L556.419 344.164H527.523C527.523 344.164 527.594 336.793 533.333 337.032C539.073 337.271 547.833 340.222 550.105 338.55C551.833 337.278 570.574 331.032 578.619 327.883C579.873 327.391 580.964 326.558 581.769 325.478C582.573 324.397 583.057 323.113 583.167 321.771L582.615 291.223L584.671 292.121C586.856 293.165 589.178 293.892 591.568 294.279C593.648 294.575 595.763 294.539 597.832 294.172L599.187 293.944Z" fill="#FB97A4"/>
<path d="M96.9408 256.763C97.7221 256.392 98.4039 255.84 98.929 255.153C99.4542 254.466 99.8079 253.664 99.9607 252.813C100.114 251.962 100.061 251.087 99.8075 250.26C99.5542 249.434 99.1074 248.679 98.504 248.06C96.6639 246.199 93.3856 244.129 87.6095 242.268C72.2173 237.309 76.0534 244.595 76.0534 244.595C76.0534 244.595 87.7334 260.898 96.9408 256.763Z" fill="#F4D2DB"/>
<path d="M105.707 252.301C105.707 252.301 129.965 251.05 129.904 266.782C129.903 266.877 129.878 266.97 129.832 267.053C129.786 267.136 129.72 267.206 129.64 267.257C129.56 267.308 129.468 267.338 129.373 267.344C129.279 267.351 129.183 267.333 129.097 267.293C125.136 265.396 107.326 256.662 105.707 252.301Z" fill="#F4D2DB"/>
<path d="M109.127 231.452C108.878 229.163 106.483 215.79 84.2837 212.624C84.1741 212.608 84.0624 212.62 83.9587 212.659C83.855 212.698 83.7626 212.763 83.6912 212.847C83.6198 212.932 83.5716 213.034 83.5507 213.142C83.5298 213.251 83.5372 213.363 83.5721 213.468C85.5212 218.805 95.5019 243.591 108.9 232.008C108.98 231.941 109.042 231.855 109.082 231.758C109.121 231.661 109.137 231.556 109.127 231.452Z" fill="#F4D2DB"/>
<path d="M142.035 231.34C137.229 230.965 119.605 230.197 116.543 238.761C117.296 245.782 129.518 248.002 142.469 232.406C142.545 232.316 142.595 232.206 142.614 232.089C142.632 231.972 142.618 231.852 142.574 231.742C142.529 231.633 142.455 231.537 142.361 231.467C142.266 231.396 142.153 231.352 142.035 231.34Z" fill="#F4D2DB"/>
<path d="M133.358 202.563C133.458 205.939 133.424 226.9 116.007 224.816C98.6774 220.054 121.928 200.337 132.885 202.024C133.015 202.044 133.134 202.109 133.22 202.207C133.307 202.306 133.356 202.432 133.358 202.563Z" fill="#F4D2DB"/>
<path d="M126.129 208.727C124.358 210.988 122.726 213.353 121.149 215.748C119.572 218.144 118.067 220.59 116.64 223.078C115.914 224.314 115.241 225.575 114.549 226.836C113.887 228.106 113.211 229.371 112.586 230.66C111.307 233.224 110.113 235.827 109.006 238.47C106.766 243.737 104.915 249.161 103.467 254.699C102.743 257.464 102.158 260.263 101.683 263.077C101.209 265.891 100.847 268.725 100.628 271.566L99.4648 271.477C99.7021 268.595 100.074 265.73 100.58 262.883C101.086 260.036 101.723 257.221 102.488 254.438C104.021 248.878 105.958 243.437 108.285 238.159C109.447 235.524 110.705 232.932 112.042 230.382C112.696 229.101 113.403 227.847 114.094 226.587C114.812 225.341 115.519 224.091 116.27 222.862C119.208 217.917 122.503 213.192 126.129 208.727Z" fill="#80C7E6"/>
<path d="M91.3633 218.113C93.3984 218.766 95.3556 219.641 97.2002 220.72C99.0589 221.78 100.825 222.995 102.481 224.351C102.693 224.513 102.896 224.687 103.095 224.866L103.695 225.398C104.095 225.751 104.504 226.097 104.876 226.484L106.022 227.614C106.392 228.001 106.743 228.407 107.103 228.803C107.844 229.581 108.478 230.448 109.153 231.282C109.501 231.693 109.782 232.152 110.096 232.586L111.016 233.91L110.441 234.271L109.569 232.946C109.269 232.509 109.007 232.047 108.675 231.636C108.031 230.797 107.428 229.923 106.717 229.139C106.371 228.739 106.036 228.328 105.68 227.935L104.58 226.789C104.222 226.399 103.829 226.043 103.44 225.682L102.857 225.141C102.666 224.958 102.468 224.781 102.258 224.614C100.65 223.223 98.9275 221.97 97.1094 220.868C95.3004 219.743 93.3735 218.819 91.3633 218.113Z" fill="#80C7E6"/>
<path d="M105.953 244.23C107.673 242.93 109.517 241.803 111.458 240.865C113.377 239.911 115.37 239.112 117.417 238.476C119.454 237.829 121.542 237.349 123.658 237.043L124.451 236.925L124.851 236.866L125.251 236.832L126.85 236.695C127.381 236.633 127.915 236.642 128.449 236.627L130.048 236.594L128.449 236.667C127.917 236.695 127.385 236.7 126.857 236.774L125.27 236.951L124.87 236.996L124.476 237.064L123.69 237.202C121.595 237.558 119.532 238.086 117.522 238.78C115.513 239.46 113.562 240.305 111.691 241.306C109.817 242.277 108.043 243.43 106.394 244.747L105.953 244.23Z" fill="#80C7E6"/>
<path d="M82.957 244.492L84.4153 245.004L85.1449 245.26L85.8516 245.573L87.2659 246.202L88.63 246.935C88.8558 247.06 89.0879 247.175 89.3098 247.307L89.9652 247.719C90.398 247.999 90.8481 248.256 91.2649 248.557L92.524 249.463C92.9468 249.762 93.3339 250.104 93.7407 250.423C95.343 251.735 96.8435 253.166 98.2301 254.704C99.6268 256.245 100.896 257.897 102.024 259.644L101.436 259.985C100.375 258.242 99.1747 256.588 97.8465 255.038C96.5166 253.48 95.0707 252.024 93.5215 250.682C93.1267 250.356 92.7523 250.004 92.3415 249.696L91.117 248.765C90.7072 248.455 90.2694 248.187 89.8466 247.897L89.2058 247.469C88.9899 247.33 88.762 247.211 88.5411 247.081L87.2039 246.315L85.8125 245.649L85.1127 245.319L84.3923 245.043L82.957 244.492Z" fill="#80C7E6"/>
<path d="M103.234 253.012C105.104 252.743 107 252.709 108.878 252.912C109.343 252.973 109.811 253.012 110.277 253.09L111.659 253.337L113.023 253.672C113.478 253.782 113.923 253.946 114.364 254.081C116.14 254.66 117.841 255.448 119.431 256.428L120.031 256.79C120.131 256.852 120.231 256.909 120.331 256.972L120.612 257.179L121.739 258.003C122.113 258.279 122.471 258.576 122.811 258.892L123.858 259.812L122.785 258.925C122.435 258.619 122.068 258.334 121.685 258.071L120.54 257.284L120.253 257.084C120.153 257.023 120.053 256.97 119.953 256.912L119.353 256.57C117.752 255.647 116.046 254.919 114.272 254.4C113.826 254.28 113.39 254.13 112.938 254.035L111.587 253.749L110.222 253.549C109.766 253.486 109.305 253.463 108.848 253.417C107.024 253.276 105.189 253.362 103.386 253.674L103.234 253.012Z" fill="#80C7E6"/>
<path d="M87.1985 305.175H112.898C113.472 305.174 114.024 304.959 114.445 304.57C114.867 304.181 115.126 303.648 115.172 303.077L117.282 277.387H82.8125L84.9228 303.077C84.9688 303.649 85.2282 304.182 85.6499 304.571C86.0717 304.959 86.6247 305.175 87.1985 305.175Z" fill="#99D2EB"/>
<path d="M78.2947 277.391H121.797C122.388 277.391 122.867 276.912 122.867 276.321V271.619C122.867 271.028 122.388 270.55 121.797 270.55H78.2947C77.7035 270.55 77.2242 271.028 77.2242 271.619V276.321C77.2242 276.912 77.7035 277.391 78.2947 277.391Z" fill="#66BBE0"/>
<path d="M100.048 277.391H82.8125L84.9218 303.081C84.9685 303.652 85.2283 304.185 85.6499 304.574C86.0716 304.962 86.6239 305.178 87.1975 305.179H100.048V277.391Z" fill="#80C7E6"/>
<path d="M100.047 270.547H78.3666C78.0642 270.547 77.7747 270.667 77.5609 270.881C77.3471 271.095 77.2268 271.384 77.2266 271.686V276.247C77.2266 276.55 77.3465 276.84 77.5604 277.053C77.7742 277.267 78.0642 277.387 78.3666 277.387H100.047V270.547Z" fill="#4CB0DB"/>
<path d="M586.432 343.223H516.898C513.99 343.223 511.633 345.578 511.633 348.484V349.177C511.633 352.083 513.99 354.438 516.898 354.438H586.432C589.34 354.438 591.697 352.083 591.697 349.177V348.484C591.697 345.578 589.34 343.223 586.432 343.223Z" fill="white"/>
<path d="M324.66 399.156H224.886C221.987 399.156 219.637 401.505 219.637 404.401V472.695C219.637 475.591 221.987 477.94 224.886 477.94H324.66C327.559 477.94 329.909 475.591 329.909 472.695V404.401C329.909 401.505 327.559 399.156 324.66 399.156Z" fill="#B3DDF0"/>
<path d="M274.774 399.156H225.234C223.749 399.156 222.326 399.745 221.276 400.794C220.226 401.843 219.637 403.266 219.637 404.749V472.348C219.637 473.831 220.226 475.254 221.276 476.303C222.326 477.352 223.749 477.941 225.234 477.941H274.774V399.156Z" fill="#99D2EB"/>
<path d="M324.316 399.156H225.234C223.749 399.156 222.326 399.745 221.276 400.794C220.226 401.843 219.637 403.266 219.637 404.749V409.867H329.909V404.749C329.909 403.266 329.32 401.844 328.271 400.796C327.222 399.747 325.8 399.157 324.316 399.156Z" fill="#58595B"/>
<path d="M246.354 395.516H255.886C256.332 395.516 256.759 395.694 257.074 396.009C257.389 396.324 257.565 396.751 257.565 397.196V399.158H244.672V397.196C244.672 396.751 244.849 396.323 245.165 396.008C245.48 395.693 245.908 395.516 246.354 395.516V395.516Z" fill="#79030B"/>
<path d="M293.159 395.516H302.691C303.137 395.516 303.564 395.694 303.878 396.009C304.193 396.324 304.37 396.751 304.37 397.196V399.158H291.477V397.196C291.477 396.751 291.654 396.323 291.969 396.008C292.285 395.693 292.713 395.516 293.159 395.516V395.516Z" fill="#79030B"/>
<path d="M300.372 395.68H295.481V388.244C295.481 387.556 295.207 386.895 294.72 386.408C294.233 385.921 293.572 385.648 292.882 385.648H256.169C255.48 385.649 254.82 385.923 254.333 386.41C253.846 386.896 253.572 387.556 253.57 388.244V395.635H248.68V388.244C248.68 386.258 249.47 384.352 250.875 382.948C252.281 381.543 254.188 380.754 256.176 380.754H292.889C294.877 380.754 296.785 381.543 298.19 382.948C299.596 384.352 300.386 386.258 300.386 388.244L300.372 395.68Z" fill="#330206"/>
<path d="M274.522 467.954C288.359 467.954 299.575 456.746 299.575 442.92C299.575 429.095 288.359 417.887 274.522 417.887C260.686 417.887 249.469 429.095 249.469 442.92C249.469 456.746 260.686 467.954 274.522 467.954Z" fill="#F8445A"/>
<path d="M274.522 455.246C273.924 455.246 273.35 455.008 272.927 454.586C272.504 454.163 272.266 453.59 272.266 452.992V432.841C272.266 432.243 272.504 431.67 272.927 431.247C273.35 430.824 273.924 430.586 274.522 430.586C274.819 430.586 275.113 430.644 275.387 430.757C275.661 430.87 275.911 431.036 276.121 431.245C276.331 431.455 276.497 431.703 276.611 431.977C276.725 432.251 276.783 432.545 276.783 432.841V452.989C276.784 453.285 276.725 453.579 276.612 453.853C276.498 454.127 276.332 454.376 276.122 454.586C275.912 454.796 275.662 454.962 275.388 455.075C275.114 455.188 274.819 455.246 274.522 455.246Z" fill="white"/>
<path d="M284.67 445.174H264.375C263.776 445.174 263.202 444.937 262.779 444.514C262.356 444.091 262.117 443.517 262.117 442.919C262.117 442.321 262.356 441.747 262.779 441.325C263.202 440.902 263.776 440.664 264.375 440.664H284.67C285.268 440.664 285.842 440.902 286.265 441.325C286.688 441.748 286.926 442.321 286.926 442.919C286.926 443.517 286.688 444.091 286.265 444.513C285.842 444.936 285.268 445.174 284.67 445.174Z" fill="white"/>
<path d="M274.774 399.156H225.234C223.749 399.156 222.326 399.745 221.276 400.794C220.226 401.843 219.637 403.266 219.637 404.749V409.867H274.772L274.774 399.156Z" fill="#404041"/>
<path d="M517.249 354.436H586.089C587.577 354.436 589.005 353.845 590.058 352.793C591.11 351.742 591.701 350.315 591.701 348.828H511.637C511.637 350.315 512.228 351.742 513.28 352.793C514.333 353.845 515.76 354.436 517.249 354.436Z" fill="#E6F4FA"/>
<path d="M154.533 300.116C154.32 300.116 154.108 300.074 153.91 299.992C153.713 299.91 153.534 299.79 153.383 299.639C153.231 299.488 153.111 299.309 153.03 299.111C152.948 298.914 152.906 298.703 152.906 298.489V283.962C152.906 283.531 153.077 283.117 153.383 282.812C153.688 282.507 154.102 282.336 154.533 282.336C154.965 282.336 155.378 282.508 155.683 282.812C155.988 283.117 156.159 283.531 156.159 283.962V298.489C156.16 298.703 156.118 298.914 156.036 299.111C155.954 299.309 155.835 299.488 155.684 299.639C155.533 299.79 155.353 299.91 155.156 299.992C154.959 300.074 154.747 300.116 154.533 300.116Z" fill="#FCE6E7"/>
<path d="M161.852 292.854H147.217C146.785 292.854 146.372 292.683 146.067 292.378C145.761 292.073 145.59 291.66 145.59 291.228C145.59 291.015 145.632 290.803 145.713 290.606C145.795 290.409 145.915 290.229 146.066 290.078C146.217 289.927 146.397 289.807 146.594 289.725C146.792 289.644 147.003 289.602 147.217 289.602H161.851C162.064 289.602 162.276 289.644 162.473 289.725C162.671 289.807 162.85 289.927 163.001 290.078C163.153 290.229 163.273 290.409 163.354 290.606C163.436 290.803 163.478 291.015 163.478 291.228C163.478 291.66 163.306 292.073 163.001 292.378C162.697 292.683 162.283 292.854 161.852 292.854Z" fill="#FCE6E7"/>
<path d="M282.648 346.744H240.586C233.876 346.744 227.245 345.301 221.143 342.512C215.04 339.724 209.61 335.656 205.221 330.585C200.832 325.513 197.587 319.557 195.706 313.121C193.826 306.685 193.353 299.92 194.321 293.286L197.659 270.425C200.433 251.421 200.433 232.115 197.659 213.111L194.321 190.252C193.353 183.617 193.826 176.852 195.706 170.416C197.587 163.98 200.832 158.024 205.221 152.952C209.61 147.881 215.04 143.813 221.143 141.025C227.245 138.236 233.876 136.793 240.586 136.793H282.648C289.358 136.793 295.989 138.237 302.091 141.025C308.193 143.813 313.623 147.881 318.012 152.953C322.401 158.024 325.646 163.98 327.527 170.416C329.408 176.852 329.88 183.617 328.912 190.252L325.574 213.111C322.8 232.115 322.8 251.421 325.574 270.425L328.912 293.286C329.88 299.92 329.407 306.685 327.527 313.121C325.646 319.556 322.401 325.512 318.012 330.584C313.623 335.655 308.193 339.723 302.091 342.512C295.989 345.3 289.358 346.744 282.648 346.744Z" fill="#66BBE0"/>
<path d="M280.031 333.675H243.207C237.332 333.675 231.527 332.411 226.184 329.97C220.841 327.529 216.087 323.967 212.245 319.527C208.402 315.087 205.561 309.872 203.914 304.237C202.268 298.603 201.854 292.68 202.702 286.871L205.624 266.857C208.053 250.219 208.053 233.316 205.624 216.677L202.702 196.664C201.854 190.855 202.268 184.932 203.914 179.297C205.561 173.662 208.402 168.448 212.245 164.008C216.087 159.568 220.841 156.006 226.184 153.565C231.527 151.123 237.332 149.86 243.207 149.859H280.031C285.906 149.859 291.712 151.123 297.055 153.564C302.398 156.005 307.152 159.567 310.994 164.007C314.837 168.448 317.678 173.662 319.324 179.297C320.971 184.932 321.384 190.855 320.536 196.664L317.614 216.677C315.187 233.316 315.187 250.219 317.614 266.857L320.536 286.871C321.384 292.68 320.971 298.603 319.324 304.238C317.678 309.872 314.837 315.087 310.994 319.527C307.152 323.967 302.398 327.529 297.055 329.97C291.712 332.412 285.906 333.675 280.031 333.675Z" fill="#C5E9F9"/>
<path d="M244.57 137.584C244.57 135.347 245.011 133.132 245.868 131.065C246.724 128.999 247.98 127.121 249.563 125.539C251.146 123.958 253.025 122.703 255.093 121.847C257.162 120.991 259.378 120.551 261.617 120.551C263.855 120.551 266.072 120.991 268.14 121.847C270.208 122.703 272.087 123.958 273.67 125.54C275.253 127.121 276.508 128.999 277.365 131.066C278.221 133.132 278.662 135.347 278.662 137.584" fill="#66BBE0"/>
<path d="M261.616 135.658C264.245 135.658 266.377 133.528 266.377 130.901C266.377 128.274 264.245 126.145 261.616 126.145C258.987 126.145 256.855 128.274 256.855 130.901C256.855 133.528 258.987 135.658 261.616 135.658Z" fill="white"/>
<path d="M206.813 227.245C207.928 240.45 207.53 253.739 205.624 266.854L202.702 286.868C201.854 292.676 202.268 298.599 203.914 304.234C205.561 309.869 208.402 315.084 212.244 319.524C216.087 323.964 220.842 327.526 226.184 329.967C231.527 332.408 237.333 333.672 243.207 333.672H280.032C285.906 333.672 291.712 332.408 297.055 329.967C302.397 327.525 307.151 323.964 310.994 319.523C314.837 315.083 317.678 309.869 319.324 304.234C320.971 298.599 321.384 292.676 320.537 286.868L317.615 266.854C315.709 253.739 315.31 240.45 316.426 227.245L315.58 226.806C307.95 222.849 299.427 220.927 290.836 221.226C282.244 221.524 273.876 224.034 266.54 228.511C260.313 232.312 253.328 234.703 246.077 235.516C238.825 236.329 231.484 235.545 224.569 233.218L206.813 227.245Z" fill="#EB505A"/>
<path d="M205.62 266.855L202.698 286.869C201.85 292.677 202.264 298.6 203.91 304.235C205.557 309.87 208.398 315.085 212.241 319.525C216.083 323.965 220.838 327.527 226.18 329.968C231.523 332.409 237.329 333.673 243.203 333.673H280.028C285.902 333.673 291.708 332.409 297.051 329.968C302.393 327.526 307.147 323.965 310.99 319.524C314.833 315.084 317.674 309.87 319.32 304.235C320.967 298.6 321.38 292.677 320.533 286.869L317.611 266.855C317.542 266.379 317.489 265.902 317.424 265.427L307.258 253.503C305.218 251.111 302.657 249.217 299.771 247.967C296.885 246.717 293.751 246.144 290.609 246.292C287.467 246.44 284.401 247.305 281.645 248.821C278.89 250.336 276.518 252.462 274.712 255.035L272.014 258.888C270.437 261.135 268.426 263.045 266.1 264.504C263.774 265.963 261.179 266.943 258.469 267.385C255.758 267.828 252.986 267.724 250.316 267.08C247.646 266.436 245.132 265.265 242.921 263.636L239.324 260.986C236.221 258.699 232.537 257.328 228.693 257.03C224.849 256.731 220.998 257.517 217.578 259.298L205.807 265.427C205.743 265.903 205.694 266.379 205.62 266.855Z" fill="#E61E2B"/>
<path d="M291.676 157.984H231.557C228.404 157.984 225.848 160.538 225.848 163.689V210.159C225.848 213.309 228.404 215.863 231.557 215.863H291.676C294.83 215.863 297.386 213.309 297.386 210.159V163.689C297.386 160.538 294.83 157.984 291.676 157.984Z" fill="#404041"/>
<path d="M286.445 168.934H272.375C271.67 168.934 271.098 169.505 271.098 170.21V184.269C271.098 184.974 271.67 185.545 272.375 185.545H286.445C287.15 185.545 287.722 184.974 287.722 184.269V170.21C287.722 169.505 287.15 168.934 286.445 168.934Z" fill="#ECF8FD"/>
<path d="M263.926 171.305H237.66C236.469 171.305 235.504 172.269 235.504 173.459V173.743C235.504 174.932 236.469 175.897 237.66 175.897H263.926C265.116 175.897 266.081 174.932 266.081 173.743V173.459C266.081 172.269 265.116 171.305 263.926 171.305Z" fill="#ECF8FD"/>
<path d="M263.926 179.352H237.66C236.469 179.352 235.504 180.316 235.504 181.506V181.789C235.504 182.979 236.469 183.944 237.66 183.944H263.926C265.116 183.944 266.081 182.979 266.081 181.789V181.506C266.081 180.316 265.116 179.352 263.926 179.352Z" fill="#ECF8FD"/>
<path d="M285.568 192.273H237.66C236.469 192.273 235.504 193.238 235.504 194.428V194.711C235.504 195.901 236.469 196.865 237.66 196.865H285.568C286.758 196.865 287.724 195.901 287.724 194.711V194.428C287.724 193.238 286.758 192.273 285.568 192.273Z" fill="#ECF8FD"/>
<path d="M285.568 200.32H237.66C236.469 200.32 235.504 201.285 235.504 202.475V202.758C235.504 203.948 236.469 204.912 237.66 204.912H285.568C286.758 204.912 287.724 203.948 287.724 202.758V202.475C287.724 201.285 286.758 200.32 285.568 200.32Z" fill="#ECF8FD"/>
<path d="M52.7498 426.371L43.5547 437.336L57.3885 447.193L64.7159 435.251L52.7498 426.371Z" fill="#CCE8F5"/>
<path d="M152.598 453.065L153.389 467.346L170.23 465.087L167.408 451.371L152.598 453.065Z" fill="#CCE8F5"/>
<path d="M170.734 460.885L189.234 470.127C191.004 471.012 192.959 471.464 194.938 471.444L199.521 471.398C200.528 471.388 201.498 471.775 202.221 472.475C202.944 473.176 203.362 474.134 203.382 475.14L203.414 476.638C203.418 476.891 203.372 477.142 203.278 477.376C203.185 477.611 203.045 477.825 202.867 478.005C202.69 478.185 202.478 478.328 202.244 478.425C202.011 478.522 201.76 478.571 201.507 478.57L153.145 478.253C152.758 478.252 152.38 478.132 152.063 477.908C151.747 477.685 151.507 477.37 151.377 477.005C150.299 473.734 150.455 470.183 151.815 467.018C152.079 466.367 152.555 465.824 153.167 465.477C153.779 465.13 154.49 464.999 155.185 465.106C157.607 465.47 161.35 465.793 163.106 464.696C164.628 463.695 166.065 462.571 167.403 461.336C167.849 460.935 168.405 460.678 168.999 460.597C169.593 460.517 170.198 460.617 170.734 460.885Z" fill="#011A34"/>
<path d="M151.195 476.443C150.326 473.322 150.545 470 151.815 467.02C152.079 466.369 152.555 465.826 153.167 465.479C153.779 465.132 154.49 465.002 155.185 465.108C157.607 465.472 161.35 465.795 163.106 464.698C164.628 463.697 166.065 462.573 167.403 461.337C167.849 460.936 168.406 460.678 169 460.597C169.595 460.517 170.2 460.617 170.737 460.886L188.018 469.52C190.588 470.804 193.427 471.458 196.3 471.43L199.523 471.398C200.531 471.388 201.501 471.775 202.224 472.476C202.947 473.177 203.364 474.134 203.385 475.14L203.413 476.439L151.195 476.443Z" fill="#004159"/>
<path d="M60.6344 444.467L67.809 463.849C68.4952 465.704 69.6132 467.369 71.071 468.706L74.4468 471.802C75.1888 472.483 75.632 473.428 75.68 474.434C75.7281 475.439 75.3772 476.423 74.7035 477.171L73.6981 478.29C73.5286 478.477 73.323 478.629 73.0939 478.736C72.8648 478.844 72.6166 478.904 72.3638 478.914C72.1111 478.924 71.8589 478.884 71.622 478.795C71.3851 478.706 71.1681 478.571 70.9842 478.397L35.912 445.124C35.6304 444.858 35.4372 444.512 35.3591 444.133C35.2809 443.754 35.3216 443.361 35.4752 443.005C36.9277 439.881 39.4734 437.395 42.6327 436.015C43.2713 435.72 43.9903 435.649 44.6742 435.813C45.3581 435.978 45.9667 436.368 46.4009 436.921C47.9201 438.843 50.4308 441.634 52.4608 442.035C54.256 442.343 56.0735 442.505 57.8951 442.517C58.4951 442.529 59.0773 442.721 59.5661 443.069C60.0549 443.417 60.4272 443.904 60.6344 444.467Z" fill="#011A34"/>
<path d="M35.7305 442.471C37.2308 439.601 39.6625 437.326 42.6269 436.018C43.2654 435.724 43.985 435.653 44.6688 435.817C45.3527 435.982 45.9609 436.372 46.395 436.925C47.9142 438.847 50.424 441.638 52.4549 442.039C54.2498 442.347 56.067 442.509 57.8882 442.521C58.4884 442.532 59.0715 442.724 59.5607 443.072C60.0499 443.419 60.4226 443.907 60.63 444.469L67.3327 462.577C68.329 465.27 69.952 467.687 72.0681 469.63L74.4419 471.808C75.1837 472.489 75.6271 473.434 75.6752 474.44C75.7233 475.445 75.3725 476.429 74.6991 477.177L73.8284 478.146L35.7305 442.471Z" fill="#004159"/>
<path d="M120.381 270.234L104.427 343.252C101.097 358.497 94.1669 372.726 84.2164 384.753L47.5938 429.015L63.5301 440.195L114.249 379.798C116.962 376.567 119.143 372.924 120.708 369.007L145.809 306.146L120.381 270.234Z" fill="#190203"/>
<path d="M118.689 278.934C118.689 278.934 111.305 305.828 117.106 317.783C118.866 321.429 120.863 324.956 123.085 328.34C135.921 347.956 143.709 370.435 145.755 393.782L151.213 453.89L169.322 453.752L162.425 292.036L118.689 278.934Z" fill="#190203"/>
<path d="M151.053 454.064L145.577 393.793C143.516 370.48 135.74 348.032 122.936 328.433C120.712 325.041 118.711 321.508 116.946 317.855C113.93 311.64 114.52 301.369 115.547 293.846C116.244 288.804 117.235 283.808 118.517 278.882L118.566 278.707L162.599 291.896L169.508 453.922L151.053 454.064ZM118.815 279.152C118.196 281.496 111.805 306.446 117.268 317.702C119.026 321.34 121.02 324.86 123.237 328.239C136.072 347.886 143.867 370.39 145.933 393.762L151.378 453.708L169.14 453.573L162.259 292.165L118.815 279.152Z" fill="#010038"/>
<path d="M181.312 180.286C181.612 180.087 187.288 169.129 187.288 169.129L199.122 176.713L191.596 188.512L181.312 180.286Z" fill="#F18289"/>
<path d="M201.147 177.677L193.918 175.053L208.124 135.957L227.419 139.793L219.283 169.209C218.002 172.735 215.371 175.608 211.97 177.196C208.569 178.784 204.676 178.957 201.147 177.677Z" fill="#F49BA1"/>
<path d="M213.857 147.304H213.827C213.383 147.285 212.944 147.408 212.575 147.657C212.207 147.905 211.928 148.265 211.779 148.684L207.954 159.446C205.618 163.235 203.046 166.873 200.251 170.337C199.677 171.036 199.143 171.644 198.652 172.171C197.534 173.388 196.111 174.283 194.53 174.765C192.949 175.246 191.268 175.295 189.661 174.908C187.061 174.333 184.686 173.011 182.828 171.105C178.819 166.768 176.331 160.575 175.131 156.496C172.989 147.587 174.308 138.197 178.822 130.222C185.019 119.647 199.057 115.709 211.415 120.967C216.052 122.978 221.201 123.496 226.146 122.448L229.497 121.714C229.884 121.629 230.287 121.645 230.667 121.761C231.046 121.877 231.389 122.089 231.662 122.377C231.936 122.664 232.13 123.017 232.227 123.402C232.323 123.786 232.319 124.189 232.214 124.571L229.034 136.177C228.13 139.47 226.138 142.36 223.383 144.38C220.628 146.399 217.271 147.43 213.857 147.304Z" fill="#000019"/>
<path d="M204.669 154.345C204.894 153.725 205.239 153.156 205.684 152.67C206.13 152.184 206.667 151.79 207.264 151.511C207.862 151.232 208.509 151.073 209.168 151.044C209.827 151.015 210.485 151.116 211.105 151.341L207.676 160.776C207.056 160.551 206.486 160.206 205.999 159.761C205.513 159.316 205.118 158.78 204.839 158.183C204.56 157.585 204.401 156.939 204.372 156.281C204.343 155.622 204.444 154.964 204.669 154.345Z" fill="#F18289"/>
<path d="M169.321 350.797C169.092 351.916 168.62 352.971 167.939 353.887C167.258 354.804 166.384 355.561 165.379 356.104C164.373 356.647 163.261 356.963 162.12 357.031C160.98 357.098 159.838 356.915 158.776 356.495L130.59 347.095L134.733 318.133L122.659 343.525L106.808 339.159C105.08 338.476 103.652 337.2 102.781 335.561C101.909 333.921 101.65 332.025 102.051 330.212C105.476 314.732 134.907 214.424 148.071 201.002C164.685 184.062 181.412 178.754 181.412 178.754L194.974 185.53L169.321 350.797Z" fill="white"/>
<path d="M161.657 357.738C160.589 357.737 159.53 357.536 158.536 357.145L129.826 347.568L133.407 322.539L123.036 344.347L106.555 339.804C104.67 339.067 103.112 337.679 102.162 335.893C101.213 334.107 100.934 332.04 101.378 330.066C103.177 321.954 111.614 292.426 120.754 264.622C129.043 239.404 140.426 207.812 147.578 200.521C154.376 193.574 162.144 187.647 170.64 182.922C174.01 181.002 177.545 179.387 181.203 178.098L181.472 178.012L195.735 185.138L169.997 350.936C169.749 352.154 169.235 353.302 168.494 354.3C167.752 355.298 166.801 356.121 165.706 356.711C164.463 357.385 163.071 357.738 161.657 357.738ZM131.359 346.622L159.03 355.853C159.998 356.238 161.039 356.405 162.079 356.344C163.119 356.282 164.133 355.993 165.049 355.497C165.963 355.004 166.759 354.317 167.379 353.484C167.999 352.651 168.43 351.692 168.639 350.675L194.215 185.926L181.362 179.504C179.181 180.264 163.737 186.021 148.566 201.488C135.748 214.557 106.499 313.326 102.729 330.365C102.359 332.011 102.588 333.735 103.376 335.227C104.164 336.72 105.458 337.883 107.027 338.507L122.283 342.708L136.06 313.732L131.359 346.622Z" fill="#F9CDD0"/>
<path d="M260.108 226.796C258.961 226.798 257.829 226.535 256.8 226.027C255.772 225.52 254.874 224.781 254.179 223.87C252.979 222.3 252.452 220.318 252.714 218.359C252.977 216.401 254.007 214.627 255.578 213.428L268.144 203.834C268.922 203.24 269.809 202.805 270.755 202.554C271.701 202.303 272.688 202.241 273.658 202.371C274.629 202.5 275.564 202.82 276.41 203.311C277.257 203.802 277.999 204.455 278.593 205.232C279.188 206.01 279.623 206.897 279.875 207.842C280.126 208.787 280.188 209.773 280.059 210.743C279.929 211.712 279.609 212.647 279.117 213.493C278.626 214.339 277.972 215.08 277.194 215.674L264.629 225.268C263.331 226.261 261.742 226.798 260.108 226.796Z" fill="#F49BA1"/>
<path d="M217.88 255.003C215.253 255.001 212.636 254.688 210.084 254.069C205.592 252.947 201.383 250.904 197.725 248.07C194.066 245.235 191.038 241.67 188.833 237.602L176.81 215.731C176.272 214.751 175.931 213.674 175.809 212.563C175.687 211.452 175.784 210.327 176.097 209.254C176.41 208.18 176.931 207.179 177.631 206.307C178.331 205.435 179.196 204.709 180.176 204.171C182.156 203.083 184.488 202.825 186.658 203.455C188.827 204.084 190.658 205.549 191.747 207.527L203.966 229.757C205.077 231.785 206.621 233.544 208.487 234.91C210.353 236.276 212.496 237.216 214.766 237.664C217.034 238.117 219.375 238.067 221.622 237.518C223.869 236.968 225.969 235.933 227.772 234.484L259.124 209.345L269.787 222.628L238.435 247.767C232.609 252.45 225.357 255.003 217.88 255.003Z" fill="white"/>
<path d="M217.877 255.654C215.199 255.652 212.531 255.332 209.928 254.701C205.35 253.556 201.06 251.473 197.33 248.584C193.6 245.694 190.512 242.061 188.262 237.916L176.238 216.044C175.07 213.913 174.796 211.406 175.475 209.074C176.154 206.741 177.732 204.772 179.861 203.6C181.994 202.433 184.503 202.159 186.837 202.838C189.172 203.517 191.142 205.093 192.315 207.222L204.533 229.453C205.599 231.397 207.079 233.083 208.868 234.393C210.658 235.704 212.713 236.606 214.889 237.036C217.065 237.47 219.309 237.422 221.464 236.895C223.619 236.368 225.632 235.374 227.361 233.985L259.221 208.438L270.7 222.732L238.84 248.279C232.891 253.04 225.499 255.641 217.877 255.654ZM184.263 203.767C182.942 203.767 181.644 204.1 180.488 204.737C178.66 205.743 177.307 207.432 176.724 209.433C176.141 211.435 176.376 213.585 177.378 215.414L189.403 237.291C191.566 241.278 194.535 244.772 198.121 247.552C201.708 250.331 205.833 252.336 210.236 253.437C212.738 254.044 215.304 254.352 217.878 254.353C225.204 254.34 232.308 251.84 238.025 247.263L268.871 222.531L259.02 210.266L228.175 234.997C226.299 236.506 224.113 237.584 221.774 238.156C219.434 238.728 216.998 238.78 214.636 238.308C212.274 237.842 210.042 236.863 208.099 235.441C206.156 234.018 204.55 232.187 203.393 230.077L191.175 207.847C190.495 206.61 189.494 205.579 188.278 204.861C187.062 204.144 185.675 203.766 184.263 203.767Z" fill="#F9CDD0"/>
<path d="M381.519 179.204C381.091 179.203 380.664 179.155 380.247 179.058C355.967 173.465 333.723 161.236 316 143.737L302.231 130.147C301.704 129.627 301.285 129.008 300.997 128.326C300.709 127.645 300.559 126.913 300.555 126.173C300.55 125.433 300.691 124.7 300.971 124.014C301.25 123.329 301.661 122.705 302.182 122.179C302.702 121.653 303.321 121.234 304.003 120.946C304.686 120.659 305.418 120.509 306.158 120.504C306.898 120.499 307.633 120.641 308.318 120.92C309.004 121.199 309.628 121.61 310.155 122.13L323.925 135.719C340.161 151.749 360.538 162.953 382.78 168.077C383.502 168.244 384.184 168.55 384.787 168.98C385.39 169.41 385.902 169.954 386.294 170.581C386.687 171.209 386.952 171.907 387.074 172.637C387.196 173.367 387.173 174.114 387.007 174.835C386.721 176.075 386.023 177.183 385.026 177.976C384.029 178.77 382.793 179.202 381.519 179.204Z" fill="#68030A"/>
<path d="M447.175 280.663L438.115 248.856C435.293 238.938 430.782 229.58 424.779 221.192L407.629 197.2L411.555 183.227L434.791 214.047C441.613 223.582 446.739 234.22 449.945 245.495L459.007 277.301L447.175 280.663Z" fill="#68030A"/>
<path d="M448.165 284.23L446.188 277.288L458.019 273.922L459.996 280.862C460.442 282.429 460.246 284.109 459.453 285.532C458.659 286.955 457.333 288.006 455.765 288.452C454.196 288.899 452.515 288.705 451.09 287.913C449.665 287.121 448.612 285.796 448.165 284.23Z" fill="#EE6971"/>
<path d="M387.473 146.277C387.473 146.277 390.861 159.018 385.184 165.825L400.295 165.026L398.827 146.277H387.473Z" fill="#EB505A"/>
<path d="M380.647 111.434L376.981 123.098C374.951 129.348 375.091 136.1 377.381 142.259L377.464 142.473C378.016 143.832 378.922 145.018 380.088 145.909C381.254 146.8 382.637 147.362 384.094 147.539L402.185 149.863L408.054 116.525L380.647 111.434Z" fill="#EE6971"/>
<path d="M393.959 342.09L403.768 459.246C403.995 460.487 403.855 461.767 403.366 462.93C402.877 464.093 402.059 465.089 401.014 465.796L387.661 474.822C387.316 475.056 387.054 475.394 386.916 475.787C386.777 476.18 386.768 476.607 386.89 477.005C387.012 477.404 387.259 477.753 387.595 478.001C387.93 478.248 388.336 478.382 388.753 478.383H413.798C414.729 478.385 415.645 478.154 416.464 477.713C417.282 477.271 417.978 476.632 418.487 475.854C418.995 475.075 419.301 474.182 419.377 473.256C419.452 472.329 419.295 471.398 418.92 470.548C417.628 467.953 415.703 465.726 413.322 464.071C413.322 464.071 417.083 372.59 409.352 342.091C401.621 311.591 393.959 342.09 393.959 342.09Z" fill="#EE6971"/>
<path d="M413.317 464.068L413.278 463.684L411.927 468.732C411.665 469.71 411.088 470.575 410.286 471.193C409.483 471.811 408.499 472.147 407.486 472.151L392.481 472.199C391.863 472.199 391.26 472.384 390.748 472.73L386.034 475.917C385.795 476.078 385.614 476.312 385.518 476.584C385.422 476.856 385.416 477.151 385.5 477.427C385.585 477.702 385.756 477.943 385.987 478.115C386.219 478.286 386.5 478.379 386.788 478.379H416.574C417.277 478.385 417.962 478.148 418.512 477.709C419.061 477.27 419.443 476.656 419.593 475.969C420.131 473.355 419.691 468.903 413.317 464.068Z" fill="#00384C"/>
<path d="M304.494 131.916C304.095 131.916 303.712 131.762 303.426 131.484L293.224 121.641C292.931 121.358 292.761 120.97 292.754 120.563C292.747 120.155 292.902 119.761 293.185 119.468C293.468 119.175 293.856 119.007 294.264 119C294.672 118.993 295.066 119.148 295.359 119.431L305.562 129.274C305.855 129.558 306.024 129.946 306.031 130.353C306.038 130.761 305.882 131.154 305.599 131.447C305.456 131.596 305.284 131.714 305.094 131.794C304.904 131.875 304.7 131.916 304.494 131.916Z" fill="#EE6971"/>
<path d="M305.483 131.124C305.084 131.124 304.701 130.969 304.414 130.691L294.212 120.848C294.067 120.708 293.951 120.541 293.87 120.356C293.79 120.171 293.746 119.972 293.742 119.77C293.739 119.568 293.775 119.368 293.849 119.18C293.923 118.992 294.033 118.821 294.173 118.676C294.457 118.383 294.845 118.214 295.252 118.207C295.66 118.2 296.054 118.355 296.348 118.638L306.549 128.482C306.695 128.622 306.811 128.79 306.892 128.975C306.972 129.16 307.015 129.359 307.019 129.561C307.022 129.763 306.986 129.963 306.912 130.151C306.838 130.339 306.727 130.51 306.587 130.655C306.444 130.803 306.273 130.921 306.083 131.002C305.893 131.082 305.689 131.124 305.483 131.124Z" fill="#EE6971"/>
<path d="M306.814 130.058C306.415 130.058 306.032 129.903 305.745 129.626L295.543 119.781C295.25 119.498 295.082 119.11 295.074 118.703C295.067 118.295 295.222 117.902 295.505 117.609C295.789 117.316 296.177 117.148 296.584 117.141C296.992 117.134 297.386 117.288 297.68 117.571L307.882 127.416C308.175 127.699 308.344 128.087 308.351 128.494C308.358 128.902 308.203 129.295 307.92 129.588C307.777 129.737 307.605 129.855 307.415 129.936C307.225 130.016 307.02 130.058 306.814 130.058Z" fill="#EE6971"/>
<path d="M409.176 342.09L424.192 459.247C424.419 460.488 424.279 461.768 423.789 462.931C423.3 464.094 422.483 465.089 421.438 465.796L408.083 474.822C407.738 475.056 407.477 475.394 407.338 475.787C407.199 476.18 407.19 476.607 407.312 477.006C407.434 477.404 407.681 477.753 408.016 478.001C408.351 478.249 408.758 478.382 409.175 478.383H434.219C435.15 478.385 436.065 478.154 436.884 477.713C437.703 477.271 438.398 476.632 438.906 475.853C439.415 475.075 439.721 474.182 439.797 473.255C439.872 472.329 439.714 471.398 439.338 470.548C438.047 467.953 436.122 465.726 433.741 464.071L431.981 342.091L409.176 342.09Z" fill="#EE6971"/>
<path d="M433.743 464.072L433.704 463.688L432.353 468.736C432.092 469.714 431.515 470.579 430.712 471.197C429.909 471.815 428.925 472.151 427.912 472.154L412.906 472.203C412.289 472.204 411.685 472.388 411.173 472.734L406.46 475.921C406.221 476.082 406.04 476.316 405.944 476.588C405.848 476.86 405.842 477.155 405.926 477.431C406.011 477.706 406.182 477.947 406.413 478.119C406.645 478.29 406.926 478.383 407.214 478.383H436.999C437.703 478.389 438.387 478.153 438.937 477.714C439.487 477.275 439.869 476.66 440.019 475.972C440.555 473.359 440.117 468.907 433.743 464.072Z" fill="#00384C"/>
<path d="M415.842 239.195L427.253 257.286C433.006 265.022 433.985 275.825 435.192 285.386L437.869 416.659H389.259L378.564 280.671C377.333 266.79 378.238 252.803 381.248 239.195H415.845H415.842Z" fill="#450207"/>
<path d="M377.956 166.489L370.178 194.439C368.315 201.129 368.503 208.223 370.715 214.806L380.094 242.711H417.275L416.848 204.66C417.537 200.41 417.339 196.063 416.268 191.892C415.197 187.722 413.275 183.817 410.623 180.424L401.948 163.867H381.416C380.632 163.866 379.869 164.122 379.244 164.596C378.619 165.069 378.167 165.734 377.956 166.489Z" fill="#68030A"/>
<path d="M314.607 126.525L310.151 122.13C309.624 121.61 309.001 121.199 308.315 120.92C307.629 120.641 306.895 120.499 306.155 120.504C305.414 120.509 304.682 120.659 304 120.946C303.318 121.234 302.699 121.653 302.178 122.179C301.658 122.705 301.246 123.329 300.967 124.014C300.688 124.7 300.546 125.433 300.551 126.173C300.555 126.913 300.706 127.645 300.994 128.326C301.281 129.008 301.7 129.627 302.227 130.147L306.632 134.494L314.607 126.525Z" fill="#EE6971"/>
<path d="M404.657 155.452C404.657 155.452 379.477 114.399 379.63 107.093C379.783 99.7863 407.063 83.7522 419.098 100.588C431.134 117.424 434.611 155.003 404.657 155.452Z" fill="#010D19"/>
<path d="M411.288 168.944C419.307 168.944 425.807 162.449 425.807 154.437C425.807 146.425 419.307 139.93 411.288 139.93C403.27 139.93 396.77 146.425 396.77 154.437C396.77 162.449 403.27 168.944 411.288 168.944Z" fill="#010D19"/>
<path d="M305.697 112.694C310.321 112.694 314.863 111.478 318.867 109.168C322.871 106.858 326.195 103.536 328.507 99.535C330.819 95.5342 332.035 90.9959 332.035 86.3762C332.035 81.7565 330.819 77.2182 328.507 73.2174L312.067 44.7644C311.421 43.6472 310.493 42.7194 309.375 42.0744C308.257 41.4294 306.988 41.0898 305.697 41.0898C304.406 41.0898 303.138 41.4294 302.02 42.0744C300.902 42.7194 299.973 43.6472 299.328 44.7644L282.889 73.2174C280.577 77.218 279.36 81.7563 279.359 86.3761C279.359 90.9958 280.576 95.5341 282.888 99.535C285.199 103.536 288.524 106.858 292.528 109.168C296.532 111.478 301.074 112.694 305.697 112.694Z" fill="#EB505A"/>
<path d="M312.07 44.7633L328.51 73.2163C330.822 77.2171 332.038 81.7555 332.038 86.3753C332.038 90.9951 330.821 95.5334 328.509 99.5342C326.198 103.535 322.873 106.857 318.869 109.167C314.865 111.477 310.323 112.693 305.699 112.693V41.086C306.992 41.0792 308.264 41.4161 309.383 42.0623C310.503 42.7085 311.43 43.6407 312.07 44.7633Z" fill="#E93742"/>
<path d="M310.543 106.004C311.385 105.959 312.22 105.826 313.034 105.604C313.857 105.395 314.663 105.123 315.445 104.791C317.034 104.12 318.524 103.238 319.877 102.17C322.653 99.9701 324.792 97.071 326.074 93.7707C326.691 92.1266 327.119 90.4178 327.351 88.6772L327.464 87.379C327.479 87.1633 327.505 86.9475 327.512 86.7318V86.0847V84.7953L327.407 83.517C327.101 80.1567 326.105 76.8956 324.481 73.9375C324.467 77.2772 324.51 80.459 324.212 83.537C324.081 85.0512 323.861 86.5565 323.554 88.0451C323.362 88.7692 323.235 89.5052 322.992 90.2063C322.808 90.9243 322.541 91.6125 322.293 92.3036C321.214 95.0667 319.66 97.6203 317.702 99.8497C315.606 102.216 313.198 104.286 310.543 106.004Z" fill="#F9CDD0"/>
<path d="M477.594 399.104C480.938 399.104 483.649 396.395 483.649 393.054C483.649 389.713 480.938 387.004 477.594 387.004C474.25 387.004 471.539 389.713 471.539 393.054C471.539 396.395 474.25 399.104 477.594 399.104Z" fill="#D80020"/>
<path d="M460.233 403.815C462.483 403.815 464.306 401.993 464.306 399.745C464.306 397.498 462.483 395.676 460.233 395.676C457.984 395.676 456.16 397.498 456.16 399.745C456.16 401.993 457.984 403.815 460.233 403.815Z" fill="#D80020"/>
<path d="M551.765 334.817L548.099 336.981L543.867 332.282L547.087 329.508L551.765 334.817Z" fill="#D8F0FB"/>
<path d="M548.068 337.19L543.633 332.265L547.104 329.273L552.024 334.855L548.068 337.19ZM544.105 332.297L548.132 336.769L551.509 334.771L547.072 329.736L544.105 332.297Z" fill="#ECF8FD"/>
</svg>
