<svg width="496" height="338" viewBox="0 0 496 338" fill="none" xmlns="http://www.w3.org/2000/svg">
<path d="M446.3 312.834H413.445V313.082H446.3V312.834Z" fill="#EBEBEB"/>
<path d="M328.574 315.535H319.953V315.783H328.574V315.535Z" fill="#EBEBEB"/>
<path d="M412.454 303.631H393.418V303.879H412.454V303.631Z" fill="#EBEBEB"/>
<path d="M94.8875 305.299H52.043V305.547H94.8875V305.299Z" fill="#EBEBEB"/>
<path d="M110.006 305.299H103.727V305.547H110.006V305.299Z" fill="#EBEBEB"/>
<path d="M223.349 309.484H130.418V309.732H223.349V309.484Z" fill="#EBEBEB"/>
<path d="M496 296.877H0V297.125H496V296.877Z" fill="#EBEBEB"/>
<path d="M214.856 22.0215H213.07V161.269H214.856V22.0215Z" fill="#E0E0E0"/>
<path d="M326.012 22.0215H324.227V161.269H326.012V22.0215Z" fill="#E0E0E0"/>
<path d="M333.003 30.7789H206.077L203.398 24.5293H335.682L333.003 30.7789Z" fill="#EBEBEB"/>
<path d="M333.003 39.3629H206.077L203.398 33.1133H335.682L333.003 39.3629Z" fill="#EBEBEB"/>
<path d="M333.003 47.9449H206.077L203.398 41.6953H335.682L333.003 47.9449Z" fill="#EBEBEB"/>
<path d="M333.003 56.523H206.077L203.398 50.2734H335.682L333.003 56.523Z" fill="#EBEBEB"/>
<path d="M333.003 65.1051H206.077L203.398 58.8555H335.682L333.003 65.1051Z" fill="#EBEBEB"/>
<path d="M333.003 73.6832H206.077L203.398 67.4336H335.682L333.003 73.6832Z" fill="#EBEBEB"/>
<path d="M333.003 82.2652H206.077L203.398 76.0156H335.682L333.003 82.2652Z" fill="#EBEBEB"/>
<path d="M333.003 90.8473H206.077L203.398 84.5977H335.682L333.003 90.8473Z" fill="#EBEBEB"/>
<path d="M333.003 99.4155H206.077L203.398 93.1758H335.682L333.003 99.4155Z" fill="#EBEBEB"/>
<path d="M333.003 107.998H206.077L203.398 101.748H335.682L333.003 107.998Z" fill="#EBEBEB"/>
<path d="M333.003 116.582H206.077L203.398 110.332H335.682L333.003 116.582Z" fill="#EBEBEB"/>
<path d="M333.003 125.16H206.077L203.398 118.91H335.682L333.003 125.16Z" fill="#EBEBEB"/>
<path d="M333.003 133.74H206.077L203.398 127.49H335.682L333.003 133.74Z" fill="#EBEBEB"/>
<path d="M333.003 142.324H206.077L203.398 136.074H335.682L333.003 142.324Z" fill="#EBEBEB"/>
<path d="M333.003 150.902H206.077L203.398 144.652H335.682L333.003 150.902Z" fill="#EBEBEB"/>
<path d="M333.003 159.484H206.077L203.398 153.234H335.682L333.003 159.484Z" fill="#EBEBEB"/>
<path d="M335.682 159.484H203.398V163.056H335.682V159.484Z" fill="#E0E0E0"/>
<path d="M340.294 16.7051H198.785V25.0379H340.294V16.7051Z" fill="#E0E0E0"/>
<path d="M200.235 100.586C199.854 100.586 199.488 100.435 199.218 100.165C198.948 99.8953 198.797 99.5295 198.797 99.148V50.54C198.797 50.1585 198.948 49.7926 199.218 49.5229C199.488 49.2531 199.854 49.1016 200.235 49.1016C200.617 49.1016 200.983 49.2531 201.252 49.5229C201.522 49.7926 201.674 50.1585 201.674 50.54V99.148C201.674 99.5295 201.522 99.8953 201.252 100.165C200.983 100.435 200.617 100.586 200.235 100.586Z" fill="#E0E0E0"/>
<path d="M200.76 23.3691H199.719V52.2363H200.76V23.3691Z" fill="#E0E0E0"/>
<path d="M393.728 175.801H390.752V140.188C390.801 136.38 389.388 132.698 386.805 129.901C384.221 127.103 380.663 125.403 376.864 125.149C372.986 124.955 369.189 126.309 366.31 128.913C363.43 131.518 361.703 135.159 361.508 139.037C361.502 139.224 361.425 139.402 361.292 139.533C361.159 139.664 360.98 139.739 360.793 139.741H359.256C359.159 139.741 359.063 139.722 358.974 139.684C358.885 139.647 358.804 139.592 358.736 139.522C358.669 139.453 358.616 139.371 358.581 139.281C358.546 139.19 358.529 139.094 358.532 138.997C358.725 134.514 360.622 130.272 363.835 127.139C367.048 124.005 371.335 122.215 375.822 122.133C385.673 121.965 393.678 130.357 393.678 140.208L393.728 175.801Z" fill="#F0F0F0"/>
<path d="M429.915 179.691H408.766V296.837H429.915V179.691Z" fill="#E6E6E6"/>
<path d="M414.535 179.691H185.383V296.837H414.535V179.691Z" fill="#F5F5F5"/>
<path d="M414.535 204.082H185.383V206.066H241.679V296.834H243.663V206.066H298.431V296.834H300.415V206.066H355.174V296.834H357.158V206.066H414.535V204.082Z" fill="#E0E0E0"/>
<path d="M235.976 256.162C235.45 256.162 234.945 255.953 234.573 255.581C234.201 255.208 233.992 254.704 233.992 254.178V245.25C233.992 244.723 234.201 244.219 234.573 243.847C234.945 243.475 235.45 243.266 235.976 243.266C236.502 243.266 237.007 243.475 237.379 243.847C237.751 244.219 237.96 244.723 237.96 245.25V254.178C237.96 254.704 237.751 255.208 237.379 255.581C237.007 255.953 236.502 256.162 235.976 256.162Z" fill="#E6E6E6"/>
<path d="M249.371 256.162C248.845 256.162 248.34 255.953 247.968 255.581C247.596 255.208 247.387 254.704 247.387 254.178V245.25C247.387 244.723 247.596 244.219 247.968 243.847C248.34 243.475 248.845 243.266 249.371 243.266C249.897 243.266 250.402 243.475 250.774 243.847C251.146 244.219 251.355 244.723 251.355 245.25V254.178C251.355 254.704 251.146 255.208 250.774 255.581C250.402 255.953 249.897 256.162 249.371 256.162Z" fill="#E6E6E6"/>
<path d="M349.472 256.162C348.946 256.162 348.441 255.953 348.069 255.581C347.697 255.208 347.488 254.704 347.488 254.178V245.25C347.488 244.723 347.697 244.219 348.069 243.847C348.441 243.475 348.946 243.266 349.472 243.266C349.998 243.266 350.503 243.475 350.875 243.847C351.247 244.219 351.456 244.723 351.456 245.25V254.178C351.456 254.704 351.247 255.208 350.875 255.581C350.503 255.953 349.998 256.162 349.472 256.162Z" fill="#E6E6E6"/>
<path d="M362.863 256.162C362.337 256.162 361.832 255.953 361.46 255.581C361.088 255.208 360.879 254.704 360.879 254.178V245.25C360.879 244.723 361.088 244.219 361.46 243.847C361.832 243.475 362.337 243.266 362.863 243.266C363.389 243.266 363.894 243.475 364.266 243.847C364.638 244.219 364.847 244.723 364.847 245.25V254.178C364.847 254.704 364.638 255.208 364.266 255.581C363.894 255.953 363.389 256.162 362.863 256.162Z" fill="#E6E6E6"/>
<path d="M434.874 177.119H408.586V182.248H434.874V177.119Z" fill="#E0E0E0"/>
<path d="M416.518 177.119H180.422V182.248H416.518V177.119Z" fill="#EBEBEB"/>
<path d="M421.085 177.706H342.826C342.321 177.706 341.837 177.505 341.48 177.148C341.123 176.791 340.922 176.306 340.922 175.801C340.922 175.296 341.123 174.812 341.48 174.454C341.837 174.097 342.321 173.896 342.826 173.896H421.085C421.591 173.896 422.075 174.097 422.432 174.454C422.789 174.812 422.99 175.296 422.99 175.801C422.99 176.306 422.789 176.791 422.432 177.148C422.075 177.505 421.591 177.706 421.085 177.706Z" fill="#E6E6E6"/>
<path d="M401.204 170.693H398.238V174.463H401.204V170.693Z" fill="#E0E0E0"/>
<path d="M402.486 171.634H396.961L398.042 165.037H401.405L402.486 171.634Z" fill="#F0F0F0"/>
<path d="M386.204 170.693H383.238V174.463H386.204V170.693Z" fill="#E0E0E0"/>
<path d="M387.473 171.634H381.957L383.028 165.037H386.401L387.473 171.634Z" fill="#F0F0F0"/>
<path d="M169.783 43.2715H95.125V110.132H169.783V43.2715Z" fill="#F5F5F5"/>
<path d="M169.793 45.4144H95.125C94.8441 45.4144 94.5659 45.3589 94.3065 45.2511C94.0471 45.1433 93.8116 44.9853 93.6134 44.7862C93.4152 44.5871 93.2583 44.3508 93.1517 44.0909C93.0451 43.831 92.9909 43.5525 92.9922 43.2716C92.9922 42.7051 93.2166 42.1615 93.6163 41.76C94.016 41.3584 94.5584 41.1315 95.125 41.1289H169.793C170.359 41.1315 170.902 41.3584 171.302 41.76C171.701 42.1615 171.926 42.7051 171.926 43.2716C171.927 43.5525 171.873 43.831 171.766 44.0909C171.66 44.3508 171.503 44.5871 171.304 44.7862C171.106 44.9853 170.871 45.1433 170.611 45.2511C170.352 45.3589 170.074 45.4144 169.793 45.4144Z" fill="#EBEBEB"/>
<path d="M169.793 112.274H95.125C94.5584 112.271 94.016 112.044 93.6163 111.642C93.2166 111.241 92.9922 110.697 92.9922 110.131C92.9948 109.566 93.2203 109.025 93.6198 108.626C94.0192 108.226 94.5601 108.001 95.125 107.998H169.793C170.359 108.001 170.902 108.228 171.302 108.629C171.701 109.031 171.926 109.574 171.926 110.141C171.923 110.706 171.697 111.247 171.298 111.646C170.899 112.045 170.358 112.271 169.793 112.274Z" fill="#EBEBEB"/>
<path d="M147.599 226.65H105.688V233.098H147.599V226.65Z" fill="#E0E0E0"/>
<path d="M106.448 230.371H145.582C146.442 230.371 147.267 230.713 147.876 231.321C148.484 231.93 148.826 232.755 148.826 233.615V296.835H103.164V233.615C103.164 233.186 103.249 232.761 103.415 232.365C103.58 231.968 103.823 231.609 104.128 231.307C104.434 231.006 104.796 230.767 105.194 230.607C105.592 230.446 106.018 230.366 106.448 230.371Z" fill="#F0F0F0"/>
<path d="M145.258 218.717H106.788C104.81 218.717 103.207 220.32 103.207 222.298V225.056C103.207 227.033 104.81 228.637 106.788 228.637H145.258C147.236 228.637 148.839 227.033 148.839 225.056V222.298C148.839 220.32 147.236 218.717 145.258 218.717Z" fill="#F0F0F0"/>
<path d="M116.601 296.837H95.2734V293.861L116.601 291.877V296.837Z" fill="#E0E0E0"/>
<path d="M243.222 337.853C349.447 337.853 435.561 332.826 435.561 326.624C435.561 320.422 349.447 315.395 243.222 315.395C136.996 315.395 50.8828 320.422 50.8828 326.624C50.8828 332.826 136.996 337.853 243.222 337.853Z" fill="#F5F5F5"/>
<path d="M252.797 237.724C252.797 237.724 252.797 259.855 271.863 270.46C290.929 281.064 353.108 235.899 352.007 237.724C350.906 239.549 252.797 237.724 252.797 237.724Z" fill="#263238"/>
<path opacity="0.2" d="M252.797 237.724C252.797 237.724 252.797 259.855 271.863 270.46C290.929 281.064 353.108 235.899 352.007 237.724C350.906 239.549 252.797 237.724 252.797 237.724Z" fill="white"/>
<path d="M272.463 142.265C256.978 142.771 240.293 143.257 224.847 143.773C221.544 139.616 219.864 134.401 220.119 129.098C220.375 123.795 222.548 118.765 226.236 114.946C227.84 113.299 229.755 111.987 231.871 111.087C239.658 107.674 249.994 109.242 257.216 113.973C264.904 119.023 269.676 127.861 271.64 136.998C272.015 138.736 272.29 140.495 272.463 142.265Z" fill="#407BFF"/>
<path opacity="0.5" d="M272.463 142.265C256.978 142.771 240.293 143.257 224.847 143.773C221.544 139.616 219.864 134.401 220.119 129.098C220.375 123.795 222.548 118.765 226.236 114.946C227.84 113.299 229.755 111.987 231.871 111.087C239.658 107.674 249.994 109.242 257.216 113.973C264.904 119.023 269.676 127.861 271.64 136.998C272.015 138.736 272.29 140.495 272.463 142.265Z" fill="white"/>
<path opacity="0.5" d="M271.64 136.988L231.881 138.248C228.809 134.386 227.137 129.597 227.137 124.662C227.137 119.728 228.809 114.939 231.881 111.077C239.668 107.664 250.005 109.232 257.226 113.964C264.865 119.013 269.676 127.842 271.64 136.988Z" fill="white"/>
<path d="M369.157 232.227C369.155 235.091 368.015 237.836 365.99 239.86C363.964 241.883 361.218 243.02 358.354 243.02H263.589L214.425 151.647C213.549 150.037 213.088 148.233 213.086 146.399C213.094 145.452 213.218 144.51 213.453 143.592C213.979 141.575 215.063 139.748 216.581 138.32C218.099 136.891 219.989 135.92 222.034 135.517C222.745 135.369 223.47 135.295 224.196 135.299H272.804C276.482 135.302 280.081 136.365 283.17 138.36C286.259 140.355 288.708 143.198 290.224 146.548L305.104 179.512L325.311 219.926C325.311 219.926 348.256 220.7 358.91 219.926C369.564 219.153 369.157 232.227 369.157 232.227Z" fill="#407BFF"/>
<path opacity="0.5" d="M369.157 232.227C369.155 235.091 368.015 237.836 365.99 239.86C363.964 241.883 361.218 243.02 358.354 243.02H263.589L214.425 151.647C213.549 150.037 213.088 148.233 213.086 146.399C213.094 145.452 213.218 144.51 213.453 143.592C213.979 141.575 215.063 139.748 216.581 138.32C218.099 136.891 219.989 135.92 222.034 135.517C222.745 135.369 223.47 135.295 224.196 135.299H272.804C276.482 135.302 280.081 136.365 283.17 138.36C286.259 140.355 288.708 143.198 290.224 146.548L305.104 179.512L325.311 219.926C325.311 219.926 348.256 220.7 358.91 219.926C369.564 219.153 369.157 232.227 369.157 232.227Z" fill="white"/>
<path opacity="0.5" d="M315.54 232.232C315.54 235.094 314.403 237.839 312.379 239.863C310.354 241.887 307.609 243.025 304.747 243.025H263.589L214.425 151.651C213.549 150.041 213.088 148.237 213.086 146.404C213.094 145.457 213.218 144.514 213.453 143.596C213.979 141.58 215.063 139.752 216.581 138.324C218.099 136.895 219.989 135.924 222.034 135.521C225.187 135.999 228.171 137.259 230.713 139.186C233.255 141.113 235.274 143.645 236.586 146.553L251.466 179.517L271.673 219.931C271.673 219.931 294.609 220.705 305.263 219.931C315.917 219.157 315.54 232.232 315.54 232.232Z" fill="white"/>
<path d="M382.048 243.906H263.186C261.612 243.906 260.053 243.596 258.598 242.993C257.144 242.39 255.822 241.507 254.709 240.393C253.597 239.279 252.714 237.957 252.112 236.502C251.511 235.047 251.202 233.488 251.203 231.913C251.203 228.735 252.466 225.687 254.713 223.44C256.96 221.192 260.008 219.93 263.186 219.93H382.048C383.622 219.928 385.182 220.237 386.637 220.839C388.092 221.441 389.414 222.323 390.528 223.436C391.642 224.549 392.525 225.87 393.128 227.325C393.731 228.779 394.041 230.339 394.041 231.913C394.041 235.094 392.778 238.144 390.528 240.394C388.279 242.643 385.229 243.906 382.048 243.906Z" fill="#407BFF"/>
<path opacity="0.5" d="M394.031 231.911C394.031 235.09 392.769 238.139 390.522 240.388C388.275 242.637 385.227 243.902 382.048 243.904H263.186C260.008 243.904 256.96 242.642 254.713 240.394C252.466 238.147 251.203 235.099 251.203 231.921C251.203 228.743 252.466 225.695 254.713 223.447C256.96 221.2 260.008 219.938 263.186 219.938H382.048C385.224 219.937 388.271 221.199 390.518 223.444C392.765 225.689 394.029 228.734 394.031 231.911Z" fill="white"/>
<path d="M443.681 272.93L404.458 224.63C403.244 223.134 401.68 221.961 399.905 221.214C398.13 220.466 396.198 220.168 394.28 220.344H344.442C341.427 220.086 338.429 221.007 336.079 222.914C333.667 224.871 332.131 227.707 331.809 230.797C331.487 233.887 332.406 236.978 334.363 239.391L373.597 287.701C374.691 289.051 376.073 290.139 377.642 290.888C379.21 291.636 380.926 292.025 382.664 292.026H434.496C436.719 292.049 438.903 291.438 440.792 290.265C442.681 289.092 444.198 287.406 445.164 285.403C446.131 283.401 446.507 281.164 446.25 278.956C445.993 276.747 445.112 274.657 443.711 272.93H443.681Z" fill="#407BFF"/>
<path opacity="0.2" d="M390.064 289.407C388.871 290.376 387.498 291.101 386.025 291.54C384.551 291.979 383.006 292.123 381.477 291.965C379.948 291.806 378.465 291.348 377.113 290.616C375.761 289.885 374.566 288.894 373.597 287.701L334.363 239.39C332.406 236.977 331.487 233.886 331.809 230.796C332.131 227.706 333.667 224.871 336.079 222.913C337.273 221.943 338.645 221.218 340.119 220.779C341.593 220.34 343.139 220.197 344.669 220.356C346.198 220.515 347.681 220.975 349.033 221.708C350.385 222.441 351.579 223.434 352.546 224.629L391.78 272.93C392.75 274.124 393.476 275.498 393.915 276.972C394.353 278.447 394.497 279.994 394.338 281.524C394.179 283.054 393.719 284.538 392.986 285.891C392.252 287.244 391.259 288.438 390.064 289.407Z" fill="white"/>
<path opacity="0.5" d="M443.681 272.93L404.458 224.63C403.244 223.134 401.68 221.961 399.905 221.214C398.13 220.466 396.198 220.168 394.28 220.344H344.442C341.427 220.086 338.429 221.007 336.079 222.914C333.667 224.871 332.131 227.707 331.809 230.797C331.487 233.887 332.406 236.978 334.363 239.391L373.597 287.701C374.691 289.051 376.073 290.139 377.642 290.888C379.21 291.636 380.926 292.025 382.664 292.026H434.496C436.719 292.049 438.903 291.438 440.792 290.265C442.681 289.092 444.198 287.406 445.164 285.403C446.131 283.401 446.507 281.164 446.25 278.956C445.993 276.747 445.112 274.657 443.711 272.93H443.681Z" fill="white"/>
<path d="M223.924 319.434H215.602V327.756H223.924V319.434Z" fill="#263238"/>
<path d="M308.026 319.434H299.703V327.756H308.026V319.434Z" fill="#263238"/>
<path d="M298.901 319.434H290.578V327.756H298.901V319.434Z" fill="#263238"/>
<path d="M383.003 319.434H374.68V327.756H383.003V319.434Z" fill="#263238"/>
<path d="M352.408 319.436H226.176L251.452 268.477H352.408V319.436Z" fill="#263238"/>
<path opacity="0.2" d="M352.408 319.436H226.176L251.452 268.477H352.408V319.436Z" fill="white"/>
<path opacity="0.2" d="M299.762 319.436H226.176L251.452 268.477H299.762V319.436Z" fill="white"/>
<path d="M389.319 313.773H212.297L207.664 324.279H393.952L389.319 313.773Z" fill="#263238"/>
<path opacity="0.2" d="M312.171 313.773H212.297L207.664 324.279H310.624L312.171 313.773Z" fill="white"/>
<path d="M338.087 183.549H269.341C266.169 183.549 263.598 186.12 263.598 189.293V191.455C263.598 194.627 266.169 197.199 269.341 197.199H338.087C341.259 197.199 343.831 194.627 343.831 191.455V189.293C343.831 186.12 341.259 183.549 338.087 183.549Z" fill="#407BFF"/>
<path opacity="0.5" d="M338.087 183.549H269.341C266.169 183.549 263.598 186.12 263.598 189.293V191.455C263.598 194.627 266.169 197.199 269.341 197.199H338.087C341.259 197.199 343.831 194.627 343.831 191.455V189.293C343.831 186.12 341.259 183.549 338.087 183.549Z" fill="white"/>
<path opacity="0.5" d="M343.821 190.339C343.821 188.529 343.102 186.793 341.822 185.513C340.542 184.233 338.806 183.514 336.996 183.514H270.423C268.613 183.514 266.877 184.233 265.597 185.513C264.317 186.793 263.598 188.529 263.598 190.339H343.821Z" fill="white"/>
<path d="M304.752 184.832C298.316 188.83 291.284 191.776 283.92 193.561L268.048 197.401C266.699 194.325 262.156 188.036 253.327 170.964C252.256 169.21 251.302 167.387 250.47 165.508C248.615 161.481 247.186 157.272 246.204 152.949C245.627 150.441 245.226 147.895 245.004 145.33C245.007 145.307 245.007 145.284 245.004 145.261C244.736 144.717 244.579 144.125 244.543 143.52C244.507 142.914 244.592 142.308 244.794 141.736C244.995 141.164 245.309 140.638 245.716 140.189C246.124 139.74 246.617 139.376 247.167 139.121H247.246C249.428 138.029 252.206 136.73 254.964 135.639C260.246 133.528 265.637 131.7 271.114 130.163C272.96 129.718 274.832 129.387 276.718 129.171C278.015 128.966 279.341 129.088 280.578 129.527C281.815 129.965 282.923 130.705 283.801 131.681C287.68 135.777 296.201 151.927 304.752 184.832Z" fill="#252525"/>
<g opacity="0.7">
<path opacity="0.7" d="M298.267 162.928C294.389 163.732 290.173 164.416 286.968 164.912C286.443 163.097 285.639 161.301 284.984 159.546L295.619 155.617C296.485 157.866 297.368 160.303 298.267 162.928Z" fill="white"/>
</g>
<path d="M266.848 136.443C259.001 139.597 254.458 135.788 254.458 135.788C256.779 131.086 252.216 122.078 249.25 117.287L254.785 119.4L262.325 122.277C262.42 123.125 262.566 123.966 262.761 124.797C262.894 125.394 263.08 125.978 263.317 126.542V126.632C264.309 128.983 266.293 130.6 270.36 130.203C270.38 130.223 273.504 133.725 266.848 136.443Z" fill="#B25B52"/>
<path opacity="0.2" d="M262.306 122.276C262.401 123.123 262.547 123.965 262.742 124.795C262.875 125.393 263.061 125.977 263.298 126.541V126.631C260.957 126.918 257.276 125.589 256.185 123.456C255.827 122.753 255.541 122.015 255.332 121.254L262.306 122.276Z" fill="black"/>
<path d="M260.144 109.886C260.144 109.886 263.487 111.582 264.261 107.495C260.928 105.312 261.86 104.34 260.551 101.989C259.89 100.578 258.859 99.3725 257.569 98.4993C256.278 97.6261 254.776 97.1182 253.22 97.0293L250.879 98.5173C243.33 105.263 260.144 109.886 260.144 109.886Z" fill="#252525"/>
<path d="M241.97 110.805C241.19 108.32 241.429 105.627 242.635 103.319C243.84 101.01 245.914 99.2747 248.398 98.4945C255.898 95.945 264.181 103.365 267.504 109.317C268.393 110.844 268.847 112.585 268.818 114.352C268.79 116.118 268.279 117.844 267.342 119.341C266.405 120.839 265.076 122.052 263.5 122.85C261.924 123.649 260.16 124.001 258.398 123.87C252.952 123.523 250.065 120.249 244.678 115.091C243.42 113.921 242.487 112.444 241.97 110.805Z" fill="#B25B52"/>
<path d="M251.822 121.886L244.531 117.918C245.383 114.746 246.74 111.732 248.549 108.99L248.926 109.179L251.822 121.886Z" fill="#B25B52"/>
<path opacity="0.2" d="M251.822 121.886L244.531 117.918C245.383 114.746 246.74 111.732 248.549 108.99L248.926 109.179L251.822 121.886Z" fill="black"/>
<path d="M248.547 109.054C246.738 111.795 245.382 114.809 244.53 117.982L239.977 115.502L243.538 106.494L248.547 109.054Z" fill="#252525"/>
<path d="M245.642 116.563C247.07 115.353 249.957 116.275 251.505 117.297C253.241 118.438 253.637 120.273 251.733 120.908C250.177 121.357 248.514 121.248 247.031 120.6C245.166 119.797 244.223 117.773 245.642 116.563Z" fill="#B25B52"/>
<path d="M424.507 243.437L422.791 249.34L415.302 245.183L413.189 244.013L411.73 243.199L416.194 237.178L417.097 237.862L419.091 239.36L424.507 243.437Z" fill="#B25B52"/>
<path d="M437.823 239.809C435.749 242.418 433.745 244.699 432.238 246.574C429.777 249.629 428.984 250.899 427.099 253.349C426.873 253.632 426.546 253.815 426.187 253.861C425.828 253.908 425.465 253.813 425.175 253.597L420.215 249.074C420.115 248.972 420.059 248.835 420.059 248.692C420.059 248.549 420.115 248.412 420.215 248.31L424.183 242.626C424.916 242.015 425.748 241.532 426.643 241.197C429.341 240.503 431.404 240.434 436.354 236.287C436.622 236.101 436.949 236.022 437.271 236.064C437.594 236.106 437.89 236.267 438.1 236.515C438.725 237.15 438.993 238.36 437.823 239.809Z" fill="#263238"/>
<path opacity="0.2" d="M418.733 239.081L414.844 244.954L413.188 244.012L417.096 237.861L418.733 239.081Z" fill="black"/>
<path d="M417.722 236.867L412.454 245.18C412.454 245.18 382.913 233.851 357.061 209.746L357.14 209.319C342.459 213.01 299.465 213.654 292.561 206.343C288.93 202.316 286.381 198.04 285.746 192.773L292.561 190.511C296.152 189.053 302.362 186.85 304.396 184.41C304.396 184.41 343.5 186.801 359.591 194.39C376.455 200.6 417.722 236.867 417.722 236.867Z" fill="#961426"/>
<path d="M416.532 252.615L413.179 257.833L405.58 254.043L402.941 252.714L406.929 246.117V246.107L416.532 252.615Z" fill="#B25B52"/>
<path opacity="0.2" d="M409.528 247.863L405.65 253.885L405.58 254.043L402.941 252.714L406.929 246.117L409.528 247.863Z" fill="black"/>
<path d="M408.297 245.272L407.98 245.837L402.851 254.091L351.723 222.079C336.575 226.84 284.902 227.317 277.234 220.095C276.664 219.542 276.124 218.96 275.617 218.349C275.062 217.724 274.556 217.069 274.079 216.415C274.078 216.395 274.078 216.375 274.079 216.355C272.067 213.028 270.578 209.411 269.665 205.631C268.917 202.814 268.351 199.951 267.969 197.061C282.502 194.184 299.991 189.551 304.425 184.383L313.154 197.676C327.856 199.104 350.166 202.636 355.969 204.967C373.984 210.472 408.297 245.272 408.297 245.272Z" fill="#AA182C"/>
<path d="M275.617 218.361C275.072 217.733 274.568 217.07 274.109 216.377C274.556 217.121 275.062 217.736 275.617 218.361Z" fill="#407BFF"/>
<path d="M429.541 247.1C429.164 247.635 428.777 248.151 428.42 248.667L428.371 248.736L427.24 250.254L426.734 250.929C426.476 251.286 426.198 251.673 425.9 252.06L425.305 252.853L424.115 254.5C421.734 257.863 420.98 259.242 419.155 261.92C418.937 262.227 418.608 262.437 418.239 262.508C417.869 262.578 417.486 262.502 417.171 262.297L412.578 258.557L411.725 257.863C411.667 257.815 411.619 257.756 411.584 257.69C411.549 257.623 411.528 257.55 411.522 257.476C411.515 257.401 411.524 257.325 411.547 257.254C411.57 257.182 411.607 257.116 411.655 257.059L415.445 250.859C416.181 250.18 417.021 249.624 417.935 249.213C420.722 248.32 422.895 248.121 427.805 243.479C428.837 242.447 431.525 244.253 429.541 247.1Z" fill="#263238"/>
<path d="M274.053 216.346C271.78 213.16 270.239 209.512 269.539 205.662H269.638C270.552 209.429 272.041 213.033 274.053 216.346Z" fill="#407BFF"/>
<path d="M277.364 183.549H208.619C205.447 183.549 202.875 186.12 202.875 189.293V191.455C202.875 194.627 205.447 197.199 208.619 197.199H277.364C280.536 197.199 283.108 194.627 283.108 191.455V189.293C283.108 186.12 280.536 183.549 277.364 183.549Z" fill="#407BFF"/>
<path opacity="0.5" d="M277.364 183.549H208.619C205.447 183.549 202.875 186.12 202.875 189.293V191.455C202.875 194.627 205.447 197.199 208.619 197.199H277.364C280.536 197.199 283.108 194.627 283.108 191.455V189.293C283.108 186.12 280.536 183.549 277.364 183.549Z" fill="white"/>
<path opacity="0.5" d="M283.108 190.339C283.108 188.529 282.389 186.793 281.109 185.513C279.829 184.233 278.093 183.514 276.283 183.514H209.71C208.813 183.512 207.924 183.688 207.095 184.03C206.266 184.373 205.512 184.875 204.877 185.509C204.243 186.143 203.739 186.896 203.395 187.725C203.052 188.553 202.875 189.442 202.875 190.339H283.108Z" fill="white"/>
<path d="M268.83 184.605C259.436 185.428 253.692 185.022 244.328 184.982C236.213 184.982 235.062 184.982 235.062 182.363C235.062 179.387 235.757 174.278 235.757 171.332C239.407 171.56 242.651 171.957 246.252 171.332L245.816 176.044C256.023 175.786 259.456 178.812 268.83 179.913V184.605Z" fill="#B25B52"/>
<path opacity="0.2" d="M251.968 168.51C249.389 163.612 247.468 158.395 246.254 152.995L248.238 151.824L251.968 168.51Z" fill="black"/>
<path d="M246.097 139.836C242.387 140.511 239.461 143.566 237.973 147.028C236.485 150.49 235.275 170.082 235.225 169.308H233.955L233.062 176.024C237.834 175.885 243.895 175.449 248.657 175.31C248.657 175.31 248.865 171.064 248.657 168.991L247.397 169.1L250.036 151.393C250.479 148.549 250.248 145.64 249.361 142.901C249.232 142.47 249.056 142.054 248.835 141.661C248.23 140.739 247.238 139.628 246.097 139.836Z" fill="#252525"/>
<path d="M288.477 179.565C288.477 180.534 288.189 181.482 287.65 182.288C287.111 183.094 286.345 183.722 285.449 184.093C284.553 184.464 283.567 184.56 282.617 184.37C281.666 184.18 280.793 183.713 280.108 183.026C279.423 182.34 278.957 181.466 278.769 180.514C278.581 179.563 278.679 178.578 279.052 177.682C279.424 176.787 280.054 176.022 280.861 175.485C281.668 174.948 282.617 174.662 283.586 174.664C284.884 174.667 286.128 175.184 287.045 176.103C287.962 177.022 288.477 178.267 288.477 179.565Z" fill="#407BFF"/>
<path d="M283.13 187.44C284.539 187.305 285.921 186.971 287.237 186.448C287.517 186.325 287.77 186.147 287.98 185.925C288.19 185.702 288.353 185.439 288.459 185.153C288.566 184.866 288.613 184.56 288.599 184.255C288.585 183.949 288.51 183.649 288.378 183.373C288.189 182.956 287.991 182.54 287.753 182.123C286.463 182.758 284.896 183.482 283.547 182.966C280.928 181.974 279.4 179.663 276.603 179.604L268.25 180C267.868 181.473 267.827 183.013 268.131 184.504C272.913 186.378 277.994 187.373 283.13 187.44Z" fill="#B25B52"/>
<path d="M284.3 164.427L278.496 168.127C278.496 168.127 272.316 171.103 270.312 169.605C269.455 168.537 268.75 167.355 268.219 166.093C268.035 165.731 267.967 165.32 268.023 164.917C268.08 164.514 268.259 164.139 268.537 163.841L272.505 160.379C273.37 159.64 274.471 159.232 275.61 159.229H283.04L284.3 164.427Z" fill="#B25B52"/>
<path d="M308.907 159.087C308.842 159.186 308.766 159.276 308.679 159.355C308.585 159.451 308.482 159.538 308.371 159.613C308.253 159.712 308.127 159.802 307.994 159.881C307.333 160.278 306.636 160.61 305.911 160.873C305.712 160.952 305.494 161.041 305.266 161.111C305.038 161.18 304.82 161.28 304.572 161.349C304.096 161.498 303.58 161.657 303.064 161.795L302.538 161.934L301.05 162.321H300.891C300.048 162.52 299.165 162.718 298.272 162.906C298.169 162.936 298.062 162.956 297.955 162.966C294.979 163.591 291.745 164.137 289.027 164.553C288.66 164.613 288.293 164.672 287.956 164.712L286.964 164.861C286.438 163.035 284.335 159.663 283.68 157.917L294.324 154.038L296.715 153.165C296.715 153.165 294.096 149.009 293.263 147.868C292.43 146.727 291.765 145.814 291.011 144.773C287.777 138.027 285.456 133.305 282.837 131.133C281.586 129.959 279.966 129.257 278.254 129.149C278.254 129.149 283.869 127.879 285.753 128.454C287.629 129.123 289.355 130.155 290.832 131.49C296.43 135.954 301.314 141.246 305.316 147.183C305.385 147.292 305.484 147.431 305.574 147.59C305.941 148.145 306.298 148.711 306.635 149.276C308.361 152.094 310.573 156.706 308.907 159.087Z" fill="#252525"/>
<path opacity="0.2" d="M294.992 150.44L292.086 146.393C291.094 144.18 290.211 142.216 289.348 140.49L290.488 141.581C292.931 143.953 294.515 147.069 294.992 150.44Z" fill="black"/>
<path d="M289.814 166.805C287.844 166.182 285.762 165.999 283.714 166.269C282.622 163.194 281.435 160.155 280.152 157.153C282.036 156.311 284.048 155.795 286.104 155.625C287.305 159.276 289.289 163.015 289.814 166.805Z" fill="#263238"/>
<path opacity="0.1" d="M289.814 166.805C287.844 166.182 285.762 165.999 283.714 166.269C282.622 163.194 281.435 160.155 280.152 157.153C282.036 156.311 284.048 155.795 286.104 155.625C287.305 159.276 289.289 163.015 289.814 166.805Z" fill="white"/>
<path d="M240.384 115.778C238.48 114.458 237.617 112.058 237.349 109.756C237.081 107.455 239.541 107.008 239.263 104.707C238.986 102.406 238.073 100.005 236.148 98.755C237.805 99.2014 239.908 98.8443 241.406 99.6776C240.365 97.9266 238.711 96.6254 236.763 96.027C239.464 95.8256 242.178 96.1249 244.769 96.9099C244.59 94.9259 242.785 92.2971 241.604 90.6702L248.142 94.6382C248.787 93.1365 248.865 91.4512 248.36 89.8965C250.403 92.0987 254.848 96.7611 254.848 96.7611L255.84 98.5864C251.872 98.9832 252.715 101.106 252.715 101.106C252.715 101.106 243.648 101.761 240.384 115.778Z" fill="#263238"/>
<path opacity="0.1" d="M233.955 169.325L248.677 169.008L248.657 175.327L233.062 176.041L233.955 169.325Z" fill="white"/>
<path d="M111.613 314.474L118.716 318.254L119.391 306.985L112.089 306.578L111.613 314.474Z" fill="#F7978D"/>
<path d="M119.041 316.459L111.512 313.077C111.38 313.018 111.231 313.006 111.091 313.042C110.95 313.078 110.826 313.16 110.738 313.275L106.77 318.662C106.602 318.898 106.534 319.19 106.581 319.476C106.627 319.762 106.784 320.019 107.018 320.189L107.227 320.308C109.875 321.439 111.195 321.856 114.548 323.344C116.532 324.257 121.779 326.846 124.606 328.106C127.434 329.365 129.031 326.747 127.989 325.973C123.307 322.511 120.986 319.594 119.994 317.362C119.804 316.95 119.463 316.627 119.041 316.459Z" fill="#263238"/>
<path opacity="0.2" d="M119.387 306.995L119.258 310.665L111.957 310.229L112.086 306.578L119.387 306.995Z" fill="black"/>
<path d="M131.165 148.146C132.643 156.946 130.034 199.73 127.197 218.648C123.467 243.726 120.63 309.436 120.63 309.436L110.878 308.682C110.878 308.682 107.902 239.778 110.243 219.63C109.559 193.64 107.535 148.206 107.535 148.206L131.165 148.146Z" fill="#8A0E1F"/>
<path opacity="0.2" d="M108.716 176.53C108.478 169.943 113.239 164.179 114.906 176.629C115.957 184.565 113.269 198.354 109.886 208.075C109.559 197.887 109.122 186.549 108.716 176.53Z" fill="black"/>
<path d="M58.1719 297.125L63.7072 300.646L68.6871 292.631L63.1517 289.109L58.1719 297.125Z" fill="#F7978D"/>
<path d="M64.5616 300.52L58.4708 294.915C58.3692 294.818 58.2342 294.764 58.0938 294.764C57.9534 294.764 57.8184 294.818 57.7168 294.915L52.7568 299.309C52.6396 299.426 52.5465 299.564 52.483 299.716C52.4194 299.869 52.3867 300.032 52.3867 300.197C52.3867 300.362 52.4194 300.526 52.483 300.678C52.5465 300.831 52.6396 300.969 52.7568 301.085C54.8996 303.01 56.0304 303.813 58.7088 306.293C60.3556 307.801 62.3296 309.954 64.6013 312.057C66.873 314.16 68.9463 311.918 68.1824 310.836C64.7402 305.966 65.4544 304.279 65.0775 301.71C65.0353 301.269 64.8547 300.852 64.5616 300.52Z" fill="#263238"/>
<path opacity="0.2" d="M68.6905 292.641L66.4486 296.232L60.8438 292.532L63.1452 289.109L68.6905 292.641Z" fill="black"/>
<path d="M116.608 158.254C116.608 158.254 107.402 213.806 102.065 234.807C98.2066 249.925 68.645 294.922 68.645 294.922L61.0859 290.418C61.0859 290.418 71.2539 253.03 87.4037 233.259C88.3957 209.778 86.4117 171.071 95.7167 158.333L116.608 158.254Z" fill="#8A0E1F"/>
<path d="M130.568 111.592C133.902 108.219 137.026 104.747 140.082 101.146C143.137 97.5448 146.103 93.8843 148.881 89.9957L149.407 89.2715L149.972 88.4283C150.339 87.8629 150.676 87.2974 150.964 86.732C151.579 85.5912 152.095 84.4206 152.621 83.3195C153.576 81.0799 154.414 78.7919 155.13 76.4648C156.51 71.9182 157.555 67.2764 158.255 62.5768C158.387 62.0612 158.308 61.5143 158.036 61.0567C157.765 60.599 157.323 60.268 156.807 60.1365C156.291 60.0049 155.744 60.0836 155.287 60.3552C154.829 60.6269 154.498 61.0692 154.367 61.5848C152.819 65.8603 151.162 70.1855 149.407 74.3023C148.514 76.3755 147.542 78.3893 146.51 80.3039C145.994 81.2959 145.449 82.1688 144.883 83.0319C144.605 83.4683 144.308 83.8751 144.02 84.2719L143.574 84.8373L143.058 85.4821C140.181 88.9739 137.106 92.4261 134.13 95.8187C131.154 99.2114 127.91 102.604 124.805 105.917C124.419 106.3 124.114 106.755 123.908 107.257C123.701 107.759 123.597 108.298 123.602 108.841C123.606 109.384 123.72 109.92 123.935 110.418C124.15 110.917 124.463 111.367 124.856 111.743C125.248 112.118 125.711 112.411 126.218 112.605C126.725 112.799 127.266 112.889 127.809 112.87C128.352 112.851 128.885 112.724 129.378 112.496C129.87 112.268 130.312 111.944 130.678 111.542L130.568 111.592Z" fill="#F7978D"/>
<path d="M154.423 63.0431L153.848 56.5059L160.851 59.3926C160.851 59.3926 160.067 63.2713 157.151 64.799L154.423 63.0431Z" fill="#F7978D"/>
<path d="M127.429 100.064C126.566 98.8839 139.601 88.7754 139.601 88.7754L141.863 103.318C141.863 103.318 139.264 108.685 135.484 111.611C131.705 114.538 125.862 104.727 127.429 100.064Z" fill="#AA182C"/>
<path d="M159.046 52.5081L161.595 54.4921C161.88 54.7098 162.085 55.0155 162.178 55.3617C162.272 55.7079 162.248 56.0753 162.111 56.4067L160.851 59.3827L153.848 56.4959L156.774 52.7858C157.04 52.4497 157.427 52.232 157.853 52.18C158.278 52.128 158.707 52.2459 159.046 52.5081Z" fill="#F7978D"/>
<path d="M135.677 104.828C135.796 119.5 132.949 130.937 131.709 141.026C131.55 142.306 131.302 146.542 132.552 155.37C133.403 162.616 133.886 169.9 134.001 177.194L87.9023 174.288C89.4201 154.517 99.1318 142.544 99.1219 139.826C99.1219 131.632 98.2291 123.249 94.6579 107.199C94.265 105.422 94.5939 103.561 95.5724 102.027C96.5509 100.492 98.0988 99.4086 99.8758 99.0149C100.081 98.9641 100.29 98.9277 100.501 98.9058C102.485 98.6478 104.578 98.4197 106.75 98.3106C111.623 97.9435 116.516 97.9236 121.392 98.251C124.825 98.5486 128.505 99.124 131.134 99.5605C132.387 99.769 133.528 100.41 134.358 101.372C135.188 102.335 135.655 103.557 135.677 104.828Z" fill="#AA182C"/>
<path d="M127.969 117.723H127.373L126.59 115.362C126.555 115.257 126.546 115.145 126.563 115.036C126.58 114.927 126.623 114.824 126.688 114.735C126.753 114.646 126.838 114.573 126.937 114.523C127.035 114.474 127.144 114.448 127.254 114.449H128.088C128.198 114.448 128.307 114.474 128.406 114.523C128.504 114.573 128.589 114.646 128.654 114.735C128.719 114.824 128.762 114.927 128.779 115.036C128.796 115.145 128.787 115.257 128.752 115.362L127.969 117.723Z" fill="#263238"/>
<path d="M127.691 115.303C128.595 115.303 129.328 114.57 129.328 113.666C129.328 112.762 128.595 112.029 127.691 112.029C126.787 112.029 126.055 112.762 126.055 113.666C126.055 114.57 126.787 115.303 127.691 115.303Z" fill="#407BFF"/>
<path opacity="0.5" d="M127.691 114.674C128.25 114.674 128.703 114.221 128.703 113.662C128.703 113.103 128.25 112.65 127.691 112.65C127.133 112.65 126.68 113.103 126.68 113.662C126.68 114.221 127.133 114.674 127.691 114.674Z" fill="white"/>
<path d="M132.194 116.654H123.197C122.512 116.654 121.957 117.209 121.957 117.894V122.586C121.957 123.271 122.512 123.826 123.197 123.826H132.194C132.879 123.826 133.434 123.271 133.434 122.586V117.894C133.434 117.209 132.879 116.654 132.194 116.654Z" fill="#407BFF"/>
<path opacity="0.8" d="M132.194 116.654H123.197C122.512 116.654 121.957 117.209 121.957 117.894V122.586C121.957 123.271 122.512 123.826 123.197 123.826H132.194C132.879 123.826 133.434 123.271 133.434 122.586V117.894C133.434 117.209 132.879 116.654 132.194 116.654Z" fill="white"/>
<path d="M132.087 117.047H123.288C122.773 117.047 122.355 117.464 122.355 117.979V122.473C122.355 122.988 122.773 123.406 123.288 123.406H132.087C132.602 123.406 133.019 122.988 133.019 122.473V117.979C133.019 117.464 132.602 117.047 132.087 117.047Z" fill="#407BFF"/>
<path opacity="0.5" d="M132.087 117.047H123.288C122.773 117.047 122.355 117.464 122.355 117.979V122.473C122.355 122.988 122.773 123.406 123.288 123.406H132.087C132.602 123.406 133.019 122.988 133.019 122.473V117.979C133.019 117.464 132.602 117.047 132.087 117.047Z" fill="white"/>
<path d="M126.055 117.992H123.477V120.908H126.055V117.992Z" fill="#407BFF"/>
<path d="M127.146 119.001C127.086 119.001 127.028 118.977 126.985 118.934C126.942 118.892 126.918 118.834 126.918 118.773C126.918 118.713 126.942 118.655 126.985 118.612C127.028 118.569 127.086 118.545 127.146 118.545H131.937C131.998 118.545 132.056 118.569 132.099 118.612C132.142 118.655 132.166 118.713 132.166 118.773C132.166 118.834 132.142 118.892 132.099 118.934C132.056 118.977 131.998 119.001 131.937 119.001H127.146Z" fill="white"/>
<path d="M127.146 121.888C127.086 121.888 127.028 121.864 126.985 121.821C126.942 121.778 126.918 121.72 126.918 121.66C126.918 121.599 126.942 121.541 126.985 121.498C127.028 121.456 127.086 121.432 127.146 121.432H131.937C131.998 121.432 132.056 121.456 132.099 121.498C132.142 121.541 132.166 121.599 132.166 121.66C132.166 121.72 132.142 121.778 132.099 121.821C132.056 121.864 131.998 121.888 131.937 121.888H127.146Z" fill="white"/>
<path d="M127.146 120.46C127.086 120.46 127.028 120.436 126.985 120.393C126.942 120.351 126.918 120.293 126.918 120.232C126.918 120.172 126.942 120.114 126.985 120.071C127.028 120.028 127.086 120.004 127.146 120.004H131.937C131.998 120.004 132.056 120.028 132.099 120.071C132.142 120.114 132.166 120.172 132.166 120.232C132.166 120.293 132.142 120.351 132.099 120.393C132.056 120.436 131.998 120.46 131.937 120.46H127.146Z" fill="white"/>
<path opacity="0.4" d="M121.345 98.2891C121.345 98.2891 126.533 102.049 120.829 111.185C116.345 106.673 111.637 102.388 106.723 98.3486L121.345 98.2891Z" fill="white"/>
<path d="M91.4051 108.328C89.8873 111.949 88.5283 115.55 87.2486 119.24C86.6236 121.075 85.9987 122.911 85.463 124.865C84.8588 126.853 84.3784 128.878 84.0246 130.926C83.9193 131.559 83.853 132.199 83.8262 132.84C83.8065 133.338 83.8364 133.837 83.9155 134.328C83.9155 134.517 84.0048 134.715 84.0643 134.904L84.1536 135.251C84.2041 135.405 84.2672 135.554 84.342 135.697L84.4611 135.935V136.045V136.124L84.5702 136.283C85.1753 137.136 85.711 138.019 86.3856 138.822C87.6659 140.491 89.0863 142.047 90.6313 143.475C92.2125 144.906 93.9534 146.151 95.8195 147.185C96.7716 147.712 97.7673 148.157 98.7955 148.514C99.3113 148.693 99.847 148.861 100.383 149L101.226 149.169C101.543 149.228 101.771 149.258 102.218 149.308L102.793 145.34C102.663 145.26 102.527 145.191 102.387 145.131L101.851 144.863C101.494 144.675 101.137 144.467 100.789 144.248C100.091 143.776 99.4187 143.266 98.7756 142.721C97.4677 141.611 96.2625 140.386 95.1747 139.06C94.6489 138.356 94.0934 137.711 93.6073 136.947C93.1212 136.183 92.6153 135.519 92.1689 134.795C91.7225 134.071 91.296 133.257 90.8396 132.493V132.344V132.265V132.335V132.493C90.8396 132.592 90.9388 132.721 90.9587 132.781C90.964 132.84 90.964 132.9 90.9587 132.959L91.0182 133.188C91.0182 133.366 91.0182 133.317 91.0182 133.188C91.0505 132.869 91.1103 132.554 91.1968 132.245C91.6279 130.534 92.1444 128.846 92.7443 127.186C93.3494 125.45 93.9843 123.674 94.6489 121.919C95.9782 118.397 97.3571 114.826 98.7161 111.324L91.4051 108.328Z" fill="#F7978D"/>
<path d="M111.868 141.826L109.16 140.943C108.964 140.876 108.758 140.849 108.552 140.863C108.346 140.877 108.145 140.931 107.96 141.024C107.776 141.116 107.611 141.244 107.477 141.401C107.342 141.557 107.24 141.739 107.176 141.935C107.086 142.205 107.074 142.495 107.141 142.772C107.207 143.049 107.35 143.302 107.553 143.502L99.835 167.31C99.691 167.761 99.7311 168.251 99.9467 168.673C100.162 169.095 100.536 169.414 100.986 169.562L101.65 169.78C102.102 169.924 102.591 169.884 103.013 169.669C103.435 169.453 103.754 169.08 103.902 168.63L111.62 144.822C111.899 144.773 112.161 144.65 112.375 144.465C112.59 144.279 112.751 144.039 112.84 143.77C112.966 143.383 112.935 142.962 112.753 142.598C112.571 142.235 112.253 141.957 111.868 141.826Z" fill="#407BFF"/>
<path opacity="0.6" d="M111.868 141.826L109.16 140.943C108.964 140.876 108.758 140.849 108.552 140.863C108.346 140.877 108.145 140.931 107.96 141.024C107.776 141.116 107.611 141.244 107.477 141.401C107.342 141.557 107.24 141.739 107.176 141.935C107.086 142.205 107.074 142.495 107.141 142.772C107.207 143.049 107.35 143.302 107.553 143.502L99.835 167.31C99.691 167.761 99.7311 168.251 99.9467 168.673C100.162 169.095 100.536 169.414 100.986 169.562L101.65 169.78C102.102 169.924 102.591 169.884 103.013 169.669C103.435 169.453 103.754 169.08 103.902 168.63L111.62 144.822C111.899 144.773 112.161 144.65 112.375 144.465C112.59 144.279 112.751 144.039 112.84 143.77C112.966 143.383 112.935 142.962 112.753 142.598C112.571 142.235 112.253 141.957 111.868 141.826Z" fill="white"/>
<path d="M108.133 140.974C108.747 141.512 109.482 141.893 110.275 142.085C111.03 142.399 111.852 142.522 112.666 142.442C112.476 142.152 112.192 141.935 111.862 141.827L109.154 140.944C108.82 140.84 108.46 140.85 108.133 140.974Z" fill="#407BFF"/>
<path d="M105.987 155.378C105.283 155.15 104.777 154.793 104.836 154.564L100.61 167.609C100.57 167.734 100.555 167.865 100.566 167.995C100.577 168.125 100.613 168.252 100.673 168.368C100.733 168.484 100.815 168.588 100.915 168.672C101.015 168.756 101.13 168.82 101.255 168.859L101.92 169.067C102.17 169.149 102.442 169.128 102.676 169.009C102.91 168.89 103.088 168.682 103.17 168.433L107.396 155.388C107.306 155.616 106.681 155.616 105.987 155.378Z" fill="#EA0029"/>
<path d="M107.399 155.385C107.33 155.613 106.695 155.603 105.991 155.385C105.286 155.167 104.761 154.79 104.84 154.562C104.919 154.334 105.544 154.334 106.248 154.562C106.953 154.79 107.478 155.157 107.399 155.385Z" fill="#C53F3F"/>
<g opacity="0.8">
<path opacity="0.8" d="M108.253 143.94C105.7 151.83 103.147 159.716 100.595 167.599C100.58 167.695 100.599 167.792 100.65 167.875C100.701 167.957 100.779 168.019 100.871 168.049C100.963 168.078 101.062 168.074 101.152 168.038C101.241 168.001 101.314 167.933 101.359 167.847C103.905 159.957 106.457 152.071 109.017 144.188C109.032 144.092 109.012 143.995 108.961 143.912C108.911 143.83 108.832 143.768 108.74 143.739C108.649 143.709 108.549 143.713 108.46 143.75C108.37 143.786 108.297 143.854 108.253 143.94Z" fill="white"/>
</g>
<path d="M99.9336 148.931L107.136 151.649L108.286 144.705C108.286 144.705 104.09 143.713 101.521 145.697L99.9336 148.931Z" fill="#F7978D"/>
<path d="M111.472 151.101L112.464 148.591C112.648 148.109 112.637 147.574 112.433 147.1C112.229 146.626 111.849 146.25 111.373 146.051L108.268 144.762L107.137 151.646L109.121 152.261C109.587 152.387 110.083 152.338 110.515 152.125C110.948 151.911 111.288 151.547 111.472 151.101Z" fill="#F7978D"/>
<path d="M107.296 102.863C109.28 111.365 95.8976 125.679 95.8976 125.679L85.0352 113.954C85.0352 113.954 90.2729 103.25 96.9392 99.9863C101.572 97.7245 106.423 99.0737 107.296 102.863Z" fill="#AA182C"/>
<path d="M108.133 81.8594C109.125 86.5615 110.037 95.1819 106.754 98.3365C111.797 100.422 116.429 103.388 120.434 107.096C124.114 100.598 121.426 98.277 121.426 98.277C116.178 97.0469 116.287 93.1483 117.19 89.4879L108.133 81.8594Z" fill="#F7978D"/>
<path opacity="0.2" d="M109.121 82.6973C109.199 85.4964 109.876 88.2464 111.105 90.7622C111.968 92.4982 114.319 93.2621 116.7 93.4406C116.643 92.1028 116.793 90.7643 117.146 89.4726L109.121 82.6973Z" fill="black"/>
<path d="M114.518 60.1564C114.3 59.591 114.945 59.0652 115.51 58.9164C116.323 58.7108 117.182 58.7808 117.951 59.1154C118.72 59.4501 119.356 60.0304 119.76 60.7656C120.164 61.5007 120.313 62.3491 120.183 63.1778C120.053 64.0064 119.651 64.7685 119.042 65.3446C119.24 64.8882 120.163 64.3526 120.599 64.5708C121.013 64.8521 121.31 65.2757 121.432 65.7612C121.604 66.168 121.656 66.6155 121.581 67.0508C121.545 67.2704 121.442 67.4734 121.286 67.6316C121.129 67.7898 120.927 67.8954 120.708 67.9337C121.723 68.7995 122.478 69.929 122.891 71.1974C123.057 71.8444 123.02 72.5271 122.783 73.1521C122.547 73.7771 122.124 74.3139 121.571 74.6892C122.732 75.5522 123.813 76.7327 123.694 78.1711C123.625 78.8967 123.375 79.5935 122.968 80.1981C122.561 80.8027 122.009 81.296 121.363 81.6332C122.008 82.8633 123.208 84.2223 122.623 85.4722C121.889 87.0297 119.547 87.5356 119.22 89.222C119.865 89.3906 120.539 89.4303 121.204 89.599C121.415 90.0314 121.513 90.5102 121.489 90.9908C121.464 91.4713 121.319 91.9378 121.065 92.3468C120.728 92.7634 120.073 92.4956 119.538 92.4758C119.272 92.4337 118.999 92.4578 118.745 92.546C118.491 92.6343 118.262 92.7839 118.079 92.9817C117.992 93.1325 117.946 93.3035 117.946 93.4777C117.946 93.6518 117.992 93.8229 118.079 93.9737C118.861 94.3714 119.708 94.6266 120.579 94.7276C119.917 94.8815 119.23 94.9029 118.56 94.7906C117.889 94.6782 117.247 94.4343 116.671 94.0729C116.102 93.7328 115.625 93.26 115.28 92.6951C114.934 92.1301 114.731 91.4898 114.687 90.829C114.687 89.0137 116.066 87.5356 117.385 86.2758C117.643 86.0278 118.01 85.5615 117.692 85.3929C117.527 85.3244 117.35 85.2891 117.172 85.2891C116.993 85.2891 116.816 85.3244 116.651 85.3929C116.32 85.5371 115.957 85.5886 115.599 85.5417C115.007 84.9012 114.503 84.1838 114.101 83.4089C113.655 82.6414 113.53 81.7285 113.754 80.8694C113.979 80.2751 114.316 79.7295 114.746 79.2623C115.058 78.83 115.444 78.4571 115.887 78.1612C116.403 77.8636 117.097 77.6751 117.246 77.0998C117.281 76.8547 117.23 76.6052 117.101 76.3936C116.973 76.1821 116.775 76.0215 116.542 75.9391C116.072 75.7805 115.579 75.7001 115.083 75.701C114.582 75.6993 114.1 75.5079 113.734 75.1654C113.318 74.6892 112.842 73.7666 113.099 73.1814C113.276 72.8934 113.509 72.6438 113.784 72.4473C114.775 71.4252 115.462 70.1474 115.768 68.757C115.811 68.6215 115.811 68.4759 115.768 68.3404C115.669 68.023 115.212 67.9932 114.935 68.1718C114.691 68.3873 114.459 68.6157 114.24 68.8562C113.992 69.0646 113.566 69.1538 113.367 68.8562C112.842 68.1718 108.06 66.029 112.068 61.4559C112.405 61.069 112.484 60.5135 112.881 60.1862C113.124 60.0276 113.406 59.9406 113.695 59.9353C113.985 59.9301 114.27 60.0067 114.518 60.1564Z" fill="#263238"/>
<path d="M100.58 76.0006C102.891 83.5398 103.655 86.7737 108.516 89.7894C115.728 94.3129 124.477 89.8589 124.507 81.8534C124.507 74.592 120.747 63.4915 112.603 62.2218C110.794 61.9292 108.94 62.1043 107.218 62.7303C105.496 63.3563 103.962 64.4124 102.763 65.7983C101.564 67.1841 100.74 68.8536 100.368 70.648C99.9962 72.4425 100.09 74.3021 100.639 76.0502L100.58 76.0006Z" fill="#F7978D"/>
<path d="M97.6765 62.7686C97.7658 62.1634 97.0119 61.7766 96.4067 61.7766C95.5642 61.7556 94.7388 62.0161 94.0609 62.5168C93.383 63.0175 92.8914 63.7299 92.6637 64.5414C92.4361 65.3528 92.4855 66.217 92.8041 66.9973C93.1227 67.7775 93.6922 68.4293 94.4227 68.8495C94.1251 68.4428 93.1034 68.1055 92.7363 68.4428C92.3982 68.8123 92.2045 69.2913 92.1907 69.7919C92.1191 70.2305 92.1706 70.6804 92.3395 71.0914C92.4296 71.2937 92.5775 71.4647 92.7647 71.583C92.9518 71.7013 93.1698 71.7615 93.3911 71.7561C92.6049 72.8307 92.1281 74.1001 92.0122 75.4265C92.0009 76.0949 92.1957 76.7506 92.5702 77.3044C92.9447 77.8582 93.4807 78.2832 94.1053 78.5215C93.1728 79.6326 92.3891 81.0214 92.8355 82.4003C93.0685 83.0901 93.47 83.7108 94.0035 84.2062C94.537 84.7016 95.1858 85.0561 95.8909 85.2374C95.5437 86.5766 94.6807 88.2134 95.5437 89.2649C96.6151 90.614 99.0058 90.5644 99.7101 92.1318C99.1248 92.4393 98.48 92.6377 97.8947 92.9452C97.7824 93.4135 97.7937 93.903 97.9276 94.3656C98.0615 94.8282 98.3134 95.2481 98.6586 95.5839C99.0752 95.9212 99.6506 95.5046 100.166 95.3657C100.416 95.2643 100.687 95.2258 100.955 95.2534C101.223 95.2811 101.48 95.3741 101.704 95.5244C101.835 95.6496 101.929 95.8082 101.976 95.983C102.024 96.1579 102.022 96.3424 101.972 96.5164C101.863 96.8636 100.137 97.6671 99.7101 97.8259C101.086 97.8189 102.403 97.2659 103.371 96.2883C103.845 95.8289 104.2 95.261 104.406 94.6337C104.612 94.0063 104.661 93.3382 104.551 92.6873C104.164 90.9116 102.448 89.7907 100.881 88.8681C100.573 88.6895 100.107 88.3225 100.375 88.0844C100.666 87.8883 101.019 87.807 101.367 87.8563C101.719 87.9272 102.083 87.8963 102.418 87.767C102.86 87.0102 103.194 86.1956 103.41 85.3465C103.541 84.9268 103.587 84.4855 103.546 84.048C103.505 83.6105 103.378 83.1853 103.172 82.7971C102.812 82.2651 102.35 81.8099 101.813 81.4579C101.406 81.1134 100.943 80.8416 100.444 80.6543C99.8787 80.4857 99.1546 80.4659 98.8867 79.9401C98.7943 79.7088 98.7854 79.4526 98.8614 79.2154C98.9374 78.9783 99.0937 78.775 99.3034 78.6406C99.7273 78.3817 100.189 78.1909 100.672 78.0751C101.159 77.9604 101.584 77.6663 101.863 77.2518C102.053 76.9443 102.168 76.5959 102.197 76.2355C102.226 75.875 102.17 75.5127 102.031 75.1785C101.792 74.9368 101.505 74.7476 101.188 74.623C100.01 73.8375 99.0675 72.7473 98.4602 71.4684C98.3777 71.3517 98.3296 71.2143 98.3213 71.0716C98.3213 70.7443 98.7875 70.6054 99.0951 70.7145C99.3841 70.8675 99.6625 71.0398 99.9284 71.2303C100.226 71.3791 100.653 71.3593 100.791 71.0617C101.139 70.2879 105.305 67.0937 100.355 63.5622C99.9482 63.2646 99.7299 62.7388 99.2835 62.5206C99.0195 62.4064 98.7286 62.3691 98.4443 62.413C98.16 62.4569 97.8939 62.5801 97.6765 62.7686Z" fill="#263238"/>
<path d="M105.532 60.6128C110.581 55.9802 116.146 57.8451 119.063 59.3629C120.529 60.1353 121.817 61.2075 122.842 62.5097C123.868 63.8119 124.608 65.3152 125.015 66.9219C125.322 68.1818 125.015 71.0982 122.564 71.8819C121.882 70.4147 120.926 69.0914 119.747 67.9834C117.922 66.5351 114.509 66.3863 113.15 66.793C111.834 69.9127 110.044 72.8104 107.843 75.3837C105.681 77.7744 102.496 79.4707 99.3119 79.0243C97.8224 77.1919 96.857 74.9904 96.5181 72.6534C96.1793 70.3164 96.4797 67.9313 97.3874 65.7514C99.3417 61.4659 105.532 60.6128 105.532 60.6128Z" fill="#263238"/>
<path d="M98.8747 80.2229C99.0912 80.9503 99.4511 81.627 99.9332 82.2131C100.415 82.7992 101.01 83.2828 101.682 83.6354C103.468 84.548 104.777 83.06 104.658 81.1554C104.519 79.4392 103.418 76.8898 101.454 76.7509C101.028 76.7309 100.604 76.8167 100.22 77.0006C99.8357 77.1845 99.5029 77.4607 99.2513 77.8046C98.9998 78.1485 98.8374 78.5493 98.7786 78.9713C98.7198 79.3933 98.7664 79.8233 98.9144 80.2229H98.8747Z" fill="#F7978D"/>
<path d="M188.48 299.984C188.086 299.984 187.707 299.827 187.428 299.548C187.149 299.269 186.992 298.89 186.992 298.496V16.8669C186.992 16.4723 187.149 16.0938 187.428 15.8147C187.707 15.5357 188.086 15.3789 188.48 15.3789C188.875 15.3789 189.253 15.5357 189.532 15.8147C189.811 16.0938 189.968 16.4723 189.968 16.8669V298.466C189.972 298.664 189.937 298.861 189.864 299.045C189.791 299.229 189.682 299.396 189.543 299.537C189.404 299.679 189.239 299.791 189.057 299.868C188.874 299.944 188.678 299.984 188.48 299.984Z" fill="#263238"/>
<path d="M223.937 33.474H153.316C152.921 33.474 152.543 33.3173 152.264 33.0382C151.985 32.7592 151.828 32.3807 151.828 31.986C151.828 31.5914 151.985 31.2129 152.264 30.9339C152.543 30.6548 152.921 30.498 153.316 30.498H223.937C224.331 30.498 224.71 30.6548 224.989 30.9339C225.268 31.2129 225.425 31.5914 225.425 31.986C225.425 32.3807 225.268 32.7592 224.989 33.0382C224.71 33.3173 224.331 33.474 223.937 33.474Z" fill="#263238"/>
<path d="M168.644 314.726L185.23 313.089V286.305H191.807V313.089L208.463 314.726C209.26 314.804 209.999 315.177 210.537 315.771C211.074 316.366 211.371 317.138 211.369 317.94V320.43H165.668V317.94C165.668 317.128 165.975 316.345 166.526 315.75C167.078 315.154 167.834 314.788 168.644 314.726Z" fill="#263238"/>
<path opacity="0.2" d="M168.644 314.726L185.23 313.089V286.305H191.807V313.089L208.463 314.726C209.26 314.804 209.999 315.177 210.537 315.771C211.074 316.366 211.371 317.138 211.369 317.94V320.43H165.668V317.94C165.668 317.128 165.975 316.345 166.526 315.75C167.078 315.154 167.834 314.788 168.644 314.726Z" fill="white"/>
<path d="M205.285 323.512C205.283 324.364 205.534 325.197 206.006 325.907C206.478 326.616 207.149 327.169 207.936 327.497C208.723 327.824 209.588 327.911 210.424 327.746C211.26 327.581 212.028 327.172 212.631 326.57C213.234 325.968 213.645 325.201 213.812 324.366C213.979 323.53 213.895 322.664 213.569 321.877C213.243 321.09 212.692 320.417 211.983 319.943C211.275 319.47 210.442 319.217 209.59 319.217C209.026 319.216 208.466 319.326 207.944 319.541C207.421 319.756 206.947 320.072 206.547 320.471C206.147 320.87 205.83 321.344 205.613 321.866C205.397 322.388 205.285 322.947 205.285 323.512Z" fill="#263238"/>
<path d="M171.759 323.512C171.761 324.365 171.51 325.198 171.038 325.908C170.565 326.617 169.893 327.171 169.106 327.498C168.319 327.825 167.452 327.911 166.616 327.745C165.78 327.579 165.012 327.169 164.409 326.566C163.807 325.964 163.396 325.196 163.231 324.36C163.065 323.523 163.151 322.657 163.478 321.87C163.805 321.083 164.358 320.411 165.068 319.938C165.778 319.466 166.611 319.215 167.464 319.217C168.028 319.217 168.586 319.328 169.107 319.544C169.629 319.76 170.102 320.076 170.501 320.475C170.9 320.874 171.216 321.347 171.432 321.868C171.648 322.39 171.759 322.948 171.759 323.512Z" fill="#263238"/>
<path d="M179.208 72.3508C178.028 74.6225 176.232 76.6164 175.806 76.6164C175.657 76.6164 175.468 77.033 175.28 77.6084C175.02 78.3697 174.526 79.0293 173.869 79.4926C173.211 79.956 172.424 80.1992 171.619 80.1876H163.277C162.472 80.1992 161.685 79.956 161.027 79.4926C160.37 79.0293 159.876 78.3697 159.616 77.6084C159.438 77.0628 159.249 76.6164 159.09 76.6164C158.644 76.6164 156.868 74.6324 155.688 72.3508C154.507 70.0692 155.837 61.5479 156.432 58.2743C157.027 55.0007 154.507 47.898 156.432 45.0509C158.078 42.6106 176.817 42.6106 178.464 45.0509C180.389 47.898 177.879 54.9709 178.464 58.2743C179.049 61.5777 180.389 70.0791 179.208 72.3508Z" fill="#407BFF"/>
<path opacity="0.5" d="M179.208 72.3508C178.028 74.6225 176.232 76.6164 175.806 76.6164C175.657 76.6164 175.468 77.033 175.28 77.6084C175.02 78.3697 174.526 79.0293 173.869 79.4926C173.211 79.956 172.424 80.1992 171.619 80.1876H163.277C162.472 80.1992 161.685 79.956 161.027 79.4926C160.37 79.0293 159.876 78.3697 159.616 77.6084C159.438 77.0628 159.249 76.6164 159.09 76.6164C158.644 76.6164 156.868 74.6324 155.688 72.3508C154.507 70.0692 155.837 61.5479 156.432 58.2743C157.027 55.0007 154.507 47.898 156.432 45.0509C158.078 42.6106 176.817 42.6106 178.464 45.0509C180.389 47.898 177.879 54.9709 178.464 58.2743C179.049 61.5777 180.389 70.0791 179.208 72.3508Z" fill="white"/>
<path d="M170.625 39.8105H164.187L162.203 43.5405H172.609L170.625 39.8105ZM167.55 42.5286C165.913 42.5286 164.574 42.112 164.574 41.616C164.574 41.12 165.903 40.7033 167.55 40.7033C169.197 40.7033 170.526 41.1101 170.526 41.616C170.526 42.1219 169.187 42.5286 167.55 42.5286Z" fill="#407BFF"/>
<path d="M158.091 58.283C158.607 55.307 156.414 48.8887 158.091 46.3095C159.529 44.0974 175.828 44.0974 177.276 46.3095C178.943 48.8887 176.76 55.3169 177.276 58.283C177.792 61.249 178.943 68.9668 177.911 71.0302C176.879 73.0935 175.342 74.889 174.935 74.889C174.806 74.889 174.637 75.2759 174.479 75.7719C174.314 76.3023 174.019 76.7829 173.621 77.1694C173.222 77.5559 172.732 77.8361 172.197 77.9841L172.296 83.1326C172.296 83.3536 172.209 83.5655 172.052 83.7218C171.896 83.8781 171.684 83.9658 171.463 83.9658C171.241 83.9659 171.028 83.8784 170.87 83.7224C170.712 83.5664 170.623 83.3545 170.62 83.1326L170.55 79.105C170.55 78.8419 170.446 78.5896 170.26 78.4036C170.074 78.2175 169.822 78.113 169.558 78.113H169.469C169.206 78.113 168.954 78.2175 168.768 78.4036C168.582 78.5896 168.477 78.8419 168.477 79.105L168.547 83.073C168.547 83.294 168.459 83.506 168.303 83.6623C168.146 83.8185 167.934 83.9063 167.713 83.9063C167.492 83.9063 167.28 83.8185 167.124 83.6623C166.968 83.506 166.88 83.294 166.88 83.073L166.801 79.0455C166.801 78.7824 166.696 78.5301 166.51 78.3441C166.324 78.158 166.072 78.0535 165.809 78.0535H165.273C165.01 78.0535 164.758 78.158 164.572 78.3441C164.386 78.5301 164.281 78.7824 164.281 79.0455L164.36 83.0135C164.338 83.2201 164.24 83.4111 164.085 83.5499C163.93 83.6887 163.73 83.7654 163.522 83.7654C163.314 83.7654 163.114 83.6887 162.959 83.5499C162.804 83.4111 162.706 83.2201 162.684 83.0135L162.585 77.6071C162.196 77.4007 161.851 77.1191 161.572 76.7785C161.293 76.4379 161.084 76.0451 160.958 75.6231C160.799 75.1271 160.63 74.7402 160.501 74.7402C160.115 74.7402 158.567 72.9348 157.525 70.8814C156.484 68.8279 157.645 61.0903 158.16 58.1342" fill="white"/>
<path d="M174.884 53.4417C174.884 54.0963 174.368 54.4336 173.367 54.4336H171.383V50.6445H173.228C174.22 50.6445 174.666 51.0413 174.666 51.6364C174.67 51.8092 174.625 51.9795 174.535 52.1272C174.446 52.2749 174.315 52.3937 174.16 52.4696C174.371 52.5288 174.557 52.6563 174.688 52.8322C174.819 53.0081 174.888 53.2224 174.884 53.4417ZM172.285 51.3488V52.2415H173.158C173.585 52.2415 173.813 52.0828 173.813 51.7852C173.813 51.4877 173.585 51.3488 173.158 51.3488H172.285ZM174.001 53.3326C174.001 53.0152 173.763 52.8664 173.307 52.8664H172.315V53.7988H173.307C173.763 53.7988 174.001 53.6599 174.001 53.3326Z" fill="black"/>
<path d="M177.276 58.2836C177.782 61.2596 178.943 68.9674 177.911 71.0308C176.879 73.0941 175.342 74.8896 174.935 74.8896C174.806 74.8896 174.637 75.2765 174.479 75.7725C174.314 76.3029 174.019 76.7835 173.621 77.17C173.222 77.5565 172.732 77.8367 172.197 77.9847L172.296 83.1332C172.296 83.3542 172.209 83.5661 172.052 83.7224C171.896 83.8787 171.684 83.9664 171.463 83.9664C171.241 83.9665 171.028 83.879 170.87 83.723C170.712 83.567 170.623 83.3551 170.62 83.1332L170.55 79.1056C170.55 78.8425 170.446 78.5902 170.26 78.4042C170.074 78.2182 169.822 78.1136 169.558 78.1136H169.469C169.206 78.1136 168.954 78.2182 168.768 78.4042C168.582 78.5902 168.477 78.8425 168.477 79.1056L168.547 83.0736C168.547 83.2946 168.459 83.5066 168.303 83.6629C168.146 83.8191 167.934 83.9069 167.713 83.9069C167.492 83.9069 167.28 83.8191 167.124 83.6629C166.968 83.5066 166.88 83.2946 166.88 83.0736L166.801 79.0461C166.801 78.783 166.696 78.5307 166.51 78.3447C166.324 78.1586 166.072 78.0541 165.809 78.0541H165.273C165.01 78.0541 164.758 78.1586 164.572 78.3447C164.386 78.5307 164.281 78.783 164.281 79.0461L164.36 83.0141C164.338 83.2207 164.24 83.4117 164.085 83.5505C163.93 83.6893 163.73 83.766 163.522 83.766C163.314 83.766 163.114 83.6893 162.959 83.5505C162.804 83.4117 162.706 83.2207 162.684 83.0141L162.585 77.6077C162.196 77.4013 161.851 77.1197 161.572 76.7791C161.293 76.4385 161.084 76.0457 160.958 75.6237C160.799 75.1277 160.63 74.7408 160.501 74.7408C160.115 74.7408 158.567 72.9354 157.525 70.882C156.484 68.8285 157.645 61.0909 158.16 58.1348C161.104 59.7358 164.402 60.5745 167.753 60.5745C171.104 60.5745 174.402 59.7358 177.346 58.1348L177.276 58.2836Z" fill="#EA0029"/>
<path opacity="0.2" d="M162.016 81.8418H164.852V83.5776C164.85 83.8679 164.733 84.1454 164.526 84.3497C164.32 84.5541 164.042 84.6687 163.751 84.6687H163.107C162.817 84.6687 162.54 84.5537 162.335 84.3491C162.131 84.1445 162.016 83.867 162.016 83.5776V81.8418Z" fill="white"/>
<path opacity="0.2" d="M170.07 81.8418H172.897V83.5776C172.897 83.867 172.782 84.1445 172.578 84.3491C172.373 84.5537 172.096 84.6687 171.806 84.6687H171.161C170.872 84.6687 170.594 84.5537 170.39 84.3491C170.185 84.1445 170.07 83.867 170.07 83.5776V81.8418Z" fill="white"/>
<path d="M170.745 42.9776C169.738 42.975 168.773 42.5738 168.061 41.8619C167.349 41.1499 166.948 40.1851 166.945 39.1782V31.9862C166.945 31.8547 166.998 31.7285 167.091 31.6355C167.184 31.5425 167.31 31.4902 167.441 31.4902C167.573 31.4902 167.699 31.5425 167.792 31.6355C167.885 31.7285 167.937 31.8547 167.937 31.9862V39.1782C167.937 39.9228 168.233 40.6369 168.76 41.1633C169.286 41.6898 170 41.9856 170.745 41.9856C171.489 41.9856 172.203 41.6898 172.73 41.1633C173.256 40.6369 173.552 39.9228 173.552 39.1782V38.2854C173.552 38.1539 173.604 38.0277 173.697 37.9347C173.79 37.8417 173.916 37.7894 174.048 37.7894C174.18 37.7894 174.306 37.8417 174.399 37.9347C174.492 38.0277 174.544 38.1539 174.544 38.2854V39.1782C174.541 40.1851 174.14 41.1499 173.428 41.8619C172.716 42.5738 171.752 42.975 170.745 42.9776Z" fill="#407BFF"/>
<path d="M246.247 177.564H232.359C223.806 177.567 215.336 175.884 207.434 172.612C199.531 169.341 192.351 164.544 186.303 158.496C180.255 152.448 175.458 145.267 172.186 137.365C168.914 129.462 167.232 120.993 167.234 112.44V83.4336H168.226V112.44C168.224 120.862 169.881 129.203 173.103 136.985C176.325 144.767 181.049 151.838 187.005 157.794C192.96 163.75 200.031 168.474 207.814 171.696C215.596 174.918 223.936 176.575 232.359 176.572H246.247V177.564Z" fill="#EA0029"/>
<path d="M249.964 177.968H242.484L243.04 176.162H250.41L249.964 177.968Z" fill="white"/>
<path d="M249.193 175.24C247.676 175.756 246.009 178.325 245.85 179.635H244.164C244.164 178.157 245.92 175.667 247.517 175.24H249.193Z" fill="#407BFF"/>
</svg>
