<svg width="162" height="70" viewBox="0 0 162 70" fill="none" xmlns="http://www.w3.org/2000/svg">
<g clip-path="url(#clip0_7410_28285)">
<path d="M35 0C28.0777 0 21.3108 2.05271 15.555 5.89856C9.79933 9.74441 5.3133 15.2107 2.66423 21.6061C0.0151677 28.0015 -0.677953 35.0388 0.67253 41.8282C2.02301 48.6175 5.35643 54.8539 10.2513 59.7487C15.1461 64.6436 21.3825 67.977 28.1718 69.3275C34.9612 70.678 41.9985 69.9849 48.3939 67.3358C54.7893 64.6867 60.2556 60.2007 64.1015 54.445C67.9473 48.6892 70 41.9223 70 35C69.9997 25.7175 66.3122 16.8153 59.7484 10.2516C53.1847 3.68784 44.2825 0.000264244 35 0Z" fill="#AA182C"/>
<path d="M24.7274 21.1107H23.5596C21.3447 21.1107 20.1371 22.3602 20.1371 24.8561V36.8995C20.1371 40.0002 19.0889 41.0843 16.6328 41.0843C15.7103 41.085 14.8004 40.8706 13.9754 40.4581C13.1504 40.0455 12.4329 39.4463 11.88 38.7079C11.7595 38.5465 9.22266 39.7541 9.22266 42.7353C9.22266 45.9576 12.2427 47.9314 17.8414 47.9314C24.6487 47.9314 28.2337 44.5078 28.2337 37.015V24.8561C28.2337 22.3602 27.0251 21.1107 24.7284 21.1107H24.7274ZM35.2742 27.1887H34.4691C32.4952 27.1887 31.0046 28.1153 31.0046 30.9351V43.8233C31.0046 46.683 32.4554 47.5697 34.5488 47.5697H35.3549C37.3277 47.5697 38.7376 46.6023 38.7376 43.8233V30.9391C38.7376 28.0396 37.3695 27.1927 35.2731 27.1927L35.2742 27.1887ZM34.8318 17.8516C32.3348 17.8516 30.7635 19.2614 30.7635 21.4764C30.7635 23.7322 32.3746 25.1421 34.9483 25.1421C37.4452 25.1421 39.0166 23.7322 39.0166 21.4764C39.0166 19.2206 37.4054 17.8516 34.8318 17.8516ZM51.854 26.9944C45.2469 26.9944 40.8569 31.1792 40.8569 37.4265C40.8569 43.8313 45.0855 47.9404 51.7324 47.9404C58.3374 47.9404 62.6926 43.8313 62.6926 37.4664C62.6926 31.1842 58.3823 26.9944 51.859 26.9944H51.854ZM51.7773 42.0179C50.8625 42.0635 49.9551 41.8337 49.1723 41.3581C48.3895 40.8825 47.7675 40.1831 47.3865 39.3502C47.0055 38.5172 46.8832 37.5892 47.0353 36.686C47.1874 35.7828 47.607 34.946 48.2397 34.2839C48.8725 33.6217 49.6893 33.1645 50.5847 32.9715C51.48 32.7786 52.4127 32.8586 53.262 33.2014C54.1114 33.5441 54.8384 34.1338 55.349 34.8941C55.8597 35.6544 56.1305 36.5505 56.1265 37.4664C56.1563 38.0549 56.0657 38.6433 55.8603 39.1957C55.6549 39.748 55.3391 40.2526 54.9319 40.6787C54.5248 41.1047 54.0351 41.4432 53.4926 41.6735C52.9502 41.9038 52.3665 42.0209 51.7773 42.0179Z" fill="white"/>
</g>
<path d="M95.744 26.416C99.248 26.416 101 27.784 101 30.52C101 31.336 100.808 32.024 100.424 32.584C100.056 33.144 99.504 33.608 98.768 33.976V34.024C99.776 34.312 100.528 34.816 101.024 35.536C101.536 36.24 101.792 37.12 101.792 38.176C101.792 39.216 101.528 40.104 101 40.84C100.472 41.56 99.76 42.104 98.864 42.472C97.984 42.824 97.016 43 95.96 43H87.8V26.416H95.744ZM95.192 33.112C95.88 33.112 96.408 32.952 96.776 32.632C97.16 32.312 97.352 31.832 97.352 31.192C97.352 29.976 96.56 29.368 94.976 29.368H91.568V33.112H95.192ZM95.408 40.048C96.256 40.048 96.904 39.872 97.352 39.52C97.8 39.168 98.024 38.64 98.024 37.936C98.024 37.184 97.8 36.616 97.352 36.232C96.92 35.848 96.304 35.656 95.504 35.656H91.568V40.048H95.408ZM116.46 36.808C116.46 38.12 116.196 39.272 115.668 40.264C115.14 41.24 114.404 42 113.46 42.544C112.516 43.072 111.428 43.336 110.196 43.336C108.932 43.336 107.828 43.064 106.884 42.52C105.94 41.976 105.212 41.216 104.7 40.24C104.188 39.248 103.932 38.104 103.932 36.808C103.932 35.496 104.188 34.352 104.7 33.376C105.212 32.384 105.94 31.616 106.884 31.072C107.828 30.528 108.932 30.256 110.196 30.256C111.46 30.256 112.564 30.528 113.508 31.072C114.452 31.616 115.18 32.384 115.692 33.376C116.204 34.368 116.46 35.512 116.46 36.808ZM110.196 40.744C111.124 40.744 111.828 40.4 112.308 39.712C112.804 39.024 113.052 38.056 113.052 36.808C113.052 35.656 112.828 34.712 112.38 33.976C111.932 33.224 111.196 32.848 110.172 32.848C109.276 32.848 108.58 33.192 108.084 33.88C107.588 34.568 107.34 35.544 107.34 36.808C107.34 38.072 107.58 39.048 108.06 39.736C108.556 40.408 109.268 40.744 110.196 40.744ZM131.155 36.808C131.155 38.12 130.891 39.272 130.363 40.264C129.835 41.24 129.099 42 128.155 42.544C127.211 43.072 126.123 43.336 124.891 43.336C123.627 43.336 122.523 43.064 121.579 42.52C120.635 41.976 119.907 41.216 119.395 40.24C118.883 39.248 118.627 38.104 118.627 36.808C118.627 35.496 118.883 34.352 119.395 33.376C119.907 32.384 120.635 31.616 121.579 31.072C122.523 30.528 123.627 30.256 124.891 30.256C126.155 30.256 127.259 30.528 128.203 31.072C129.147 31.616 129.875 32.384 130.387 33.376C130.899 34.368 131.155 35.512 131.155 36.808ZM124.891 40.744C125.819 40.744 126.523 40.4 127.003 39.712C127.499 39.024 127.747 38.056 127.747 36.808C127.747 35.656 127.523 34.712 127.075 33.976C126.627 33.224 125.891 32.848 124.867 32.848C123.971 32.848 123.275 33.192 122.779 33.88C122.283 34.568 122.035 35.544 122.035 36.808C122.035 38.072 122.275 39.048 122.755 39.736C123.251 40.408 123.963 40.744 124.891 40.744ZM145.106 43H141.698V36.184C141.698 35.032 141.514 34.208 141.146 33.712C140.794 33.216 140.242 32.968 139.49 32.968C138.706 32.968 138.114 33.224 137.714 33.736C137.314 34.232 137.114 35.048 137.114 36.184V43H133.706V30.592H136.97V32.32H137.018C137.418 31.68 137.938 31.176 138.578 30.808C139.234 30.44 139.93 30.256 140.666 30.256C142.154 30.256 143.266 30.672 144.002 31.504C144.738 32.32 145.106 33.56 145.106 35.224V43ZM159.835 43H156.595V41.416H156.547C156.179 42.056 155.683 42.536 155.059 42.856C154.451 43.176 153.731 43.336 152.898 43.336C151.747 43.336 150.763 43.04 149.947 42.448C149.147 41.84 148.539 41.032 148.123 40.024C147.723 39.016 147.523 37.904 147.523 36.688C147.523 35.52 147.731 34.448 148.146 33.472C148.563 32.496 149.171 31.72 149.971 31.144C150.771 30.552 151.723 30.256 152.827 30.256C153.563 30.256 154.251 30.416 154.891 30.736C155.531 31.056 156.027 31.512 156.379 32.104H156.427V25.864H159.835V43ZM153.763 40.744C154.675 40.744 155.363 40.4 155.827 39.712C156.307 39.008 156.547 38.024 156.547 36.76C156.547 35.576 156.315 34.632 155.851 33.928C155.387 33.208 154.683 32.848 153.739 32.848C152.843 32.848 152.147 33.2 151.651 33.904C151.171 34.608 150.931 35.568 150.931 36.784C150.931 37.472 151.035 38.12 151.243 38.728C151.451 39.32 151.763 39.808 152.179 40.192C152.611 40.56 153.139 40.744 153.763 40.744Z" fill="#AA182C"/>
<defs>
<clipPath id="clip0_7410_28285">
<rect width="69.999" height="70" fill="white"/>
</clipPath>
</defs>
</svg>
