<svg width="164" height="70" viewBox="0 0 164 70" fill="none" xmlns="http://www.w3.org/2000/svg">
<g clip-path="url(#clip0_1070_3323)">
<path d="M35 0C28.0777 0 21.3108 2.05271 15.555 5.89856C9.79933 9.74441 5.3133 15.2107 2.66423 21.6061C0.0151677 28.0015 -0.677953 35.0388 0.67253 41.8282C2.02301 48.6175 5.35643 54.8539 10.2513 59.7487C15.1461 64.6436 21.3825 67.977 28.1718 69.3275C34.9612 70.678 41.9985 69.9849 48.3939 67.3358C54.7893 64.6867 60.2556 60.2007 64.1015 54.445C67.9473 48.6892 70 41.9223 70 35C69.9997 25.7175 66.3122 16.8153 59.7484 10.2516C53.1847 3.68784 44.2825 0.000264244 35 0Z" fill="#EA0029"/>
<path d="M24.7274 21.1107H23.5596C21.3447 21.1107 20.1371 22.3602 20.1371 24.8561V36.8995C20.1371 40.0002 19.0889 41.0843 16.6328 41.0843C15.7103 41.085 14.8004 40.8706 13.9754 40.4581C13.1504 40.0455 12.4329 39.4463 11.88 38.7079C11.7595 38.5465 9.22266 39.7541 9.22266 42.7353C9.22266 45.9576 12.2427 47.9314 17.8414 47.9314C24.6487 47.9314 28.2337 44.5078 28.2337 37.015V24.8561C28.2337 22.3602 27.0251 21.1107 24.7284 21.1107H24.7274ZM35.2742 27.1887H34.4691C32.4952 27.1887 31.0046 28.1153 31.0046 30.9351V43.8233C31.0046 46.683 32.4554 47.5697 34.5488 47.5697H35.3549C37.3277 47.5697 38.7376 46.6023 38.7376 43.8233V30.9391C38.7376 28.0396 37.3695 27.1927 35.2731 27.1927L35.2742 27.1887ZM34.8318 17.8516C32.3348 17.8516 30.7635 19.2614 30.7635 21.4764C30.7635 23.7322 32.3746 25.1421 34.9483 25.1421C37.4452 25.1421 39.0166 23.7322 39.0166 21.4764C39.0166 19.2206 37.4054 17.8516 34.8318 17.8516ZM51.854 26.9944C45.2469 26.9944 40.8569 31.1792 40.8569 37.4265C40.8569 43.8313 45.0855 47.9404 51.7324 47.9404C58.3374 47.9404 62.6926 43.8313 62.6926 37.4664C62.6926 31.1842 58.3823 26.9944 51.859 26.9944H51.854ZM51.7773 42.0179C50.8625 42.0635 49.9551 41.8337 49.1723 41.3581C48.3895 40.8825 47.7675 40.1831 47.3865 39.3502C47.0055 38.5172 46.8832 37.5892 47.0353 36.686C47.1874 35.7828 47.607 34.946 48.2397 34.2839C48.8725 33.6217 49.6893 33.1645 50.5847 32.9715C51.48 32.7786 52.4127 32.8586 53.262 33.2014C54.1114 33.5441 54.8384 34.1338 55.349 34.8941C55.8597 35.6544 56.1305 36.5505 56.1265 37.4664C56.1563 38.0549 56.0657 38.6433 55.8603 39.1957C55.6549 39.748 55.3391 40.2526 54.9319 40.6787C54.5248 41.1047 54.0351 41.4432 53.4926 41.6735C52.9502 41.9038 52.3665 42.0209 51.7773 42.0179Z" fill="white"/>
</g>
<path d="M99.456 26.416C101.152 26.416 102.456 26.752 103.368 27.424C104.296 28.096 104.76 29.12 104.76 30.496C104.76 31.344 104.544 32.072 104.112 32.68C103.68 33.288 103.072 33.744 102.288 34.048V34.096C103.312 34.336 104.096 34.816 104.64 35.536C105.2 36.256 105.48 37.144 105.48 38.2C105.48 39.24 105.224 40.12 104.712 40.84C104.216 41.56 103.528 42.104 102.648 42.472C101.768 42.824 100.76 43 99.624 43H91.848V26.416H99.456ZM99.12 33.304C99.968 33.304 100.632 33.112 101.112 32.728C101.592 32.344 101.832 31.792 101.832 31.072C101.832 30.304 101.584 29.736 101.088 29.368C100.608 29 99.896 28.816 98.952 28.816H94.848V33.304H99.12ZM99.264 40.6C101.408 40.6 102.48 39.744 102.48 38.032C102.48 37.184 102.208 36.544 101.664 36.112C101.12 35.664 100.336 35.44 99.312 35.44H94.848V40.6H99.264ZM119.746 36.808C119.746 38.088 119.498 39.224 119.002 40.216C118.506 41.192 117.794 41.96 116.866 42.52C115.954 43.064 114.898 43.336 113.698 43.336C112.466 43.336 111.386 43.056 110.458 42.496C109.546 41.936 108.842 41.168 108.346 40.192C107.866 39.2 107.626 38.072 107.626 36.808C107.626 35.528 107.874 34.392 108.37 33.4C108.866 32.408 109.57 31.64 110.482 31.096C111.394 30.536 112.466 30.256 113.698 30.256C114.93 30.256 116.002 30.536 116.914 31.096C117.826 31.656 118.522 32.432 119.002 33.424C119.498 34.416 119.746 35.544 119.746 36.808ZM113.698 41.224C114.418 41.224 115.026 41.04 115.522 40.672C116.018 40.288 116.394 39.76 116.65 39.088C116.906 38.416 117.034 37.656 117.034 36.808C117.034 36.024 116.914 35.296 116.674 34.624C116.45 33.952 116.082 33.408 115.57 32.992C115.074 32.576 114.442 32.368 113.674 32.368C112.986 32.368 112.394 32.56 111.898 32.944C111.402 33.312 111.018 33.832 110.746 34.504C110.49 35.16 110.362 35.928 110.362 36.808C110.362 37.672 110.49 38.44 110.746 39.112C111.002 39.784 111.378 40.304 111.874 40.672C112.386 41.04 112.994 41.224 113.698 41.224ZM133.996 36.808C133.996 38.088 133.748 39.224 133.252 40.216C132.756 41.192 132.044 41.96 131.116 42.52C130.204 43.064 129.148 43.336 127.948 43.336C126.716 43.336 125.636 43.056 124.708 42.496C123.796 41.936 123.092 41.168 122.596 40.192C122.116 39.2 121.876 38.072 121.876 36.808C121.876 35.528 122.124 34.392 122.62 33.4C123.116 32.408 123.82 31.64 124.732 31.096C125.644 30.536 126.716 30.256 127.948 30.256C129.18 30.256 130.252 30.536 131.164 31.096C132.076 31.656 132.772 32.432 133.252 33.424C133.748 34.416 133.996 35.544 133.996 36.808ZM127.948 41.224C128.668 41.224 129.276 41.04 129.772 40.672C130.268 40.288 130.644 39.76 130.9 39.088C131.156 38.416 131.284 37.656 131.284 36.808C131.284 36.024 131.164 35.296 130.924 34.624C130.7 33.952 130.332 33.408 129.82 32.992C129.324 32.576 128.692 32.368 127.924 32.368C127.236 32.368 126.644 32.56 126.148 32.944C125.652 33.312 125.268 33.832 124.996 34.504C124.74 35.16 124.612 35.928 124.612 36.808C124.612 37.672 124.74 38.44 124.996 39.112C125.252 39.784 125.628 40.304 126.124 40.672C126.636 41.04 127.244 41.224 127.948 41.224ZM147.406 43H144.67V35.872C144.67 34.688 144.462 33.824 144.046 33.28C143.63 32.72 142.974 32.44 142.078 32.44C141.166 32.44 140.478 32.72 140.014 33.28C139.55 33.84 139.318 34.704 139.318 35.872V43H136.582V30.592H139.222V32.392H139.27C139.638 31.72 140.134 31.2 140.758 30.832C141.382 30.448 142.094 30.256 142.894 30.256C144.43 30.256 145.566 30.664 146.302 31.48C147.038 32.296 147.406 33.512 147.406 35.128V43ZM161.834 43H159.194V41.2H159.146C158.81 41.888 158.298 42.416 157.61 42.784C156.938 43.152 156.178 43.336 155.33 43.336C154.178 43.336 153.194 43.04 152.378 42.448C151.578 41.856 150.97 41.064 150.554 40.072C150.154 39.064 149.954 37.952 149.954 36.736C149.954 35.552 150.154 34.472 150.554 33.496C150.97 32.504 151.578 31.72 152.378 31.144C153.178 30.552 154.146 30.256 155.282 30.256C156.082 30.256 156.826 30.448 157.514 30.832C158.218 31.216 158.73 31.744 159.05 32.416H159.098V25.864H161.834V43ZM155.882 41.224C156.97 41.224 157.786 40.824 158.33 40.024C158.89 39.224 159.17 38.144 159.17 36.784C159.17 35.488 158.898 34.432 158.354 33.616C157.81 32.784 156.986 32.368 155.882 32.368C155.178 32.368 154.586 32.56 154.106 32.944C153.626 33.328 153.266 33.856 153.026 34.528C152.786 35.184 152.666 35.936 152.666 36.784C152.666 37.568 152.778 38.296 153.002 38.968C153.242 39.64 153.602 40.184 154.082 40.6C154.578 41.016 155.178 41.224 155.882 41.224Z" fill="#252525"/>
<defs>
<clipPath id="clip0_1070_3323">
<rect width="69.999" height="70" fill="white"/>
</clipPath>
</defs>
</svg>
