<svg width="758" height="136" viewBox="0 0 758 136" fill="none" xmlns="http://www.w3.org/2000/svg">
<g filter="url(#filter0_d_1516_11614)">
<rect x="4" width="750" height="128" rx="20" fill="white"/>
</g>
<path d="M722.53 40.295C722.431 40.2951 722.334 40.2759 722.243 40.2383C722.152 40.2007 722.069 40.1455 722 40.076L706.75 24.826C706.613 24.6846 706.537 24.4953 706.539 24.2986C706.541 24.102 706.619 23.9138 706.758 23.7747C706.897 23.6356 707.085 23.5565 707.282 23.5547C707.479 23.5529 707.668 23.6286 707.81 23.7652L723.06 39.0152C723.165 39.1201 723.236 39.2536 723.265 39.399C723.294 39.5444 723.279 39.6951 723.222 39.8321C723.165 39.969 723.069 40.0861 722.946 40.1685C722.823 40.2509 722.678 40.2948 722.53 40.295Z" fill="#252525"/>
<path d="M707.279 40.295C707.131 40.2948 706.986 40.2509 706.863 40.1685C706.739 40.0861 706.643 39.969 706.586 39.8321C706.53 39.6951 706.515 39.5444 706.544 39.399C706.573 39.2536 706.644 39.1201 706.749 39.0152L721.999 23.7652C722.14 23.6286 722.33 23.5529 722.526 23.5547C722.723 23.5565 722.911 23.6356 723.05 23.7747C723.189 23.9138 723.268 24.102 723.269 24.2986C723.271 24.4953 723.195 24.6846 723.059 24.826L707.809 40.076C707.739 40.1455 707.657 40.2007 707.566 40.2383C707.475 40.2759 707.377 40.2951 707.279 40.295Z" fill="#252525"/>
<path d="M67.98 29C61.0616 29 54.2986 31.0519 48.5462 34.8955C42.7938 38.7392 38.3102 44.202 35.6626 50.5938C33.0151 56.9855 32.3225 64.0192 33.6722 70.8047C35.0219 77.5901 38.3534 83.8228 43.2454 88.7148C48.1375 93.6069 54.3702 96.9384 61.1557 98.2881C67.9411 99.6378 74.9745 98.9444 81.3663 96.2969C87.758 93.6493 93.2211 89.1665 97.0647 83.4141C100.908 77.6616 102.96 70.8989 102.96 63.9805C102.96 54.7033 99.2742 45.8061 92.7143 39.2461C86.1543 32.6861 77.2572 29.0003 67.98 29ZM68.216 46.7227C68.9293 46.7229 69.6266 46.9346 70.2197 47.3311C70.8127 47.7275 71.2748 48.2911 71.5477 48.9502C71.8205 49.6093 71.8919 50.3346 71.7526 51.0342C71.6133 51.7338 71.2697 52.3765 70.7652 52.8809C70.2607 53.3852 69.6179 53.7291 68.9183 53.8682C68.2186 54.0073 67.4934 53.9351 66.8344 53.6621C66.1754 53.3891 65.6122 52.9271 65.2159 52.334C64.8196 51.7408 64.608 51.0434 64.608 50.3301C64.6082 49.3734 64.9885 48.4557 65.6651 47.7793C66.3417 47.1029 67.2593 46.7227 68.216 46.7227ZM72.797 80.7617H63.6349C62.9719 80.7617 62.3361 80.4981 61.8672 80.0293C61.3984 79.5605 61.1349 78.9248 61.1349 78.2617C61.1349 77.5987 61.3984 76.963 61.8672 76.4941C62.3361 76.0253 62.9719 75.7617 63.6349 75.7617H65.7179V63.8359H63.6349C62.9719 63.8359 62.3361 63.5724 61.8672 63.1035C61.3984 62.6347 61.1349 61.999 61.1349 61.3359C61.1349 60.6729 61.3984 60.0372 61.8672 59.5684C62.3361 59.0995 62.9719 58.8359 63.6349 58.8359H68.216C68.879 58.8359 69.515 59.0995 69.9838 59.5684C70.4527 60.0372 70.716 60.6729 70.716 61.3359V75.7598H72.799C73.462 75.7598 74.098 76.0233 74.5668 76.4922C75.0357 76.961 75.299 77.5967 75.299 78.2598C75.299 78.9228 75.0357 79.5585 74.5668 80.0273C74.098 80.4962 73.462 80.7598 72.799 80.7598L72.797 80.7617Z" fill="#AA182C"/>
<path d="M123.092 75.562C124.364 75.562 125.342 75.814 126.026 76.318C126.722 76.822 127.07 77.59 127.07 78.622C127.07 79.258 126.908 79.804 126.584 80.26C126.26 80.716 125.804 81.058 125.216 81.286V81.322C125.984 81.502 126.572 81.862 126.98 82.402C127.4 82.942 127.61 83.608 127.61 84.4C127.61 85.18 127.418 85.84 127.034 86.38C126.662 86.92 126.146 87.328 125.486 87.604C124.826 87.868 124.07 88 123.218 88H117.386V75.562H123.092ZM122.84 80.728C123.476 80.728 123.974 80.584 124.334 80.296C124.694 80.008 124.874 79.594 124.874 79.054C124.874 78.478 124.688 78.052 124.316 77.776C123.956 77.5 123.422 77.362 122.714 77.362H119.636V80.728H122.84ZM122.948 86.2C124.556 86.2 125.36 85.558 125.36 84.274C125.36 83.638 125.156 83.158 124.748 82.834C124.34 82.498 123.752 82.33 122.984 82.33H119.636V86.2H122.948ZM134.962 80.422C134.746 80.374 134.5 80.35 134.224 80.35C133.36 80.35 132.706 80.626 132.262 81.178C131.83 81.73 131.614 82.462 131.614 83.374V88H129.58V78.694H131.542V80.368H131.578C131.782 79.78 132.118 79.312 132.586 78.964C133.066 78.616 133.624 78.442 134.26 78.442C134.512 78.442 134.746 78.466 134.962 78.514V80.422ZM144.726 83.356C144.726 84.316 144.54 85.168 144.168 85.912C143.796 86.644 143.262 87.22 142.566 87.64C141.882 88.048 141.09 88.252 140.19 88.252C139.266 88.252 138.456 88.042 137.76 87.622C137.076 87.202 136.548 86.626 136.176 85.894C135.816 85.15 135.636 84.304 135.636 83.356C135.636 82.396 135.822 81.544 136.194 80.8C136.566 80.056 137.094 79.48 137.778 79.072C138.462 78.652 139.266 78.442 140.19 78.442C141.114 78.442 141.918 78.652 142.602 79.072C143.286 79.492 143.808 80.074 144.168 80.818C144.54 81.562 144.726 82.408 144.726 83.356ZM140.19 86.668C140.73 86.668 141.186 86.53 141.558 86.254C141.93 85.966 142.212 85.57 142.404 85.066C142.596 84.562 142.692 83.992 142.692 83.356C142.692 82.768 142.602 82.222 142.422 81.718C142.254 81.214 141.978 80.806 141.594 80.494C141.222 80.182 140.748 80.026 140.172 80.026C139.656 80.026 139.212 80.17 138.84 80.458C138.468 80.734 138.18 81.124 137.976 81.628C137.784 82.12 137.688 82.696 137.688 83.356C137.688 84.004 137.784 84.58 137.976 85.084C138.168 85.588 138.45 85.978 138.822 86.254C139.206 86.53 139.662 86.668 140.19 86.668ZM152.335 81.88C152.335 81.22 152.197 80.722 151.921 80.386C151.657 80.038 151.189 79.864 150.517 79.864C149.353 79.864 148.717 80.284 148.609 81.124H146.575C146.623 80.56 146.815 80.074 147.151 79.666C147.487 79.258 147.949 78.952 148.537 78.748C149.125 78.532 149.815 78.424 150.607 78.424C151.879 78.424 152.821 78.712 153.433 79.288C154.057 79.864 154.369 80.758 154.369 81.97V88H152.551L152.407 86.722H152.371C152.155 87.154 151.795 87.52 151.291 87.82C150.799 88.108 150.187 88.252 149.455 88.252C148.807 88.252 148.243 88.138 147.763 87.91C147.283 87.682 146.911 87.352 146.647 86.92C146.383 86.488 146.251 85.96 146.251 85.336C146.251 84.292 146.647 83.536 147.439 83.068C148.243 82.588 149.395 82.348 150.895 82.348H152.335V81.88ZM151.183 83.626C150.235 83.626 149.515 83.746 149.023 83.986C148.543 84.226 148.303 84.64 148.303 85.228C148.303 85.72 148.453 86.092 148.753 86.344C149.053 86.584 149.461 86.704 149.977 86.704C150.421 86.704 150.823 86.614 151.183 86.434C151.543 86.242 151.825 85.966 152.029 85.606C152.233 85.234 152.335 84.802 152.335 84.31V83.626H151.183ZM165.164 88H163.184V86.65H163.148C162.896 87.166 162.512 87.562 161.996 87.838C161.492 88.114 160.922 88.252 160.286 88.252C159.422 88.252 158.684 88.03 158.072 87.586C157.472 87.142 157.016 86.548 156.704 85.804C156.404 85.048 156.254 84.214 156.254 83.302C156.254 82.414 156.404 81.604 156.704 80.872C157.016 80.128 157.472 79.54 158.072 79.108C158.672 78.664 159.398 78.442 160.25 78.442C160.85 78.442 161.408 78.586 161.924 78.874C162.452 79.162 162.836 79.558 163.076 80.062H163.112V75.148H165.164V88ZM160.7 86.668C161.516 86.668 162.128 86.368 162.536 85.768C162.956 85.168 163.166 84.358 163.166 83.338C163.166 82.366 162.962 81.574 162.554 80.962C162.146 80.338 161.528 80.026 160.7 80.026C160.172 80.026 159.728 80.17 159.368 80.458C159.008 80.746 158.738 81.142 158.558 81.646C158.378 82.138 158.288 82.702 158.288 83.338C158.288 83.926 158.372 84.472 158.54 84.976C158.72 85.48 158.99 85.888 159.35 86.2C159.722 86.512 160.172 86.668 160.7 86.668ZM173.635 81.538C173.539 81.046 173.323 80.674 172.987 80.422C172.651 80.158 172.207 80.026 171.655 80.026C171.115 80.026 170.653 80.17 170.269 80.458C169.897 80.746 169.609 81.136 169.405 81.628C169.213 82.12 169.117 82.678 169.117 83.302C169.117 83.938 169.207 84.514 169.387 85.03C169.579 85.534 169.861 85.936 170.233 86.236C170.617 86.524 171.079 86.668 171.619 86.668C172.195 86.668 172.663 86.512 173.023 86.2C173.383 85.888 173.605 85.45 173.689 84.886H175.669C175.573 85.582 175.345 86.182 174.985 86.686C174.625 87.19 174.151 87.58 173.563 87.856C172.975 88.12 172.297 88.252 171.529 88.252C170.605 88.252 169.807 88.042 169.135 87.622C168.463 87.202 167.947 86.626 167.587 85.894C167.239 85.15 167.065 84.322 167.065 83.41C167.065 82.426 167.257 81.562 167.641 80.818C168.025 80.062 168.565 79.48 169.261 79.072C169.969 78.652 170.773 78.442 171.673 78.442C172.429 78.442 173.089 78.568 173.653 78.82C174.229 79.072 174.685 79.432 175.021 79.9C175.357 80.368 175.555 80.914 175.615 81.538H173.635ZM183.132 81.88C183.132 81.22 182.994 80.722 182.718 80.386C182.454 80.038 181.986 79.864 181.314 79.864C180.15 79.864 179.514 80.284 179.406 81.124H177.372C177.42 80.56 177.612 80.074 177.948 79.666C178.284 79.258 178.746 78.952 179.334 78.748C179.922 78.532 180.612 78.424 181.404 78.424C182.676 78.424 183.618 78.712 184.23 79.288C184.854 79.864 185.166 80.758 185.166 81.97V88H183.348L183.204 86.722H183.168C182.952 87.154 182.592 87.52 182.088 87.82C181.596 88.108 180.984 88.252 180.252 88.252C179.604 88.252 179.04 88.138 178.56 87.91C178.08 87.682 177.708 87.352 177.444 86.92C177.18 86.488 177.048 85.96 177.048 85.336C177.048 84.292 177.444 83.536 178.236 83.068C179.04 82.588 180.192 82.348 181.692 82.348H183.132V81.88ZM181.98 83.626C181.032 83.626 180.312 83.746 179.82 83.986C179.34 84.226 179.1 84.64 179.1 85.228C179.1 85.72 179.25 86.092 179.55 86.344C179.85 86.584 180.258 86.704 180.774 86.704C181.218 86.704 181.62 86.614 181.98 86.434C182.34 86.242 182.622 85.966 182.826 85.606C183.03 85.234 183.132 84.802 183.132 84.31V83.626H181.98ZM192.757 81.142C192.733 80.722 192.559 80.41 192.235 80.206C191.911 79.99 191.467 79.882 190.903 79.882C190.399 79.882 189.997 79.978 189.697 80.17C189.397 80.35 189.247 80.632 189.247 81.016C189.247 81.352 189.397 81.622 189.697 81.826C189.997 82.018 190.477 82.186 191.137 82.33L192.217 82.582C193.081 82.786 193.759 83.098 194.251 83.518C194.743 83.938 194.989 84.526 194.989 85.282C194.989 85.978 194.803 86.548 194.431 86.992C194.059 87.436 193.573 87.76 192.973 87.964C192.385 88.156 191.737 88.252 191.029 88.252C189.805 88.252 188.833 88 188.113 87.496C187.393 86.992 187.015 86.254 186.979 85.282H188.923C188.947 85.774 189.151 86.152 189.535 86.416C189.931 86.68 190.441 86.812 191.065 86.812C191.581 86.812 192.025 86.704 192.397 86.488C192.769 86.26 192.955 85.93 192.955 85.498C192.955 85.126 192.805 84.826 192.505 84.598C192.205 84.37 191.731 84.184 191.083 84.04L190.003 83.788C189.031 83.572 188.323 83.266 187.879 82.87C187.435 82.462 187.213 81.904 187.213 81.196C187.213 80.584 187.375 80.074 187.699 79.666C188.035 79.258 188.485 78.952 189.049 78.748C189.625 78.544 190.273 78.442 190.993 78.442C192.121 78.442 193.003 78.676 193.639 79.144C194.287 79.612 194.641 80.278 194.701 81.142H192.757ZM199.551 78.694H201.387V80.134H199.551V84.85C199.551 85.282 199.593 85.618 199.677 85.858C199.761 86.086 199.887 86.248 200.055 86.344C200.223 86.44 200.451 86.488 200.739 86.488C200.955 86.488 201.195 86.458 201.459 86.398V87.982C201.111 88.09 200.739 88.144 200.343 88.144C199.419 88.144 198.711 87.91 198.219 87.442C197.739 86.974 197.499 86.188 197.499 85.084V80.134H195.987V78.694H197.499V75.904H199.551V78.694ZM211.697 75.562L215.027 84.85H215.063L218.303 75.562H221.489V88H219.365V78.568H219.329L215.909 88H214.091L210.671 78.604H210.635V88H208.493V75.562H211.697ZM232.271 83.86H225.593C225.617 84.724 225.845 85.414 226.277 85.93C226.709 86.434 227.321 86.686 228.113 86.686C228.689 86.686 229.157 86.566 229.517 86.326C229.889 86.086 230.129 85.768 230.237 85.372H232.091C231.851 86.308 231.383 87.022 230.687 87.514C230.003 88.006 229.121 88.252 228.041 88.252C227.117 88.252 226.313 88.048 225.629 87.64C224.957 87.232 224.441 86.662 224.081 85.93C223.733 85.186 223.559 84.328 223.559 83.356C223.559 82.444 223.739 81.616 224.099 80.872C224.459 80.128 224.975 79.54 225.647 79.108C226.319 78.664 227.099 78.442 227.987 78.442C228.899 78.442 229.673 78.658 230.309 79.09C230.957 79.522 231.443 80.116 231.767 80.872C232.103 81.628 232.271 82.492 232.271 83.464V83.86ZM230.237 82.474C230.177 81.718 229.949 81.124 229.553 80.692C229.169 80.248 228.641 80.026 227.969 80.026C227.309 80.026 226.769 80.242 226.349 80.674C225.941 81.106 225.689 81.706 225.593 82.474H230.237ZM239.41 81.142C239.386 80.722 239.212 80.41 238.888 80.206C238.564 79.99 238.12 79.882 237.556 79.882C237.052 79.882 236.65 79.978 236.35 80.17C236.05 80.35 235.9 80.632 235.9 81.016C235.9 81.352 236.05 81.622 236.35 81.826C236.65 82.018 237.13 82.186 237.79 82.33L238.87 82.582C239.734 82.786 240.412 83.098 240.904 83.518C241.396 83.938 241.642 84.526 241.642 85.282C241.642 85.978 241.456 86.548 241.084 86.992C240.712 87.436 240.226 87.76 239.626 87.964C239.038 88.156 238.39 88.252 237.682 88.252C236.458 88.252 235.486 88 234.766 87.496C234.046 86.992 233.668 86.254 233.632 85.282H235.576C235.6 85.774 235.804 86.152 236.188 86.416C236.584 86.68 237.094 86.812 237.718 86.812C238.234 86.812 238.678 86.704 239.05 86.488C239.422 86.26 239.608 85.93 239.608 85.498C239.608 85.126 239.458 84.826 239.158 84.598C238.858 84.37 238.384 84.184 237.736 84.04L236.656 83.788C235.684 83.572 234.976 83.266 234.532 82.87C234.088 82.462 233.866 81.904 233.866 81.196C233.866 80.584 234.028 80.074 234.352 79.666C234.688 79.258 235.138 78.952 235.702 78.748C236.278 78.544 236.926 78.442 237.646 78.442C238.774 78.442 239.656 78.676 240.292 79.144C240.94 79.612 241.294 80.278 241.354 81.142H239.41ZM248.832 81.142C248.808 80.722 248.634 80.41 248.31 80.206C247.986 79.99 247.542 79.882 246.978 79.882C246.474 79.882 246.072 79.978 245.772 80.17C245.472 80.35 245.322 80.632 245.322 81.016C245.322 81.352 245.472 81.622 245.772 81.826C246.072 82.018 246.552 82.186 247.212 82.33L248.292 82.582C249.156 82.786 249.834 83.098 250.326 83.518C250.818 83.938 251.064 84.526 251.064 85.282C251.064 85.978 250.878 86.548 250.506 86.992C250.134 87.436 249.648 87.76 249.048 87.964C248.46 88.156 247.812 88.252 247.104 88.252C245.88 88.252 244.908 88 244.188 87.496C243.468 86.992 243.09 86.254 243.054 85.282H244.998C245.022 85.774 245.226 86.152 245.61 86.416C246.006 86.68 246.516 86.812 247.14 86.812C247.656 86.812 248.1 86.704 248.472 86.488C248.844 86.26 249.03 85.93 249.03 85.498C249.03 85.126 248.88 84.826 248.58 84.598C248.28 84.37 247.806 84.184 247.158 84.04L246.078 83.788C245.106 83.572 244.398 83.266 243.954 82.87C243.51 82.462 243.288 81.904 243.288 81.196C243.288 80.584 243.45 80.074 243.774 79.666C244.11 79.258 244.56 78.952 245.124 78.748C245.7 78.544 246.348 78.442 247.068 78.442C248.196 78.442 249.078 78.676 249.714 79.144C250.362 79.612 250.716 80.278 250.776 81.142H248.832ZM258.577 81.88C258.577 81.22 258.439 80.722 258.163 80.386C257.899 80.038 257.431 79.864 256.759 79.864C255.595 79.864 254.959 80.284 254.851 81.124H252.817C252.865 80.56 253.057 80.074 253.393 79.666C253.729 79.258 254.191 78.952 254.779 78.748C255.367 78.532 256.057 78.424 256.849 78.424C258.121 78.424 259.063 78.712 259.675 79.288C260.299 79.864 260.611 80.758 260.611 81.97V88H258.793L258.649 86.722H258.613C258.397 87.154 258.037 87.52 257.533 87.82C257.041 88.108 256.429 88.252 255.697 88.252C255.049 88.252 254.485 88.138 254.005 87.91C253.525 87.682 253.153 87.352 252.889 86.92C252.625 86.488 252.493 85.96 252.493 85.336C252.493 84.292 252.889 83.536 253.681 83.068C254.485 82.588 255.637 82.348 257.137 82.348H258.577V81.88ZM257.425 83.626C256.477 83.626 255.757 83.746 255.265 83.986C254.785 84.226 254.545 84.64 254.545 85.228C254.545 85.72 254.695 86.092 254.995 86.344C255.295 86.584 255.703 86.704 256.219 86.704C256.663 86.704 257.065 86.614 257.425 86.434C257.785 86.242 258.067 85.966 258.271 85.606C258.475 85.234 258.577 84.802 258.577 84.31V83.626H257.425ZM269.229 80.08V78.694H271.209V87.37C271.209 88.714 270.837 89.752 270.093 90.484C269.349 91.228 268.233 91.6 266.745 91.6C266.001 91.6 265.341 91.498 264.765 91.294C264.201 91.102 263.745 90.814 263.397 90.43C263.049 90.046 262.851 89.572 262.803 89.008H264.837C264.921 89.404 265.137 89.692 265.485 89.872C265.833 90.052 266.295 90.142 266.871 90.142C267.651 90.142 268.239 89.914 268.635 89.458C269.031 89.014 269.229 88.372 269.229 87.532V86.47H269.193C268.941 86.974 268.569 87.376 268.077 87.676C267.597 87.964 267.051 88.108 266.439 88.108C265.587 88.108 264.867 87.91 264.279 87.514C263.691 87.106 263.247 86.536 262.947 85.804C262.659 85.072 262.515 84.22 262.515 83.248C262.515 82.372 262.671 81.568 262.983 80.836C263.295 80.104 263.751 79.522 264.351 79.09C264.951 78.658 265.653 78.442 266.457 78.442C267.093 78.442 267.645 78.586 268.113 78.874C268.581 79.162 268.941 79.564 269.193 80.08H269.229ZM264.567 83.266C264.567 83.878 264.645 84.43 264.801 84.922C264.969 85.402 265.227 85.792 265.575 86.092C265.923 86.38 266.355 86.524 266.871 86.524C267.363 86.524 267.783 86.386 268.131 86.11C268.491 85.834 268.761 85.462 268.941 84.994C269.133 84.514 269.229 83.98 269.229 83.392C269.229 82.816 269.151 82.276 268.995 81.772C268.851 81.256 268.599 80.836 268.239 80.512C267.891 80.188 267.429 80.026 266.853 80.026C266.373 80.026 265.959 80.164 265.611 80.44C265.275 80.716 265.017 81.1 264.837 81.592C264.657 82.072 264.567 82.63 264.567 83.266ZM281.824 83.86H275.146C275.17 84.724 275.398 85.414 275.83 85.93C276.262 86.434 276.874 86.686 277.666 86.686C278.242 86.686 278.71 86.566 279.07 86.326C279.442 86.086 279.682 85.768 279.79 85.372H281.644C281.404 86.308 280.936 87.022 280.24 87.514C279.556 88.006 278.674 88.252 277.594 88.252C276.67 88.252 275.866 88.048 275.182 87.64C274.51 87.232 273.994 86.662 273.634 85.93C273.286 85.186 273.112 84.328 273.112 83.356C273.112 82.444 273.292 81.616 273.652 80.872C274.012 80.128 274.528 79.54 275.2 79.108C275.872 78.664 276.652 78.442 277.54 78.442C278.452 78.442 279.226 78.658 279.862 79.09C280.51 79.522 280.996 80.116 281.32 80.872C281.656 81.628 281.824 82.492 281.824 83.464V83.86ZM279.79 82.474C279.73 81.718 279.502 81.124 279.106 80.692C278.722 80.248 278.194 80.026 277.522 80.026C276.862 80.026 276.322 80.242 275.902 80.674C275.494 81.106 275.242 81.706 275.146 82.474H279.79ZM290.907 80.044H290.943C291.207 79.54 291.573 79.15 292.041 78.874C292.509 78.586 293.037 78.442 293.625 78.442C294.765 78.442 295.605 78.748 296.145 79.36C296.697 79.972 296.973 80.884 296.973 82.096V88H294.939V82.654C294.939 81.766 294.777 81.118 294.453 80.71C294.141 80.29 293.649 80.08 292.977 80.08C292.293 80.08 291.777 80.29 291.429 80.71C291.081 81.13 290.907 81.778 290.907 82.654V88H288.855V75.148H290.907V80.044ZM304.913 81.88C304.913 81.22 304.775 80.722 304.499 80.386C304.235 80.038 303.767 79.864 303.095 79.864C301.931 79.864 301.295 80.284 301.187 81.124H299.153C299.201 80.56 299.393 80.074 299.729 79.666C300.065 79.258 300.527 78.952 301.115 78.748C301.703 78.532 302.393 78.424 303.185 78.424C304.457 78.424 305.399 78.712 306.011 79.288C306.635 79.864 306.947 80.758 306.947 81.97V88H305.129L304.985 86.722H304.949C304.733 87.154 304.373 87.52 303.869 87.82C303.377 88.108 302.765 88.252 302.033 88.252C301.385 88.252 300.821 88.138 300.341 87.91C299.861 87.682 299.489 87.352 299.225 86.92C298.961 86.488 298.829 85.96 298.829 85.336C298.829 84.292 299.225 83.536 300.017 83.068C300.821 82.588 301.973 82.348 303.473 82.348H304.913V81.88ZM303.761 83.626C302.813 83.626 302.093 83.746 301.601 83.986C301.121 84.226 300.881 84.64 300.881 85.228C300.881 85.72 301.031 86.092 301.331 86.344C301.631 86.584 302.039 86.704 302.555 86.704C302.999 86.704 303.401 86.614 303.761 86.434C304.121 86.242 304.403 85.966 304.607 85.606C304.811 85.234 304.913 84.802 304.913 84.31V83.626H303.761ZM314.539 81.142C314.515 80.722 314.341 80.41 314.017 80.206C313.693 79.99 313.249 79.882 312.685 79.882C312.181 79.882 311.779 79.978 311.479 80.17C311.179 80.35 311.029 80.632 311.029 81.016C311.029 81.352 311.179 81.622 311.479 81.826C311.779 82.018 312.259 82.186 312.919 82.33L313.999 82.582C314.863 82.786 315.541 83.098 316.033 83.518C316.525 83.938 316.771 84.526 316.771 85.282C316.771 85.978 316.585 86.548 316.213 86.992C315.841 87.436 315.355 87.76 314.755 87.964C314.167 88.156 313.519 88.252 312.811 88.252C311.587 88.252 310.615 88 309.895 87.496C309.175 86.992 308.797 86.254 308.761 85.282H310.705C310.729 85.774 310.933 86.152 311.317 86.416C311.713 86.68 312.223 86.812 312.847 86.812C313.363 86.812 313.807 86.704 314.179 86.488C314.551 86.26 314.737 85.93 314.737 85.498C314.737 85.126 314.587 84.826 314.287 84.598C313.987 84.37 313.513 84.184 312.865 84.04L311.785 83.788C310.813 83.572 310.105 83.266 309.661 82.87C309.217 82.462 308.995 81.904 308.995 81.196C308.995 80.584 309.157 80.074 309.481 79.666C309.817 79.258 310.267 78.952 310.831 78.748C311.407 78.544 312.055 78.442 312.775 78.442C313.903 78.442 314.785 78.676 315.421 79.144C316.069 79.612 316.423 80.278 316.483 81.142H314.539ZM325.905 80.062H325.941C326.193 79.57 326.583 79.18 327.111 78.892C327.639 78.592 328.227 78.442 328.875 78.442C329.595 78.442 330.249 78.634 330.837 79.018C331.425 79.402 331.887 79.966 332.223 80.71C332.559 81.442 332.727 82.318 332.727 83.338C332.727 84.334 332.559 85.204 332.223 85.948C331.899 86.692 331.443 87.262 330.855 87.658C330.279 88.054 329.613 88.252 328.857 88.252C328.149 88.252 327.537 88.114 327.021 87.838C326.505 87.562 326.121 87.166 325.869 86.65H325.833V88H323.871V75.148H325.905V80.062ZM325.851 83.356C325.851 83.98 325.941 84.544 326.121 85.048C326.301 85.54 326.577 85.936 326.949 86.236C327.321 86.524 327.771 86.668 328.299 86.668C328.815 86.668 329.253 86.518 329.613 86.218C329.973 85.918 330.237 85.522 330.405 85.03C330.585 84.526 330.675 83.968 330.675 83.356C330.675 82.744 330.585 82.186 330.405 81.682C330.237 81.178 329.973 80.776 329.613 80.476C329.253 80.176 328.809 80.026 328.281 80.026C327.765 80.026 327.321 80.17 326.949 80.458C326.589 80.734 326.313 81.124 326.121 81.628C325.941 82.132 325.851 82.708 325.851 83.356ZM342.926 83.86H336.248C336.272 84.724 336.5 85.414 336.932 85.93C337.364 86.434 337.976 86.686 338.768 86.686C339.344 86.686 339.812 86.566 340.172 86.326C340.544 86.086 340.784 85.768 340.892 85.372H342.746C342.506 86.308 342.038 87.022 341.342 87.514C340.658 88.006 339.776 88.252 338.696 88.252C337.772 88.252 336.968 88.048 336.284 87.64C335.612 87.232 335.096 86.662 334.736 85.93C334.388 85.186 334.214 84.328 334.214 83.356C334.214 82.444 334.394 81.616 334.754 80.872C335.114 80.128 335.63 79.54 336.302 79.108C336.974 78.664 337.754 78.442 338.642 78.442C339.554 78.442 340.328 78.658 340.964 79.09C341.612 79.522 342.098 80.116 342.422 80.872C342.758 81.628 342.926 82.492 342.926 83.464V83.86ZM340.892 82.474C340.832 81.718 340.604 81.124 340.208 80.692C339.824 80.248 339.296 80.026 338.624 80.026C337.964 80.026 337.424 80.242 337.004 80.674C336.596 81.106 336.344 81.706 336.248 82.474H340.892ZM352.998 83.86H346.32C346.344 84.724 346.572 85.414 347.004 85.93C347.436 86.434 348.048 86.686 348.84 86.686C349.416 86.686 349.884 86.566 350.244 86.326C350.616 86.086 350.856 85.768 350.964 85.372H352.818C352.578 86.308 352.11 87.022 351.414 87.514C350.73 88.006 349.848 88.252 348.768 88.252C347.844 88.252 347.04 88.048 346.356 87.64C345.684 87.232 345.168 86.662 344.808 85.93C344.46 85.186 344.286 84.328 344.286 83.356C344.286 82.444 344.466 81.616 344.826 80.872C345.186 80.128 345.702 79.54 346.374 79.108C347.046 78.664 347.826 78.442 348.714 78.442C349.626 78.442 350.4 78.658 351.036 79.09C351.684 79.522 352.17 80.116 352.494 80.872C352.83 81.628 352.998 82.492 352.998 83.464V83.86ZM350.964 82.474C350.904 81.718 350.676 81.124 350.28 80.692C349.896 80.248 349.368 80.026 348.696 80.026C348.036 80.026 347.496 80.242 347.076 80.674C346.668 81.106 346.416 81.706 346.32 82.474H350.964ZM362.908 88H360.856V82.654C360.856 81.766 360.7 81.118 360.388 80.71C360.076 80.29 359.584 80.08 358.912 80.08C358.228 80.08 357.712 80.29 357.364 80.71C357.016 81.13 356.842 81.778 356.842 82.654V88H354.79V78.694H356.77V80.044H356.806C357.082 79.54 357.454 79.15 357.922 78.874C358.39 78.586 358.924 78.442 359.524 78.442C360.676 78.442 361.528 78.748 362.08 79.36C362.632 79.972 362.908 80.884 362.908 82.096V88ZM375.763 81.142C375.739 80.722 375.565 80.41 375.241 80.206C374.917 79.99 374.473 79.882 373.909 79.882C373.405 79.882 373.003 79.978 372.703 80.17C372.403 80.35 372.253 80.632 372.253 81.016C372.253 81.352 372.403 81.622 372.703 81.826C373.003 82.018 373.483 82.186 374.143 82.33L375.223 82.582C376.087 82.786 376.765 83.098 377.257 83.518C377.749 83.938 377.995 84.526 377.995 85.282C377.995 85.978 377.809 86.548 377.437 86.992C377.065 87.436 376.579 87.76 375.979 87.964C375.391 88.156 374.743 88.252 374.035 88.252C372.811 88.252 371.839 88 371.119 87.496C370.399 86.992 370.021 86.254 369.985 85.282H371.929C371.953 85.774 372.157 86.152 372.541 86.416C372.937 86.68 373.447 86.812 374.071 86.812C374.587 86.812 375.031 86.704 375.403 86.488C375.775 86.26 375.961 85.93 375.961 85.498C375.961 85.126 375.811 84.826 375.511 84.598C375.211 84.37 374.737 84.184 374.089 84.04L373.009 83.788C372.037 83.572 371.329 83.266 370.885 82.87C370.441 82.462 370.219 81.904 370.219 81.196C370.219 80.584 370.381 80.074 370.705 79.666C371.041 79.258 371.491 78.952 372.055 78.748C372.631 78.544 373.279 78.442 373.999 78.442C375.127 78.442 376.009 78.676 376.645 79.144C377.293 79.612 377.647 80.278 377.707 81.142H375.763ZM381.891 84.04C381.891 84.928 382.047 85.582 382.359 86.002C382.671 86.41 383.163 86.614 383.835 86.614C384.519 86.614 385.035 86.404 385.383 85.984C385.731 85.564 385.905 84.916 385.905 84.04V78.694H387.957V88H385.977V86.668H385.941C385.677 87.172 385.305 87.562 384.825 87.838C384.357 88.114 383.823 88.252 383.223 88.252C380.967 88.252 379.839 87.034 379.839 84.598V78.694H381.891V84.04ZM396.456 81.538C396.36 81.046 396.144 80.674 395.808 80.422C395.472 80.158 395.028 80.026 394.476 80.026C393.936 80.026 393.474 80.17 393.09 80.458C392.718 80.746 392.43 81.136 392.226 81.628C392.034 82.12 391.938 82.678 391.938 83.302C391.938 83.938 392.028 84.514 392.208 85.03C392.4 85.534 392.682 85.936 393.054 86.236C393.438 86.524 393.9 86.668 394.44 86.668C395.016 86.668 395.484 86.512 395.844 86.2C396.204 85.888 396.426 85.45 396.51 84.886H398.49C398.394 85.582 398.166 86.182 397.806 86.686C397.446 87.19 396.972 87.58 396.384 87.856C395.796 88.12 395.118 88.252 394.35 88.252C393.426 88.252 392.628 88.042 391.956 87.622C391.284 87.202 390.768 86.626 390.408 85.894C390.06 85.15 389.886 84.322 389.886 83.41C389.886 82.426 390.078 81.562 390.462 80.818C390.846 80.062 391.386 79.48 392.082 79.072C392.79 78.652 393.594 78.442 394.494 78.442C395.25 78.442 395.91 78.568 396.474 78.82C397.05 79.072 397.506 79.432 397.842 79.9C398.178 80.368 398.376 80.914 398.436 81.538H396.456ZM406.51 81.538C406.414 81.046 406.198 80.674 405.862 80.422C405.526 80.158 405.082 80.026 404.53 80.026C403.99 80.026 403.528 80.17 403.144 80.458C402.772 80.746 402.484 81.136 402.28 81.628C402.088 82.12 401.992 82.678 401.992 83.302C401.992 83.938 402.082 84.514 402.262 85.03C402.454 85.534 402.736 85.936 403.108 86.236C403.492 86.524 403.954 86.668 404.494 86.668C405.07 86.668 405.538 86.512 405.898 86.2C406.258 85.888 406.48 85.45 406.564 84.886H408.544C408.448 85.582 408.22 86.182 407.86 86.686C407.5 87.19 407.026 87.58 406.438 87.856C405.85 88.12 405.172 88.252 404.404 88.252C403.48 88.252 402.682 88.042 402.01 87.622C401.338 87.202 400.822 86.626 400.462 85.894C400.114 85.15 399.94 84.322 399.94 83.41C399.94 82.426 400.132 81.562 400.516 80.818C400.9 80.062 401.44 79.48 402.136 79.072C402.844 78.652 403.648 78.442 404.548 78.442C405.304 78.442 405.964 78.568 406.528 78.82C407.104 79.072 407.56 79.432 407.896 79.9C408.232 80.368 408.43 80.914 408.49 81.538H406.51ZM418.617 83.86H411.939C411.963 84.724 412.191 85.414 412.623 85.93C413.055 86.434 413.667 86.686 414.459 86.686C415.035 86.686 415.503 86.566 415.863 86.326C416.235 86.086 416.475 85.768 416.583 85.372H418.437C418.197 86.308 417.729 87.022 417.033 87.514C416.349 88.006 415.467 88.252 414.387 88.252C413.463 88.252 412.659 88.048 411.975 87.64C411.303 87.232 410.787 86.662 410.427 85.93C410.079 85.186 409.905 84.328 409.905 83.356C409.905 82.444 410.085 81.616 410.445 80.872C410.805 80.128 411.321 79.54 411.993 79.108C412.665 78.664 413.445 78.442 414.333 78.442C415.245 78.442 416.019 78.658 416.655 79.09C417.303 79.522 417.789 80.116 418.113 80.872C418.449 81.628 418.617 82.492 418.617 83.464V83.86ZM416.583 82.474C416.523 81.718 416.295 81.124 415.899 80.692C415.515 80.248 414.987 80.026 414.315 80.026C413.655 80.026 413.115 80.242 412.695 80.674C412.287 81.106 412.035 81.706 411.939 82.474H416.583ZM425.755 81.142C425.731 80.722 425.557 80.41 425.233 80.206C424.909 79.99 424.465 79.882 423.901 79.882C423.397 79.882 422.995 79.978 422.695 80.17C422.395 80.35 422.245 80.632 422.245 81.016C422.245 81.352 422.395 81.622 422.695 81.826C422.995 82.018 423.475 82.186 424.135 82.33L425.215 82.582C426.079 82.786 426.757 83.098 427.249 83.518C427.741 83.938 427.987 84.526 427.987 85.282C427.987 85.978 427.801 86.548 427.429 86.992C427.057 87.436 426.571 87.76 425.971 87.964C425.383 88.156 424.735 88.252 424.027 88.252C422.803 88.252 421.831 88 421.111 87.496C420.391 86.992 420.013 86.254 419.977 85.282H421.921C421.945 85.774 422.149 86.152 422.533 86.416C422.929 86.68 423.439 86.812 424.063 86.812C424.579 86.812 425.023 86.704 425.395 86.488C425.767 86.26 425.953 85.93 425.953 85.498C425.953 85.126 425.803 84.826 425.503 84.598C425.203 84.37 424.729 84.184 424.081 84.04L423.001 83.788C422.029 83.572 421.321 83.266 420.877 82.87C420.433 82.462 420.211 81.904 420.211 81.196C420.211 80.584 420.373 80.074 420.697 79.666C421.033 79.258 421.483 78.952 422.047 78.748C422.623 78.544 423.271 78.442 423.991 78.442C425.119 78.442 426.001 78.676 426.637 79.144C427.285 79.612 427.639 80.278 427.699 81.142H425.755ZM435.177 81.142C435.153 80.722 434.979 80.41 434.655 80.206C434.331 79.99 433.887 79.882 433.323 79.882C432.819 79.882 432.417 79.978 432.117 80.17C431.817 80.35 431.667 80.632 431.667 81.016C431.667 81.352 431.817 81.622 432.117 81.826C432.417 82.018 432.897 82.186 433.557 82.33L434.637 82.582C435.501 82.786 436.179 83.098 436.671 83.518C437.163 83.938 437.409 84.526 437.409 85.282C437.409 85.978 437.223 86.548 436.851 86.992C436.479 87.436 435.993 87.76 435.393 87.964C434.805 88.156 434.157 88.252 433.449 88.252C432.225 88.252 431.253 88 430.533 87.496C429.813 86.992 429.435 86.254 429.399 85.282H431.343C431.367 85.774 431.571 86.152 431.955 86.416C432.351 86.68 432.861 86.812 433.485 86.812C434.001 86.812 434.445 86.704 434.817 86.488C435.189 86.26 435.375 85.93 435.375 85.498C435.375 85.126 435.225 84.826 434.925 84.598C434.625 84.37 434.151 84.184 433.503 84.04L432.423 83.788C431.451 83.572 430.743 83.266 430.299 82.87C429.855 82.462 429.633 81.904 429.633 81.196C429.633 80.584 429.795 80.074 430.119 79.666C430.455 79.258 430.905 78.952 431.469 78.748C432.045 78.544 432.693 78.442 433.413 78.442C434.541 78.442 435.423 78.676 436.059 79.144C436.707 79.612 437.061 80.278 437.121 81.142H435.177ZM439.829 80.134H438.335V78.694H439.829V78.226C439.829 77.578 439.961 77.02 440.225 76.552C440.489 76.072 440.861 75.706 441.341 75.454C441.821 75.202 442.373 75.076 442.997 75.076C443.309 75.076 443.609 75.112 443.897 75.184V76.75C443.873 76.75 443.801 76.738 443.681 76.714C443.561 76.678 443.411 76.66 443.231 76.66C442.763 76.66 442.415 76.804 442.187 77.092C441.971 77.368 441.863 77.794 441.863 78.37V78.694H443.609V80.134H441.881V88H439.829V80.134ZM447.053 84.04C447.053 84.928 447.209 85.582 447.521 86.002C447.833 86.41 448.325 86.614 448.997 86.614C449.681 86.614 450.197 86.404 450.545 85.984C450.893 85.564 451.067 84.916 451.067 84.04V78.694H453.119V88H451.139V86.668H451.103C450.839 87.172 450.467 87.562 449.987 87.838C449.519 88.114 448.985 88.252 448.385 88.252C446.129 88.252 445.001 87.034 445.001 84.598V78.694H447.053V84.04ZM457.496 75.148V88H455.444V75.148H457.496ZM461.926 75.148V88H459.874V75.148H461.926ZM467.723 85.624H467.759L470.009 78.694H472.115L468.785 87.91C468.449 88.882 468.041 89.626 467.561 90.142C467.081 90.67 466.565 91.024 466.013 91.204C465.461 91.396 464.837 91.504 464.141 91.528V89.818C464.825 89.794 465.359 89.638 465.743 89.35C466.139 89.074 466.451 88.618 466.679 87.982L463.223 78.694H465.401L467.723 85.624ZM483.921 81.142C483.897 80.722 483.723 80.41 483.399 80.206C483.075 79.99 482.631 79.882 482.067 79.882C481.563 79.882 481.161 79.978 480.861 80.17C480.561 80.35 480.411 80.632 480.411 81.016C480.411 81.352 480.561 81.622 480.861 81.826C481.161 82.018 481.641 82.186 482.301 82.33L483.381 82.582C484.245 82.786 484.923 83.098 485.415 83.518C485.907 83.938 486.153 84.526 486.153 85.282C486.153 85.978 485.967 86.548 485.595 86.992C485.223 87.436 484.737 87.76 484.137 87.964C483.549 88.156 482.901 88.252 482.193 88.252C480.969 88.252 479.997 88 479.277 87.496C478.557 86.992 478.179 86.254 478.143 85.282H480.087C480.111 85.774 480.315 86.152 480.699 86.416C481.095 86.68 481.605 86.812 482.229 86.812C482.745 86.812 483.189 86.704 483.561 86.488C483.933 86.26 484.119 85.93 484.119 85.498C484.119 85.126 483.969 84.826 483.669 84.598C483.369 84.37 482.895 84.184 482.247 84.04L481.167 83.788C480.195 83.572 479.487 83.266 479.043 82.87C478.599 82.462 478.377 81.904 478.377 81.196C478.377 80.584 478.539 80.074 478.863 79.666C479.199 79.258 479.649 78.952 480.213 78.748C480.789 78.544 481.437 78.442 482.157 78.442C483.285 78.442 484.167 78.676 484.803 79.144C485.451 79.612 485.805 80.278 485.865 81.142H483.921ZM496.277 83.86H489.599C489.623 84.724 489.851 85.414 490.283 85.93C490.715 86.434 491.327 86.686 492.119 86.686C492.695 86.686 493.163 86.566 493.523 86.326C493.895 86.086 494.135 85.768 494.243 85.372H496.097C495.857 86.308 495.389 87.022 494.693 87.514C494.009 88.006 493.127 88.252 492.047 88.252C491.123 88.252 490.319 88.048 489.635 87.64C488.963 87.232 488.447 86.662 488.087 85.93C487.739 85.186 487.565 84.328 487.565 83.356C487.565 82.444 487.745 81.616 488.105 80.872C488.465 80.128 488.981 79.54 489.653 79.108C490.325 78.664 491.105 78.442 491.993 78.442C492.905 78.442 493.679 78.658 494.315 79.09C494.963 79.522 495.449 80.116 495.773 80.872C496.109 81.628 496.277 82.492 496.277 83.464V83.86ZM494.243 82.474C494.183 81.718 493.955 81.124 493.559 80.692C493.175 80.248 492.647 80.026 491.975 80.026C491.315 80.026 490.775 80.242 490.355 80.674C489.947 81.106 489.695 81.706 489.599 82.474H494.243ZM506.188 88H504.136V82.654C504.136 81.766 503.98 81.118 503.668 80.71C503.356 80.29 502.864 80.08 502.192 80.08C501.508 80.08 500.992 80.29 500.644 80.71C500.296 81.13 500.122 81.778 500.122 82.654V88H498.07V78.694H500.05V80.044H500.086C500.362 79.54 500.734 79.15 501.202 78.874C501.67 78.586 502.204 78.442 502.804 78.442C503.956 78.442 504.808 78.748 505.36 79.36C505.912 79.972 506.188 80.884 506.188 82.096V88ZM511.176 78.694H513.012V80.134H511.176V84.85C511.176 85.282 511.218 85.618 511.302 85.858C511.386 86.086 511.512 86.248 511.68 86.344C511.848 86.44 512.076 86.488 512.364 86.488C512.58 86.488 512.82 86.458 513.084 86.398V87.982C512.736 88.09 512.364 88.144 511.968 88.144C511.044 88.144 510.336 87.91 509.844 87.442C509.364 86.974 509.124 86.188 509.124 85.084V80.134H507.612V78.694H509.124V75.904H511.176V78.694ZM516.086 85.318C516.35 85.318 516.584 85.378 516.788 85.498C516.992 85.618 517.154 85.786 517.274 86.002C517.394 86.206 517.454 86.44 517.454 86.704C517.454 86.956 517.394 87.19 517.274 87.406C517.154 87.61 516.992 87.772 516.788 87.892C516.584 88.012 516.35 88.072 516.086 88.072C515.822 88.072 515.588 88.012 515.384 87.892C515.18 87.772 515.018 87.61 514.898 87.406C514.79 87.19 514.736 86.956 514.736 86.704C514.736 86.44 514.796 86.206 514.916 86.002C515.036 85.786 515.198 85.618 515.402 85.498C515.606 85.378 515.834 85.318 516.086 85.318Z" fill="#707070"/>
<path d="M130.72 42.68C130.635 41.6347 130.187 40.856 129.376 40.344C128.587 39.8107 127.456 39.544 125.984 39.544C124.747 39.544 123.733 39.8 122.944 40.312C122.155 40.8027 121.76 41.5387 121.76 42.52C121.76 43.0747 121.856 43.5333 122.048 43.896C122.261 44.2373 122.592 44.5253 123.04 44.76C123.488 44.9733 124.107 45.176 124.896 45.368L128.576 46.296C130.005 46.6587 131.2 47.0853 132.16 47.576C133.141 48.0453 133.92 48.696 134.496 49.528C135.093 50.36 135.392 51.4053 135.392 52.664C135.392 53.9013 135.072 55.0427 134.432 56.088C133.813 57.112 132.821 57.944 131.456 58.584C130.112 59.2027 128.427 59.512 126.4 59.512C124.672 59.512 123.115 59.2667 121.728 58.776C120.341 58.2853 119.232 57.5387 118.4 56.536C117.589 55.512 117.184 54.264 117.184 52.792V52.6H121.088V52.696C121.088 53.976 121.589 54.904 122.592 55.48C123.616 56.056 124.949 56.344 126.592 56.344C128 56.344 129.163 56.088 130.08 55.576C131.019 55.0427 131.488 54.232 131.488 53.144C131.488 52.312 131.168 51.64 130.528 51.128C129.909 50.616 128.896 50.168 127.488 49.784L123.008 48.632C121.237 48.184 119.947 47.4907 119.136 46.552C118.325 45.6133 117.92 44.408 117.92 42.936C117.92 41.6773 118.261 40.5573 118.944 39.576C119.627 38.5733 120.587 37.7947 121.824 37.24C123.061 36.664 124.491 36.376 126.112 36.376C127.712 36.376 129.141 36.6107 130.4 37.08C131.68 37.5493 132.693 38.2533 133.44 39.192C134.208 40.1307 134.603 41.2933 134.624 42.68H130.72ZM142.195 51.96C142.195 53.5387 142.473 54.7013 143.027 55.448C143.582 56.1733 144.457 56.536 145.651 56.536C146.867 56.536 147.785 56.1627 148.403 55.416C149.022 54.6693 149.331 53.5173 149.331 51.96V42.456H152.979V59H149.459V56.632H149.395C148.926 57.528 148.265 58.2213 147.411 58.712C146.579 59.2027 145.63 59.448 144.563 59.448C140.553 59.448 138.547 57.2827 138.547 52.952V42.456H142.195V51.96ZM168.088 47.512C167.917 46.6373 167.533 45.976 166.936 45.528C166.339 45.0587 165.549 44.824 164.568 44.824C163.608 44.824 162.787 45.08 162.104 45.592C161.443 46.104 160.931 46.7973 160.568 47.672C160.227 48.5467 160.056 49.5387 160.056 50.648C160.056 51.7787 160.216 52.8027 160.536 53.72C160.877 54.616 161.379 55.3307 162.04 55.864C162.723 56.376 163.544 56.632 164.504 56.632C165.528 56.632 166.36 56.3547 167 55.8C167.64 55.2453 168.035 54.4667 168.184 53.464H171.704C171.533 54.7013 171.128 55.768 170.488 56.664C169.848 57.56 169.005 58.2533 167.96 58.744C166.915 59.2133 165.709 59.448 164.344 59.448C162.701 59.448 161.283 59.0747 160.088 58.328C158.893 57.5813 157.976 56.5573 157.336 55.256C156.717 53.9333 156.408 52.4613 156.408 50.84C156.408 49.0907 156.749 47.5547 157.432 46.232C158.115 44.888 159.075 43.8533 160.312 43.128C161.571 42.3813 163 42.008 164.6 42.008C165.944 42.008 167.117 42.232 168.12 42.68C169.144 43.128 169.955 43.768 170.552 44.6C171.149 45.432 171.501 46.4027 171.608 47.512H168.088ZM185.963 47.512C185.792 46.6373 185.408 45.976 184.811 45.528C184.214 45.0587 183.424 44.824 182.443 44.824C181.483 44.824 180.662 45.08 179.979 45.592C179.318 46.104 178.806 46.7973 178.443 47.672C178.102 48.5467 177.931 49.5387 177.931 50.648C177.931 51.7787 178.091 52.8027 178.411 53.72C178.752 54.616 179.254 55.3307 179.915 55.864C180.598 56.376 181.419 56.632 182.379 56.632C183.403 56.632 184.235 56.3547 184.875 55.8C185.515 55.2453 185.91 54.4667 186.059 53.464H189.579C189.408 54.7013 189.003 55.768 188.363 56.664C187.723 57.56 186.88 58.2533 185.835 58.744C184.79 59.2133 183.584 59.448 182.219 59.448C180.576 59.448 179.158 59.0747 177.963 58.328C176.768 57.5813 175.851 56.5573 175.211 55.256C174.592 53.9333 174.283 52.4613 174.283 50.84C174.283 49.0907 174.624 47.5547 175.307 46.232C175.99 44.888 176.95 43.8533 178.187 43.128C179.446 42.3813 180.875 42.008 182.475 42.008C183.819 42.008 184.992 42.232 185.995 42.68C187.019 43.128 187.83 43.768 188.427 44.6C189.024 45.432 189.376 46.4027 189.483 47.512H185.963ZM207.486 51.64H195.614C195.657 53.176 196.062 54.4027 196.83 55.32C197.598 56.216 198.686 56.664 200.094 56.664C201.118 56.664 201.95 56.4507 202.59 56.024C203.251 55.5973 203.678 55.032 203.87 54.328H207.166C206.739 55.992 205.907 57.2613 204.67 58.136C203.454 59.0107 201.886 59.448 199.966 59.448C198.323 59.448 196.894 59.0853 195.678 58.36C194.483 57.6347 193.566 56.6213 192.926 55.32C192.307 53.9973 191.998 52.472 191.998 50.744C191.998 49.1227 192.318 47.6507 192.958 46.328C193.598 45.0053 194.515 43.96 195.71 43.192C196.905 42.4027 198.291 42.008 199.87 42.008C201.491 42.008 202.867 42.392 203.998 43.16C205.15 43.928 206.014 44.984 206.59 46.328C207.187 47.672 207.486 49.208 207.486 50.936V51.64ZM203.87 49.176C203.763 47.832 203.358 46.776 202.654 46.008C201.971 45.2187 201.033 44.824 199.838 44.824C198.665 44.824 197.705 45.208 196.958 45.976C196.233 46.744 195.785 47.8107 195.614 49.176H203.87ZM220.176 46.808C220.134 46.0613 219.824 45.5067 219.248 45.144C218.672 44.76 217.883 44.568 216.88 44.568C215.984 44.568 215.27 44.7387 214.736 45.08C214.203 45.4 213.936 45.9013 213.936 46.584C213.936 47.1813 214.203 47.6613 214.736 48.024C215.27 48.3653 216.123 48.664 217.296 48.92L219.216 49.368C220.752 49.7307 221.958 50.2853 222.832 51.032C223.707 51.7787 224.144 52.824 224.144 54.168C224.144 55.4053 223.814 56.4187 223.152 57.208C222.491 57.9973 221.627 58.5733 220.56 58.936C219.515 59.2773 218.363 59.448 217.104 59.448C214.928 59.448 213.2 59 211.92 58.104C210.64 57.208 209.968 55.896 209.904 54.168H213.36C213.403 55.0427 213.766 55.7147 214.448 56.184C215.152 56.6533 216.059 56.888 217.168 56.888C218.086 56.888 218.875 56.696 219.536 56.312C220.198 55.9067 220.528 55.32 220.528 54.552C220.528 53.8907 220.262 53.3573 219.728 52.952C219.195 52.5467 218.352 52.216 217.2 51.96L215.28 51.512C213.552 51.128 212.294 50.584 211.504 49.88C210.715 49.1547 210.32 48.1627 210.32 46.904C210.32 45.816 210.608 44.9093 211.184 44.184C211.782 43.4587 212.582 42.9147 213.584 42.552C214.608 42.1893 215.76 42.008 217.04 42.008C219.046 42.008 220.614 42.424 221.744 43.256C222.896 44.088 223.526 45.272 223.632 46.808H220.176ZM236.926 46.808C236.884 46.0613 236.574 45.5067 235.998 45.144C235.422 44.76 234.633 44.568 233.63 44.568C232.734 44.568 232.02 44.7387 231.486 45.08C230.953 45.4 230.686 45.9013 230.686 46.584C230.686 47.1813 230.953 47.6613 231.486 48.024C232.02 48.3653 232.873 48.664 234.046 48.92L235.966 49.368C237.502 49.7307 238.708 50.2853 239.582 51.032C240.457 51.7787 240.894 52.824 240.894 54.168C240.894 55.4053 240.564 56.4187 239.902 57.208C239.241 57.9973 238.377 58.5733 237.31 58.936C236.265 59.2773 235.113 59.448 233.854 59.448C231.678 59.448 229.95 59 228.67 58.104C227.39 57.208 226.718 55.896 226.654 54.168H230.11C230.153 55.0427 230.516 55.7147 231.198 56.184C231.902 56.6533 232.809 56.888 233.918 56.888C234.836 56.888 235.625 56.696 236.286 56.312C236.948 55.9067 237.278 55.32 237.278 54.552C237.278 53.8907 237.012 53.3573 236.478 52.952C235.945 52.5467 235.102 52.216 233.95 51.96L232.03 51.512C230.302 51.128 229.044 50.584 228.254 49.88C227.465 49.1547 227.07 48.1627 227.07 46.904C227.07 45.816 227.358 44.9093 227.934 44.184C228.532 43.4587 229.332 42.9147 230.334 42.552C231.358 42.1893 232.51 42.008 233.79 42.008C235.796 42.008 237.364 42.424 238.494 43.256C239.646 44.088 240.276 45.272 240.382 46.808H236.926Z" fill="#252525"/>
<defs>
<filter id="filter0_d_1516_11614" x="0" y="0" width="758" height="136" filterUnits="userSpaceOnUse" color-interpolation-filters="sRGB">
<feFlood flood-opacity="0" result="BackgroundImageFix"/>
<feColorMatrix in="SourceAlpha" type="matrix" values="0 0 0 0 0 0 0 0 0 0 0 0 0 0 0 0 0 0 127 0" result="hardAlpha"/>
<feOffset dy="4"/>
<feGaussianBlur stdDeviation="2"/>
<feComposite in2="hardAlpha" operator="out"/>
<feColorMatrix type="matrix" values="0 0 0 0 0 0 0 0 0 0 0 0 0 0 0 0 0 0 0.25 0"/>
<feBlend mode="normal" in2="BackgroundImageFix" result="effect1_dropShadow_1516_11614"/>
<feBlend mode="normal" in="SourceGraphic" in2="effect1_dropShadow_1516_11614" result="shape"/>
</filter>
</defs>
</svg>
