<svg width="24" height="24" viewBox="0 0 24 24" fill="none" xmlns="http://www.w3.org/2000/svg">
<path d="M9.93953 19.8477C9.56453 19.8477 9.27253 19.9977 9.37078 20.4194C9.50922 21.0117 9.84393 21.5398 10.3205 21.9178C10.7971 22.2959 11.3875 22.5016 11.9958 22.5016C12.6041 22.5016 13.1945 22.2959 13.6711 21.9178C14.1476 21.5398 14.4823 21.0117 14.6208 20.4194C14.719 19.9979 14.4265 19.8477 14.052 19.8477H9.93953Z" fill="#AA182C"/>
<path d="M11.9961 4.56525C11.6646 4.56525 11.3466 4.43355 11.1122 4.19913C10.8778 3.96471 10.7461 3.64677 10.7461 3.31525V2.75C10.7461 2.41848 10.8778 2.10054 11.1122 1.86612C11.3466 1.6317 11.6646 1.5 11.9961 1.5C12.3276 1.5 12.6456 1.6317 12.88 1.86612C13.1144 2.10054 13.2461 2.41848 13.2461 2.75V3.31525C13.2461 3.64677 13.1144 3.96471 12.88 4.19913C12.6456 4.43355 12.3276 4.56525 11.9961 4.56525Z" fill="#AA182C"/>
<path d="M20.6554 18.4414H3.33594C3.13703 18.4414 2.94626 18.3624 2.80561 18.2217C2.66496 18.0811 2.58594 17.8903 2.58594 17.6914C2.58594 17.4925 2.66496 17.3017 2.80561 17.1611C2.94626 17.0204 3.13703 16.9414 3.33594 16.9414H20.6554C20.8544 16.9414 21.0451 17.0204 21.1858 17.1611C21.3264 17.3017 21.4054 17.4925 21.4054 17.6914C21.4054 17.8903 21.3264 18.0811 21.1858 18.2217C21.0451 18.3624 20.8544 18.4414 20.6554 18.4414Z" fill="#AA182C"/>
<path d="M19.0694 18.4398C18.8705 18.4398 18.6797 18.3608 18.539 18.2202C18.3984 18.0795 18.3194 17.8888 18.3194 17.6898V10.9621C18.3361 10.1211 18.1849 9.28515 17.8746 8.50328C17.5643 7.7214 17.1012 7.00928 16.5123 6.40858C15.9234 5.80788 15.2207 5.33068 14.4451 5.00491C13.6696 4.67914 12.8368 4.51135 11.9956 4.51135C11.1544 4.51135 10.3217 4.67914 9.54613 5.00491C8.77058 5.33068 8.06781 5.80788 7.47894 6.40858C6.89006 7.00928 6.42693 7.7214 6.11665 8.50328C5.80636 9.28515 5.65515 10.1211 5.67188 10.9621V17.6898C5.67188 17.8888 5.59285 18.0795 5.4522 18.2202C5.31155 18.3608 5.12079 18.4398 4.92188 18.4398C4.72296 18.4398 4.5322 18.3608 4.39154 18.2202C4.25089 18.0795 4.17188 17.8888 4.17188 17.6898V10.9621C4.19942 8.91155 5.03084 6.95376 6.48723 5.51001C7.94362 4.06626 9.90858 3.25194 11.9593 3.24227C14.01 3.23261 15.9825 4.02837 17.4525 5.45832C18.9224 6.88828 19.7723 8.83815 19.8191 10.8883V17.6898C19.8191 17.8887 19.7401 18.0794 19.5995 18.2201C19.4589 18.3607 19.2682 18.4398 19.0694 18.4398Z" fill="#AA182C"/>
</svg>
