<svg width="36" height="36" viewBox="0 0 36 36" fill="none" xmlns="http://www.w3.org/2000/svg">
<path d="M16.9373 33.7417C17.4626 33.7417 17.9761 33.5858 18.4128 33.294C18.8496 33.0021 19.19 32.5874 19.3911 32.1021C19.5921 31.6167 19.6447 31.0826 19.5422 30.5674C19.4397 30.0522 19.1868 29.579 18.8153 29.2075C18.4439 28.8361 17.9706 28.5832 17.4554 28.4807C16.9402 28.3782 16.4062 28.4308 15.9208 28.6319C15.4355 28.8329 15.0207 29.1733 14.7289 29.6101C14.437 30.0469 14.2812 30.5604 14.2812 31.0857C14.282 31.7899 14.5621 32.465 15.06 32.9629C15.558 33.4608 16.2331 33.7409 16.9373 33.7417Z" fill="#AA182C"/>
<path d="M27.1137 13.2665C29.8851 13.2665 32.1317 11.0198 32.1317 8.24847C32.1317 5.4771 29.8851 3.23047 27.1137 3.23047C24.3423 3.23047 22.0957 5.4771 22.0957 8.24847C22.0957 11.0198 24.3423 13.2665 27.1137 13.2665Z" fill="#AA182C"/>
<path d="M29.4928 22.8868C29.0245 22.3846 28.6773 21.782 28.4778 21.1249C28.4968 19.1337 28.3577 17.1441 28.0618 15.1749C27.3007 15.2878 26.5258 15.2671 25.7718 15.1139C26.0994 17.1003 26.252 19.1117 26.2278 21.1249C26.3613 22.3071 26.8841 23.4113 27.7138 24.2639C27.8221 24.4045 27.9179 24.5543 27.9998 24.7118H6.29979C6.38189 24.5544 6.4776 24.4046 6.58581 24.2639C7.41553 23.4113 7.93827 22.3071 8.0718 21.1249C8.0718 11.2249 10.7868 6.99695 17.1508 6.99695C18.1736 6.98218 19.193 7.11684 20.1768 7.39685C20.2684 6.6468 20.4823 5.91692 20.8098 5.23596C20.2225 5.06477 19.6227 4.94 19.0158 4.86292V4.12891C19.0158 3.63163 18.8182 3.15473 18.4666 2.8031C18.115 2.45147 17.6381 2.25391 17.1408 2.25391C16.6435 2.25391 16.1666 2.45147 15.815 2.8031C15.4633 3.15473 15.2658 3.63163 15.2658 4.12891V4.86389C7.2198 5.91289 5.8218 13.7998 5.8218 21.1208C5.62204 21.778 5.27451 22.3808 4.80581 22.8829C4.20581 23.6579 3.52679 25.0198 4.06479 26.0219C4.24215 26.3285 4.50242 26.5789 4.81569 26.7443C5.12897 26.9097 5.48255 26.9834 5.83581 26.9569H28.4638C28.8171 26.9834 29.1706 26.9097 29.4839 26.7443C29.7972 26.5789 30.0574 26.3285 30.2348 26.0219C30.7718 25.0239 30.0918 23.6628 29.4928 22.8868Z" fill="#AA182C"/>
</svg>
