<svg width="36" height="36" viewBox="0 0 36 36" fill="none" xmlns="http://www.w3.org/2000/svg">
<path d="M16.9373 33.7417C17.4626 33.7417 17.9761 33.5858 18.4128 33.294C18.8496 33.0021 19.19 32.5874 19.3911 32.1021C19.5921 31.6167 19.6447 31.0826 19.5422 30.5674C19.4397 30.0522 19.1868 29.579 18.8153 29.2075C18.4439 28.8361 17.9706 28.5832 17.4554 28.4807C16.9402 28.3782 16.4062 28.4308 15.9208 28.6319C15.4355 28.8329 15.0207 29.1733 14.7289 29.6101C14.437 30.0469 14.2812 30.5604 14.2812 31.0857C14.282 31.7899 14.5621 32.465 15.06 32.9629C15.558 33.4608 16.2331 33.7409 16.9373 33.7417Z" fill="#AA182C"/>
<path d="M27.1157 13.2665C29.887 13.2665 32.1337 11.0198 32.1337 8.24847C32.1337 5.4771 29.887 3.23047 27.1157 3.23047C24.3443 3.23047 22.0977 5.4771 22.0977 8.24847C22.0977 11.0198 24.3443 13.2665 27.1157 13.2665Z" fill="#AA182C"/>
<path d="M29.4948 22.8868C29.0264 22.3846 28.6792 21.782 28.4798 21.1249C28.4988 19.1337 28.3597 17.1441 28.0638 15.1749C27.3027 15.2878 26.5277 15.2671 25.7737 15.1139C26.1014 17.1003 26.254 19.1117 26.2298 21.1249C26.3633 22.3071 26.886 23.4113 27.7157 24.2639C27.8241 24.4045 27.9198 24.5543 28.0018 24.7118H6.30175C6.38384 24.5544 6.47955 24.4046 6.58776 24.2639C7.41749 23.4113 7.94023 22.3071 8.07375 21.1249C8.07375 11.2249 10.7887 6.99695 17.1527 6.99695C18.1755 6.98218 19.1949 7.11684 20.1787 7.39685C20.2704 6.6468 20.4842 5.91692 20.8118 5.23596C20.2245 5.06477 19.6246 4.94 19.0178 4.86292V4.12891C19.0178 3.63163 18.8202 3.15473 18.4686 2.8031C18.1169 2.45147 17.64 2.25391 17.1428 2.25391C16.6455 2.25391 16.1686 2.45147 15.8169 2.8031C15.4653 3.15473 15.2678 3.63163 15.2678 4.12891V4.86389C7.22175 5.91289 5.82375 13.7998 5.82375 21.1208C5.624 21.778 5.27646 22.3808 4.80776 22.8829C4.20776 23.6579 3.52875 25.0198 4.06675 26.0219C4.2441 26.3285 4.50437 26.5789 4.81765 26.7443C5.13092 26.9097 5.4845 26.9834 5.83776 26.9569H28.4657C28.819 26.9834 29.1726 26.9097 29.4859 26.7443C29.7991 26.5789 30.0594 26.3285 30.2367 26.0219C30.7737 25.0239 30.0938 23.6628 29.4948 22.8868Z" fill="#AA182C"/>
</svg>
