<svg width="72" height="72" viewBox="0 0 72 72" fill="none" xmlns="http://www.w3.org/2000/svg">
<path d="M54.225 33.4171V20.7143C54.225 18.6683 53.4123 16.7062 51.9656 15.2595C50.5188 13.8128 48.5567 13 46.5107 13H34.6307C32.5848 13 30.6226 13.8128 29.1759 15.2595C27.7292 16.7062 26.9164 18.6683 26.9164 20.7143V36.7279C26.9192 38.0232 27.2481 39.2969 27.8727 40.4317C28.4974 41.5664 29.3978 42.5256 30.4907 43.2207C30.217 44.672 29.4118 45.969 28.2326 46.8583C27.0534 47.7475 25.585 48.165 24.1144 48.0292C22.6437 47.8934 21.2766 47.214 20.2802 46.1239C19.2838 45.0337 18.7298 43.6112 18.7264 42.1343V36.4129C20.5672 35.943 22.1732 34.8173 23.2427 33.2471C24.3122 31.677 24.7717 29.7704 24.5349 27.8854C24.2982 26.0004 23.3814 24.2667 21.9568 23.0098C20.5321 21.7529 18.6977 21.0594 16.7979 21.0594C14.8981 21.0594 13.0636 21.7529 11.639 23.0098C10.2144 24.2667 9.2976 26.0004 9.06082 27.8854C8.82404 29.7704 9.28356 31.677 10.3531 33.2471C11.4226 34.8173 13.0285 35.943 14.8693 36.4129V42.1343C14.8822 44.521 15.7671 46.8207 17.3573 48.6005C18.9475 50.3803 21.1335 51.5174 23.5037 51.7979C25.8739 52.0784 28.2648 51.4828 30.2266 50.1233C32.1883 48.7638 33.5854 46.7342 34.155 44.4164C34.3029 44.4164 34.4572 44.4164 34.6114 44.4164H46.5107C48.4445 44.4151 50.3072 43.6876 51.73 42.3779C53.1527 41.0683 54.0317 39.272 54.1929 37.345C55.7418 37.7936 57.0836 38.7726 57.9835 40.1106C58.8835 41.4487 59.2842 43.0606 59.1156 44.6643C58.9471 46.268 58.2199 47.7613 57.0614 48.883C55.9029 50.0047 54.3869 50.6833 52.7786 50.8C52.5012 50.3899 52.1396 50.0437 51.7179 49.7843C47.925 47.47 42.5829 45.2264 38.6679 47.6821C37.8172 48.2271 37.1172 48.9773 36.6324 49.8636C36.1475 50.7499 35.8934 51.744 35.8934 52.7543C35.8934 53.7646 36.1475 54.7586 36.6324 55.645C37.1172 56.5313 37.8172 57.2815 38.6679 57.8264C39.8518 58.5468 41.2166 58.9147 42.6022 58.8871C45.7264 58.8871 49.095 57.325 51.7179 55.7179C52.1584 55.4496 52.5321 55.0847 52.8107 54.6507C55.4351 54.5187 57.9197 53.4277 59.7927 51.5848C61.6658 49.7418 62.7969 47.2753 62.9714 44.6534C63.1458 42.0315 62.3515 39.4368 60.7392 37.3619C59.1268 35.287 56.8088 33.8764 54.225 33.3979V33.4171ZM18.405 29.3607C18.405 29.787 18.2357 30.1957 17.9343 30.4971C17.6329 30.7985 17.2241 30.9679 16.7979 30.9679C16.3716 30.9679 15.9629 30.7985 15.6615 30.4971C15.3601 30.1957 15.1907 29.787 15.1907 29.3607V28.3707C15.1907 27.9445 15.3601 27.5357 15.6615 27.2343C15.9629 26.9329 16.3716 26.7636 16.7979 26.7636C17.2241 26.7636 17.6329 26.9329 17.9343 27.2343C18.2357 27.5357 18.405 27.9445 18.405 28.3707V29.3607ZM40.9886 34.465C40.8618 34.539 40.7176 34.578 40.5707 34.578C40.4239 34.578 40.2797 34.539 40.1529 34.465C38.8672 33.7129 35.0743 31.2057 34.7464 27.8629C34.6932 27.3966 34.7351 26.9244 34.8696 26.4747C35.004 26.0251 35.2282 25.6074 35.5287 25.2468C35.8291 24.8863 36.1995 24.5904 36.6175 24.3771C37.0356 24.1638 37.4925 24.0375 37.9607 24.0057C38.97 23.9736 39.8893 24.8093 40.5322 25.4779C41.175 24.835 42.0172 24.0057 42.975 24.0057C43.4216 24.0057 43.8638 24.0937 44.2764 24.2646C44.689 24.4355 45.0639 24.686 45.3797 25.0018C45.6955 25.3175 45.946 25.6924 46.1169 26.105C46.2878 26.5176 46.3757 26.9598 46.3757 27.4064C46.4207 30.9807 42.3257 33.6807 40.9886 34.465Z" fill="#AA182C"/>
</svg>
