<svg width="72" height="72" viewBox="0 0 72 72" fill="none" xmlns="http://www.w3.org/2000/svg">
<path d="M60 25.5086C59.997 24.1228 59.4451 22.7946 58.4653 21.8147C57.4854 20.8349 56.1572 20.283 54.7714 20.28H35.12C34.0286 19.1371 31.4514 16.5257 30.04 15.3829C29.7361 15.1364 29.357 15.0013 28.9657 15H17.2343C15.8495 15.0015 14.5216 15.5511 13.5408 16.5287C12.56 17.5063 12.006 18.8324 12 20.2171V26.3829H60V25.5086Z" fill="#AA182C"/>
<path d="M12 52.4811C12.0015 53.8678 12.5527 55.1975 13.5327 56.1786C14.5128 57.1597 15.8418 57.7123 17.2286 57.7154H54.7543C55.4424 57.7161 56.124 57.5813 56.76 57.3187C57.396 57.056 57.9741 56.6707 58.4612 56.1846C58.9483 55.6986 59.3349 55.1214 59.5989 54.4859C59.863 53.8504 59.9993 53.1692 60 52.4811V29.8125H12V52.4811ZM27.7314 36.6068C28.3015 35.9463 29.0017 35.4105 29.7883 35.0329C30.5749 34.6554 31.4309 34.4442 32.3029 34.4125C33.6697 34.4194 34.9861 34.93 36 35.8468C36.9411 34.9835 38.1532 34.4744 39.4286 34.4068C41.1488 34.4098 42.7975 35.0949 44.0133 36.3118C45.2292 37.5287 45.9128 39.178 45.9143 40.8982C45.9143 46.6811 39.9943 50.7954 37.4457 52.2925C37.0053 52.5529 36.5031 52.6903 35.9914 52.6903C35.4798 52.6903 34.9775 52.5529 34.5371 52.2925C32.1771 50.9039 26.6343 47.0754 26.1029 41.7154C26.0142 40.7979 26.1129 39.8721 26.3928 38.9939C26.6728 38.1158 27.1282 37.3036 27.7314 36.6068Z" fill="#AA182C"/>
<path d="M35.9971 49.1731C39.1914 47.2245 42.5 44.0874 42.5 40.8988C42.4993 40.4958 42.4191 40.097 42.2642 39.7249C42.1093 39.3529 41.8827 39.0151 41.5972 38.7307C41.3117 38.4463 40.973 38.2209 40.6004 38.0673C40.2279 37.9138 39.8287 37.8352 39.4257 37.8359C38.7229 37.8359 37.6371 38.9788 37.2257 39.3845C37.0674 39.5475 36.8783 39.6774 36.6694 39.7667C36.4604 39.856 36.2358 39.9028 36.0086 39.9045C35.8819 39.9022 35.7557 39.8888 35.6314 39.8645C35.2952 39.8003 34.9875 39.6324 34.7514 39.3845C34.3743 38.9959 33.2543 37.8359 32.4657 37.8359C32.0596 37.8513 31.661 37.9506 31.2952 38.1277C30.9293 38.3047 30.6041 38.5556 30.34 38.8645C30.0422 39.2069 29.8176 39.6065 29.68 40.0389C29.5424 40.4713 29.4948 40.9273 29.54 41.3788C29.8086 44.3959 32.9971 47.3445 35.9971 49.1731Z" fill="#AA182C"/>
</svg>
