<svg width="56" height="56" viewBox="0 0 56 56" fill="none" xmlns="http://www.w3.org/2000/svg">
<g clip-path="url(#clip0_1516_11331)">
<path fill-rule="evenodd" clip-rule="evenodd" d="M44.4427 28.3527C43.9541 28.361 43.4733 28.4774 43.0351 28.6936L34.8177 32.6318C34.6141 32.1752 34.2793 31.7895 33.8558 31.5238C33.4323 31.2581 32.9392 31.1245 32.4395 31.14L27.7353 31.2924C26.6682 31.2509 25.6135 31.0481 24.6072 30.6908C23.2395 30.2591 21.8143 30.0374 20.3802 30.0331C18.6225 30.109 16.8857 30.4455 15.2268 31.0317V30.005C15.2259 29.892 15.2027 29.7803 15.1586 29.6762C15.1145 29.5691 15.049 29.4722 14.9661 29.3914C14.8897 29.3088 14.7968 29.2433 14.6934 29.1989C14.5891 29.1555 14.4775 29.1324 14.3646 29.1307H9.62427C9.51124 29.1317 9.39951 29.1549 9.29542 29.1989C9.08083 29.2906 8.90989 29.4616 8.81818 29.6762C8.77412 29.7803 8.75095 29.892 8.75 30.005V43.0188C8.7505 43.1371 8.77365 43.2542 8.81818 43.3637C8.90989 43.5783 9.08083 43.7492 9.29542 43.841C9.40025 43.8812 9.51202 43.9003 9.62427 43.8971H14.3646C14.4808 43.901 14.5967 43.8819 14.7055 43.841C14.8089 43.7966 14.9018 43.731 14.9782 43.6485C15.0611 43.5676 15.1266 43.4707 15.1707 43.3637C15.2152 43.2542 15.2384 43.1371 15.2389 43.0188V41.924C20.9978 40.9053 24.4227 42.6378 29.6082 42.6378C30.683 42.6378 31.7979 42.1085 33.2176 41.3786C34.6372 40.6487 36.2374 39.6701 37.8656 38.6154C41.1221 36.5139 44.4668 34.1197 46.2033 32.9447C46.4884 32.7564 46.7295 32.5088 46.9101 32.2188C47.0908 31.9288 47.2067 31.6032 47.25 31.2643C47.3179 30.6444 47.1567 30.021 46.7968 29.5117C46.5285 29.1414 46.1738 28.8423 45.7635 28.6403C45.3532 28.4383 44.8998 28.3396 44.4427 28.3527ZM10.4985 30.8793H11.3006V42.1445H10.4985V30.8793Z" fill="#AA182C"/>
<path fill-rule="evenodd" clip-rule="evenodd" d="M28.0002 14.45C27.8591 14.4583 27.7218 14.4987 27.5988 14.5682C27.4758 14.6377 27.3703 14.7345 27.2904 14.851C26.5805 15.8977 25.3453 17.5099 24.2826 19.1582C23.2198 20.8065 22.2773 22.4387 22.2773 24.0269C22.317 25.5284 22.9413 26.9552 24.0174 28.0033C25.0934 29.0513 26.5362 29.6378 28.0383 29.6378C29.5404 29.6378 30.9832 29.0513 32.0592 28.0033C33.1353 26.9552 33.7597 25.5284 33.7993 24.0269C33.7993 22.4227 32.8288 20.8185 31.762 19.1582C30.6952 17.4979 29.4319 15.8777 28.7221 14.831C28.6449 14.7054 28.5362 14.6023 28.4067 14.5319C28.2772 14.4615 28.1315 14.4264 27.9842 14.4299L28.0002 14.45ZM28.0002 16.8562C28.694 17.8268 29.5362 18.9577 30.2661 20.0967C31.2767 21.6607 32.0186 23.305 32.0186 24.0188C32.0186 25.0825 31.5961 26.1025 30.844 26.8546C30.0919 27.6067 29.0719 28.0293 28.0082 28.0293C26.9446 28.0293 25.9245 27.6067 25.1724 26.8546C24.4203 26.1025 23.9978 25.0825 23.9978 24.0188C23.9978 23.2889 24.7357 21.6607 25.7464 20.0967C26.4803 18.9577 27.3064 17.8268 28.0042 16.8562H28.0002Z" fill="#AA182C"/>
<path fill-rule="evenodd" clip-rule="evenodd" d="M25.4209 22.4375C25.3065 22.4414 25.1937 22.4659 25.088 22.5097C24.9828 22.5568 24.8876 22.6235 24.8073 22.7062C24.7262 22.7869 24.6633 22.884 24.6228 22.9909C24.5796 23.098 24.5578 23.2124 24.5586 23.3278C24.5586 24.3914 24.9811 25.4115 25.7332 26.1636C26.4853 26.9157 27.5054 27.3382 28.569 27.3382C28.6859 27.3415 28.8023 27.3211 28.9112 27.2784C29.02 27.2357 29.1192 27.1715 29.2027 27.0896C29.2856 27.0088 29.3511 26.9119 29.3952 26.8048C29.4401 26.6975 29.4632 26.5823 29.4632 26.466C29.4632 26.3496 29.4401 26.2344 29.3952 26.1271C29.35 26.0206 29.2847 25.9239 29.2027 25.8423C29.1206 25.762 29.024 25.698 28.9179 25.6539C28.809 25.6125 28.6936 25.5908 28.5771 25.5897C28.2808 25.5913 27.9872 25.5341 27.7133 25.4213C27.4393 25.3086 27.1905 25.1425 26.9812 24.9329C26.7719 24.7232 26.6063 24.4741 26.4941 24.1999C26.3818 23.9258 26.3251 23.6321 26.3272 23.3358C26.3264 23.218 26.3047 23.1012 26.263 22.9909C26.2175 22.8835 26.1522 22.7856 26.0705 22.7022C25.9857 22.6204 25.8865 22.5552 25.7778 22.5097C25.6694 22.4665 25.5536 22.4447 25.4369 22.4455L25.4209 22.4375Z" fill="#AA182C"/>
<path fill-rule="evenodd" clip-rule="evenodd" d="M20.2321 12.2501C20.092 12.2557 19.9549 12.2927 19.8311 12.3584C19.711 12.4264 19.6081 12.5211 19.5303 12.6351C19.1493 13.2006 18.4435 14.1109 17.8379 15.0414C17.2323 15.9718 16.6348 16.9022 16.6348 17.981C16.6348 18.9383 17.015 19.8563 17.6919 20.5332C18.3688 21.2101 19.2869 21.5904 20.2441 21.5904C21.2014 21.5904 22.1195 21.2101 22.7964 20.5332C23.4732 19.8563 23.8535 18.9383 23.8535 17.981C23.8535 16.9022 23.256 15.9758 22.6504 15.0414C22.0448 14.1069 21.355 13.1886 20.97 12.6351C20.8855 12.5136 20.7726 12.4144 20.6412 12.3464C20.5149 12.2809 20.3743 12.2478 20.2321 12.2501ZM20.2602 14.6564C20.573 15.0895 20.8898 15.5587 21.1906 16.0239C21.6105 16.627 21.9251 17.2968 22.121 18.0051C22.121 18.4986 21.925 18.9719 21.576 19.3209C21.227 19.6698 20.7537 19.8659 20.2602 19.8659C19.7667 19.8659 19.2933 19.6698 18.9444 19.3209C18.5954 18.9719 18.3993 18.4986 18.3993 18.0051C18.589 17.2967 18.8997 16.6264 19.3177 16.0239C19.6145 15.5467 19.9474 15.0775 20.2602 14.6564Z" fill="#AA182C"/>
<path fill-rule="evenodd" clip-rule="evenodd" d="M35.7244 12.2505C35.5841 12.2549 35.4468 12.2919 35.3234 12.3587C35.2016 12.4245 35.0982 12.5196 35.0226 12.6355C34.6215 13.2009 33.9317 14.1113 33.3262 15.0417C32.7206 15.9721 32.123 16.9025 32.123 17.9813C32.123 18.9386 32.5033 19.8567 33.1802 20.5336C33.8571 21.2104 34.7752 21.5907 35.7324 21.5907C36.6897 21.5907 37.6077 21.2104 38.2846 20.5336C38.9615 19.8567 39.3418 18.9386 39.3418 17.9813C39.3418 16.9025 38.7483 15.9761 38.1387 15.0417C37.5291 14.1073 36.8433 13.1889 36.4583 12.6355C36.3769 12.5111 36.2656 12.4092 36.1346 12.3391C36.0035 12.269 35.857 12.233 35.7084 12.2344L35.7244 12.2505ZM35.7485 14.6567C36.0613 15.0898 36.3941 15.559 36.6949 16.0243C37.115 16.6228 37.4297 17.2888 37.6253 17.9934C37.6031 18.4714 37.3976 18.9225 37.0514 19.253C36.7053 19.5835 36.2451 19.7678 35.7665 19.7678C35.2879 19.7678 34.8278 19.5835 34.4816 19.253C34.1354 18.9225 33.9299 18.4714 33.9077 17.9934C34.0939 17.2852 34.402 16.6148 34.818 16.0122C35.1068 15.547 35.4357 15.0778 35.7485 14.6567Z" fill="#AA182C"/>
</g>
<defs>
<clipPath id="clip0_1516_11331">
<rect width="38.5" height="31.6502" fill="white" transform="translate(8.75 12.25)"/>
</clipPath>
</defs>
</svg>
