<svg width="36" height="36" viewBox="0 0 36 36" fill="none" xmlns="http://www.w3.org/2000/svg">
<path d="M25.1172 5.00586C25.1172 5.27108 25.2224 5.52535 25.4099 5.71289C25.5974 5.90043 25.852 6.00586 26.1172 6.00586H30.0002V9.87598C30.0002 10.1412 30.1054 10.3964 30.293 10.584C30.4805 10.7715 30.735 10.876 31.0002 10.876C31.2655 10.876 31.5197 10.7715 31.7073 10.584C31.8948 10.3964 32.0002 10.1412 32.0002 9.87598V5.00586C32.0002 4.74064 31.8948 4.48539 31.7073 4.29785C31.5197 4.11032 31.2655 4.00586 31.0002 4.00586H26.1172C25.852 4.00586 25.5974 4.11032 25.4099 4.29785C25.2224 4.48539 25.1172 4.74064 25.1172 5.00586Z" fill="white"/>
<path d="M4.00781 5V9.88281C4.00781 10.148 4.113 10.4023 4.30054 10.5898C4.48807 10.7774 4.7426 10.8828 5.00781 10.8828C5.27303 10.8828 5.52731 10.7774 5.71484 10.5898C5.90238 10.4023 6.00781 10.148 6.00781 9.88281V6H9.87964C10.1449 6 10.3994 5.89457 10.5869 5.70703C10.7745 5.5195 10.8796 5.26522 10.8796 5C10.8796 4.73478 10.7745 4.48051 10.5869 4.29297C10.3994 4.10543 10.1449 4 9.87964 4H5.00879C4.87738 3.99987 4.74717 4.02598 4.62573 4.07617C4.50429 4.12637 4.39399 4.2001 4.30103 4.29297C4.20806 4.38584 4.1343 4.4958 4.08398 4.61719C4.03367 4.73858 4.00781 4.86859 4.00781 5Z" fill="white"/>
<path d="M29.9922 26.1055V29.9873H26.1211C25.8559 29.9873 25.6016 30.0927 25.4141 30.2803C25.2265 30.4678 25.1211 30.7221 25.1211 30.9873C25.1211 31.2525 25.2265 31.5068 25.4141 31.6943C25.6016 31.8819 25.8559 31.9873 26.1211 31.9873H30.9922C31.2574 31.9873 31.5117 31.8819 31.6992 31.6943C31.8868 31.5068 31.9922 31.2525 31.9922 30.9873V26.1055C31.9922 25.8403 31.8868 25.586 31.6992 25.3984C31.5117 25.2109 31.2574 25.1055 30.9922 25.1055C30.727 25.1055 30.4727 25.2109 30.2852 25.3984C30.0976 25.586 29.9922 25.8403 29.9922 26.1055Z" fill="white"/>
<path d="M10.8831 30.9824C10.8831 30.7172 10.7776 30.4629 10.5901 30.2754C10.4026 30.0879 10.1483 29.9824 9.88306 29.9824H6V26.1113C6 25.8461 5.89457 25.5918 5.70703 25.4043C5.51949 25.2168 5.26522 25.1113 5 25.1113C4.73478 25.1113 4.48051 25.2168 4.29297 25.4043C4.10543 25.5918 4 25.8461 4 26.1113V30.9824C4 31.2476 4.10543 31.5019 4.29297 31.6895C4.48051 31.877 4.73478 31.9824 5 31.9824H9.88306C10.1483 31.9824 10.4026 31.877 10.5901 31.6895C10.7776 31.5019 10.8831 31.2476 10.8831 30.9824Z" fill="white"/>
<path d="M27.7766 23.1934C27.556 23.1934 27.3445 23.1052 27.1885 22.9492C27.0325 22.7932 26.9448 22.582 26.9448 22.3613V18.7217H22.9448V22.3613C22.9487 22.4729 22.93 22.5842 22.8899 22.6885C22.8499 22.7927 22.7893 22.8874 22.7117 22.9678C22.6341 23.0481 22.5411 23.1116 22.4382 23.1553C22.3354 23.1989 22.225 23.2217 22.1133 23.2217C22.0016 23.2217 21.8909 23.1989 21.7881 23.1553C21.6853 23.1116 21.5925 23.0481 21.5149 22.9678C21.4373 22.8874 21.3765 22.7927 21.3364 22.6885C21.2964 22.5842 21.2779 22.4729 21.2818 22.3613V18.1611C21.282 17.8679 21.3986 17.5863 21.606 17.3789C21.8133 17.1715 22.0945 17.055 22.3877 17.0547H27.5047C27.7979 17.055 28.079 17.1715 28.2864 17.3789C28.4937 17.5863 28.6103 17.8679 28.6106 18.1611V22.3613C28.6106 22.4708 28.5891 22.5786 28.5471 22.6797C28.5052 22.7808 28.4437 22.8729 28.3662 22.9502C28.2888 23.0275 28.1969 23.0882 28.0957 23.1299C27.9945 23.1716 27.8861 23.1936 27.7766 23.1934Z" fill="white"/>
<path d="M12.48 9.9375V12.749H9.66797V9.9375H12.48ZM13.553 7.9375H8.59497C8.47324 7.9375 8.3527 7.96123 8.24023 8.00781C8.12777 8.0544 8.02553 8.1229 7.93945 8.20898C7.85337 8.29506 7.78511 8.3973 7.73853 8.50977C7.69194 8.62223 7.66797 8.74252 7.66797 8.86426V13.8223C7.66784 13.944 7.69174 14.0642 7.73828 14.1768C7.78482 14.2893 7.8531 14.3914 7.93921 14.4775C8.02532 14.5636 8.12746 14.6322 8.23999 14.6787C8.35252 14.7253 8.4732 14.7492 8.59497 14.749H13.553C13.6748 14.7492 13.7954 14.7253 13.908 14.6787C14.0205 14.6322 14.1226 14.5636 14.2087 14.4775C14.2948 14.3914 14.3631 14.2893 14.4097 14.1768C14.4562 14.0642 14.4801 13.944 14.48 13.8223V8.86426C14.48 8.6184 14.3823 8.38283 14.2085 8.20898C14.0347 8.03514 13.7988 7.9375 13.553 7.9375Z" fill="white"/>
<path d="M26.3354 9.9375V12.749H23.5234V9.9375H26.3354ZM27.4084 7.9375H22.4504C22.2046 7.9375 21.9688 8.03514 21.7949 8.20898C21.6211 8.38283 21.5234 8.6184 21.5234 8.86426V13.8223C21.5233 13.944 21.5472 14.0642 21.5938 14.1768C21.6403 14.2893 21.7086 14.3914 21.7947 14.4775C21.8808 14.5636 21.9832 14.6322 22.0957 14.6787C22.2082 14.7253 22.3287 14.7492 22.4504 14.749H27.4084C27.5302 14.7492 27.6509 14.7253 27.7634 14.6787C27.876 14.6322 27.9781 14.5636 28.0642 14.4775C28.1503 14.3914 28.2186 14.2893 28.2651 14.1768C28.3117 14.0642 28.3356 13.944 28.3354 13.8223V8.86426C28.3354 8.6184 28.2378 8.38283 28.064 8.20898C27.8901 8.03514 27.6543 7.9375 27.4084 7.9375Z" fill="white"/>
<path d="M12.48 23.791V26.6035H9.66797V23.791H12.48ZM13.553 21.791H8.59497C8.47324 21.791 8.3527 21.8147 8.24023 21.8613C8.12777 21.9079 8.02553 21.9764 7.93945 22.0625C7.85337 22.1486 7.78511 22.2508 7.73853 22.3633C7.69194 22.4758 7.66797 22.596 7.66797 22.7178V27.6758C7.66784 27.7976 7.69174 27.9187 7.73828 28.0312C7.78482 28.1438 7.8531 28.2459 7.93921 28.332C8.02532 28.4181 8.12746 28.4867 8.23999 28.5332C8.35252 28.5797 8.4732 28.6036 8.59497 28.6035H13.553C13.6748 28.6036 13.7954 28.5797 13.908 28.5332C14.0205 28.4867 14.1226 28.4181 14.2087 28.332C14.2948 28.2459 14.3631 28.1438 14.4097 28.0312C14.4562 27.9187 14.4801 27.7976 14.48 27.6758V22.7178C14.48 22.4719 14.3823 22.2363 14.2085 22.0625C14.0347 21.8887 13.7988 21.791 13.553 21.791Z" fill="white"/>
<path d="M18.1875 14.6973C17.9223 14.6973 17.668 14.5918 17.4805 14.4043C17.2929 14.2168 17.1875 13.9625 17.1875 13.6973V8.98633C17.1875 8.72111 17.2929 8.46683 17.4805 8.2793C17.668 8.09176 17.9223 7.98633 18.1875 7.98633C18.4527 7.98633 18.707 8.09176 18.8945 8.2793C19.0821 8.46683 19.1875 8.72111 19.1875 8.98633V13.6973C19.1875 13.9625 19.0821 14.2168 18.8945 14.4043C18.707 14.5918 18.4527 14.6973 18.1875 14.6973Z" fill="white"/>
<path d="M27.6516 28.9121H17.8994C17.6342 28.9121 17.3799 28.8067 17.1924 28.6191C17.0048 28.4316 16.8994 28.1773 16.8994 27.9121V19.5625H8.72656C8.46135 19.5625 8.20682 19.4571 8.01929 19.2695C7.83175 19.082 7.72656 18.8277 7.72656 18.5625C7.72656 18.2973 7.83175 18.043 8.01929 17.8555C8.20682 17.6679 8.46135 17.5625 8.72656 17.5625H17.8994C18.1646 17.5625 18.4192 17.6679 18.6067 17.8555C18.7942 18.043 18.8994 18.2973 18.8994 18.5625V26.9121H27.6516C27.9168 26.9121 28.1711 27.0175 28.3586 27.2051C28.5462 27.3926 28.6516 27.6469 28.6516 27.9121C28.6516 28.1773 28.5462 28.4316 28.3586 28.6191C28.1711 28.8067 27.9168 28.9121 27.6516 28.9121Z" fill="white"/>
</svg>
