<svg width="36" height="36" viewBox="0 0 36 36" fill="none" xmlns="http://www.w3.org/2000/svg">
<path d="M24.0977 6.86144C24.0977 7.08887 24.1878 7.30692 24.3486 7.46774C24.5093 7.62856 24.7275 7.71897 24.9548 7.71897H28.2831V11.0377C28.2831 11.2652 28.3733 11.484 28.534 11.6449C28.6948 11.8057 28.9129 11.8953 29.1403 11.8953C29.3676 11.8953 29.5855 11.8057 29.7463 11.6449C29.907 11.484 29.9974 11.2652 29.9974 11.0377V6.86144C29.9974 6.63401 29.907 6.41512 29.7463 6.2543C29.5855 6.09348 29.3676 6.00391 29.1403 6.00391H24.9548C24.7275 6.00391 24.5093 6.09348 24.3486 6.2543C24.1878 6.41512 24.0977 6.63401 24.0977 6.86144Z" fill="#252525"/>
<path d="M6.00391 6.85753V11.0447C6.00391 11.2721 6.09407 11.4902 6.25481 11.651C6.41556 11.8118 6.63372 11.9022 6.86105 11.9022C7.08837 11.9022 7.30633 11.8118 7.46707 11.651C7.62782 11.4902 7.71819 11.2721 7.71819 11.0447V7.71506H11.0369C11.2642 7.71506 11.4824 7.62465 11.6431 7.46383C11.8039 7.30302 11.894 7.08496 11.894 6.85753C11.894 6.6301 11.8039 6.41205 11.6431 6.25123C11.4824 6.09041 11.2642 6 11.0369 6H6.86188C6.74925 5.99989 6.63764 6.02228 6.53355 6.06532C6.42946 6.10836 6.33491 6.17159 6.25523 6.25123C6.17555 6.33087 6.11233 6.42516 6.0692 6.52926C6.02607 6.63335 6.00391 6.74485 6.00391 6.85753Z" fill="#252525"/>
<path d="M28.2807 24.9552V28.284H24.9626C24.7353 28.284 24.5173 28.3744 24.3566 28.5352C24.1958 28.696 24.1055 28.9141 24.1055 29.1415C24.1055 29.3689 24.1958 29.587 24.3566 29.7478C24.5173 29.9086 24.7353 29.9991 24.9626 29.9991H29.1378C29.3651 29.9991 29.5831 29.9086 29.7438 29.7478C29.9046 29.587 29.995 29.3689 29.995 29.1415V24.9552C29.995 24.7278 29.9046 24.5097 29.7438 24.3489C29.5831 24.1881 29.3651 24.0977 29.1378 24.0977C28.9105 24.0977 28.6925 24.1881 28.5318 24.3489C28.371 24.5097 28.2807 24.7278 28.2807 24.9552Z" fill="#252525"/>
<path d="M11.8997 29.144C11.8997 28.9166 11.8094 28.6985 11.6486 28.5377C11.4879 28.3769 11.2699 28.2865 11.0426 28.2865H7.71428V24.9669C7.71428 24.7395 7.62391 24.5214 7.46316 24.3606C7.30242 24.1998 7.08447 24.1094 6.85714 24.1094C6.62981 24.1094 6.41186 24.1998 6.25112 24.3606C6.09037 24.5214 6 24.7395 6 24.9669V29.144C6 29.3715 6.09037 29.5895 6.25112 29.7503C6.41186 29.9111 6.62981 30.0016 6.85714 30.0016H11.0426C11.2699 30.0016 11.4879 29.9111 11.6486 29.7503C11.8094 29.5895 11.8997 29.3715 11.8997 29.144Z" fill="#252525"/>
<path d="M26.376 22.4633C26.1869 22.4633 26.0057 22.3878 25.8719 22.254C25.7382 22.1202 25.6631 21.9391 25.6631 21.7498V18.6287H22.2345V21.7498C22.2378 21.8456 22.2218 21.941 22.1874 22.0304C22.1531 22.1198 22.1012 22.201 22.0347 22.2699C21.9682 22.3388 21.8884 22.3932 21.8003 22.4307C21.7122 22.4681 21.6175 22.4876 21.5218 22.4876C21.426 22.4876 21.3312 22.4681 21.243 22.4307C21.1549 22.3932 21.0754 22.3388 21.0089 22.2699C20.9424 22.201 20.8902 22.1198 20.8559 22.0304C20.8216 21.941 20.8057 21.8456 20.809 21.7498V18.148C20.8093 17.8966 20.9092 17.6551 21.0869 17.4772C21.2647 17.2994 21.5056 17.1994 21.757 17.1992H26.1429C26.3943 17.1994 26.6352 17.2994 26.813 17.4772C26.9907 17.6551 27.0907 17.8966 27.0909 18.148V21.7498C27.0909 21.8437 27.0724 21.9362 27.0365 22.0228C27.0005 22.1095 26.9478 22.1885 26.8814 22.2548C26.815 22.3211 26.7363 22.3731 26.6495 22.4089C26.5628 22.4446 26.4698 22.4636 26.376 22.4633Z" fill="#252525"/>
<path d="M13.2652 11.0979V13.5088H10.8549V11.0979H13.2652ZM14.1849 9.38281H9.9352C9.83085 9.38281 9.72754 9.40316 9.63114 9.44311C9.53474 9.48306 9.44711 9.5418 9.37333 9.61562C9.29954 9.68944 9.24103 9.7771 9.2011 9.87355C9.16117 9.96999 9.14063 10.0731 9.14063 10.1775V14.4292C9.14051 14.5336 9.161 14.6367 9.20089 14.7332C9.24078 14.8297 9.29931 14.9173 9.37312 14.9911C9.44692 15.0649 9.53448 15.1237 9.63093 15.1636C9.72738 15.2035 9.83082 15.224 9.9352 15.2239H14.1849C14.2893 15.224 14.3927 15.2035 14.4892 15.1636C14.5856 15.1237 14.6732 15.0649 14.747 14.9911C14.8208 14.9173 14.8793 14.8297 14.9192 14.7332C14.9591 14.6367 14.9796 14.5336 14.9795 14.4292V10.1775C14.9795 9.96671 14.8958 9.7647 14.7468 9.61562C14.5978 9.46654 14.3956 9.38281 14.1849 9.38281Z" fill="#252525"/>
<path d="M25.1402 11.0979V13.5088H22.7299V11.0979H25.1402ZM26.0599 9.38281H21.8102C21.5995 9.38281 21.3973 9.46654 21.2483 9.61562C21.0993 9.7647 21.0156 9.96671 21.0156 10.1775V14.4292C21.0155 14.5336 21.036 14.6367 21.0759 14.7332C21.1158 14.8297 21.1743 14.9173 21.2481 14.9911C21.3219 15.0649 21.4097 15.1237 21.5061 15.1636C21.6026 15.2035 21.7058 15.224 21.8102 15.2239H26.0599C26.1643 15.224 26.2677 15.2035 26.3642 15.1636C26.4606 15.1237 26.5482 15.0649 26.622 14.9911C26.6958 14.9173 26.7543 14.8297 26.7942 14.7332C26.8341 14.6367 26.8546 14.5336 26.8545 14.4292V10.1775C26.8545 9.96671 26.7708 9.7647 26.6218 9.61562C26.4728 9.46654 26.2706 9.38281 26.0599 9.38281Z" fill="#252525"/>
<path d="M13.2652 22.9807V25.3925H10.8549V22.9807H13.2652ZM14.1849 21.2656H9.9352C9.83085 21.2656 9.72754 21.286 9.63114 21.3259C9.53474 21.3659 9.44711 21.4246 9.37333 21.4984C9.29954 21.5722 9.24103 21.6599 9.2011 21.7564C9.16117 21.8528 9.14063 21.956 9.14063 22.0603V26.312C9.14051 26.4164 9.161 26.5203 9.20089 26.6168C9.24078 26.7133 9.29931 26.8009 9.37312 26.8748C9.44692 26.9486 9.53448 27.0074 9.63093 27.0473C9.72738 27.0872 9.83082 27.1077 9.9352 27.1076H14.1849C14.2893 27.1077 14.3927 27.0872 14.4892 27.0473C14.5856 27.0074 14.6732 26.9486 14.747 26.8748C14.8208 26.8009 14.8793 26.7133 14.9192 26.6168C14.9591 26.5203 14.9796 26.4164 14.9795 26.312V22.0603C14.9795 21.8495 14.8958 21.6475 14.7468 21.4984C14.5978 21.3494 14.3956 21.2656 14.1849 21.2656Z" fill="#252525"/>
<path d="M18.1579 15.1767C17.9306 15.1767 17.7126 15.0863 17.5519 14.9255C17.3912 14.7647 17.3008 14.5466 17.3008 14.3192V10.2794C17.3008 10.052 17.3912 9.83392 17.5519 9.67311C17.7126 9.51229 17.9306 9.42188 18.1579 9.42188C18.3852 9.42188 18.6032 9.51229 18.7639 9.67311C18.9247 9.83392 19.0151 10.052 19.0151 10.2794V14.3192C19.0151 14.5466 18.9247 14.7647 18.7639 14.9255C18.6032 15.0863 18.3852 15.1767 18.1579 15.1767Z" fill="#252525"/>
<path d="M26.27 27.3655H17.911C17.6836 27.3655 17.4657 27.2751 17.3049 27.1142C17.1442 26.9534 17.0538 26.7354 17.0538 26.5079V19.3479H10.0485C9.82122 19.3479 9.60306 19.2575 9.44231 19.0966C9.28157 18.9358 9.19141 18.7178 9.19141 18.4903C9.19141 18.2629 9.28157 18.0449 9.44231 17.884C9.60306 17.7232 9.82122 17.6328 10.0485 17.6328H17.911C18.1383 17.6328 18.3565 17.7232 18.5172 17.884C18.6779 18.0449 18.7681 18.2629 18.7681 18.4903V25.6504H26.27C26.4973 25.6504 26.7152 25.7408 26.876 25.9016C27.0367 26.0624 27.1271 26.2805 27.1271 26.5079C27.1271 26.7354 27.0367 26.9534 26.876 27.1142C26.7152 27.2751 26.4973 27.3655 26.27 27.3655Z" fill="#252525"/>
</svg>
