<svg width="72" height="72" viewBox="0 0 72 72" fill="none" xmlns="http://www.w3.org/2000/svg">
<path d="M36.0373 67.8231C31.8981 67.8248 27.8043 66.9609 24.0188 65.2868C20.2332 63.6128 16.8396 61.1655 14.0559 58.1022C11.2722 55.0389 9.15983 51.4273 7.85453 47.4993C6.54923 43.5714 6.07982 39.4138 6.47644 35.2937C6.87306 31.1735 8.12695 27.1819 10.1576 23.575C12.1882 19.9682 14.9507 16.8258 18.2677 14.3498C21.5847 11.8738 25.3828 10.1189 29.4182 9.19765C33.4535 8.27644 37.637 8.20932 41.6998 9.00062C42.2781 9.12169 42.7855 9.46535 43.1126 9.95739C43.4396 10.4494 43.56 11.0504 43.4478 11.6304C43.3355 12.2105 42.9996 12.7231 42.5126 13.0576C42.0255 13.3921 41.4265 13.5216 40.8448 13.4181C35.4673 12.381 29.8982 13.125 24.9816 15.5375C20.0649 17.9499 16.0686 21.8992 13.5982 26.787C11.1278 31.6749 10.318 37.2347 11.2915 42.6241C12.265 48.0135 14.9687 52.9387 18.993 56.6534C23.0172 60.3681 28.1427 62.6698 33.5926 63.2097C39.0425 63.7496 44.52 62.4983 49.1948 59.6455C53.8697 56.7926 57.4872 52.4936 59.4993 47.3999C61.5113 42.3063 61.8081 36.6956 60.3448 31.4181C60.1857 30.8423 60.2618 30.2268 60.5565 29.7071C60.8511 29.1874 61.3402 28.806 61.916 28.6469C62.4919 28.4877 63.1074 28.5639 63.6271 28.8586C64.1468 29.1532 64.5282 29.6423 64.6873 30.2181C65.9054 34.6295 66.0875 39.2628 65.2195 43.7562C64.3515 48.2496 62.4569 52.4817 59.6834 56.122C56.9099 59.7624 53.3327 62.7126 49.2309 64.7423C45.1292 66.772 40.6138 67.8264 36.0373 67.8231Z" fill="#C42F51"/>
<path d="M44.5947 28.4102H27.5547C26.958 28.4102 26.3857 28.1731 25.9637 27.7511C25.5417 27.3292 25.3047 26.7569 25.3047 26.1602C25.3047 25.5634 25.5417 24.9911 25.9637 24.5692C26.3857 24.1472 26.958 23.9102 27.5547 23.9102H44.5947C45.1914 23.9102 45.7637 24.1472 46.1857 24.5692C46.6076 24.9911 46.8447 25.5634 46.8447 26.1602C46.8447 26.7569 46.6076 27.3292 46.1857 27.7511C45.7637 28.1731 45.1914 28.4102 44.5947 28.4102Z" fill="#AA182C"/>
<path d="M44.5947 35.8672H27.5547C26.958 35.8672 26.3857 35.6301 25.9637 35.2082C25.5417 34.7862 25.3047 34.2139 25.3047 33.6172C25.3047 33.0205 25.5417 32.4482 25.9637 32.0262C26.3857 31.6042 26.958 31.3672 27.5547 31.3672H44.5947C45.1914 31.3672 45.7637 31.6042 46.1857 32.0262C46.6076 32.4482 46.8447 33.0205 46.8447 33.6172C46.8447 34.2139 46.6076 34.7862 46.1857 35.2082C45.7637 35.6301 45.1914 35.8672 44.5947 35.8672Z" fill="#AA182C"/>
<path d="M38.9144 54.5116L28.6244 42.5116C28.3333 42.1862 28.1432 41.7832 28.0772 41.3517C28.0112 40.9202 28.0721 40.4788 28.2526 40.0813C28.433 39.6838 28.7252 39.3474 29.0935 39.1131C29.4618 38.8787 29.8904 38.7566 30.3269 38.7616H33.1619C34.5423 38.7616 35.8662 38.2132 36.8424 37.2371C37.8185 36.2609 38.3669 34.937 38.3669 33.5566C38.3669 32.1761 37.8185 30.8522 36.8424 29.8761C35.8662 28.8999 34.5423 28.3516 33.1619 28.3516H27.4844C26.8876 28.3516 26.3153 28.1145 25.8934 27.6926C25.4714 27.2706 25.2344 26.6983 25.2344 26.1016C25.2344 25.5048 25.4714 24.9325 25.8934 24.5106C26.3153 24.0886 26.8876 23.8516 27.4844 23.8516H33.1619C35.5712 23.8499 37.895 24.7446 39.6813 26.3615C41.4675 27.9783 42.5885 30.2019 42.8261 32.5995C43.0637 34.9971 42.401 37.3973 40.9668 39.3334C39.5327 41.2694 37.4297 42.6028 35.0669 43.0741L42.3269 51.5191L38.9144 54.5116Z" fill="#AA182C"/>
<path d="M56.5742 26.3827C55.9775 26.3827 55.4052 26.1456 54.9832 25.7236C54.5613 25.3017 54.3242 24.7294 54.3242 24.1327V8.47266C54.3242 7.87592 54.5613 7.30362 54.9832 6.88167C55.4052 6.45971 55.9775 6.22266 56.5742 6.22266C57.171 6.22266 57.7433 6.45971 58.1652 6.88167C58.5872 7.30362 58.8242 7.87592 58.8242 8.47266V24.1327C58.8242 24.7294 58.5872 25.3017 58.1652 25.7236C57.7433 26.1456 57.171 26.3827 56.5742 26.3827Z" fill="#AA182C"/>
<path d="M49.7087 16.2052C49.2633 16.2062 48.8276 16.0751 48.4568 15.8285C48.086 15.5818 47.7968 15.2306 47.6257 14.8194C47.4547 14.4082 47.4095 13.9555 47.4959 13.5186C47.5823 13.0817 47.7964 12.6803 48.1112 12.3652L54.9137 5.57016C55.3352 5.14808 55.9071 4.91068 56.5036 4.91016C57.1002 4.91068 57.6721 5.14808 58.0936 5.57016L64.8436 12.3202C65.0529 12.529 65.2191 12.7769 65.3325 13.0499C65.446 13.3229 65.5045 13.6156 65.5049 13.9113C65.5052 14.2069 65.4474 14.4997 65.3345 14.773C65.2217 15.0462 65.0562 15.2946 64.8474 15.5039C64.6386 15.7132 64.3906 15.8793 64.1176 15.9928C63.8446 16.1062 63.5519 16.1648 63.2563 16.1652C62.9607 16.1655 62.6679 16.1076 62.3946 15.9948C62.1213 15.882 61.8729 15.7165 61.6636 15.5077L56.5036 10.3402L51.2987 15.5452C50.8771 15.9672 50.3052 16.2046 49.7087 16.2052Z" fill="#AA182C"/>
<path d="M36.0373 67.8231C31.8981 67.8248 27.8043 66.9609 24.0188 65.2868C20.2332 63.6128 16.8396 61.1655 14.0559 58.1022C11.2722 55.0389 9.15983 51.4273 7.85453 47.4993C6.54923 43.5714 6.07982 39.4138 6.47644 35.2937C6.87306 31.1735 8.12695 27.1819 10.1576 23.575C12.1882 19.9682 14.9507 16.8258 18.2677 14.3498C21.5847 11.8738 25.3828 10.1189 29.4182 9.19765C33.4535 8.27644 37.637 8.20932 41.6998 9.00062C42.2781 9.12169 42.7855 9.46535 43.1126 9.95739C43.4396 10.4494 43.56 11.0504 43.4478 11.6304C43.3355 12.2105 42.9996 12.7231 42.5126 13.0576C42.0255 13.3921 41.4265 13.5216 40.8448 13.4181C35.4673 12.381 29.8982 13.125 24.9816 15.5375C20.0649 17.9499 16.0686 21.8992 13.5982 26.787C11.1278 31.6749 10.318 37.2347 11.2915 42.6241C12.265 48.0135 14.9687 52.9387 18.993 56.6534C23.0172 60.3681 28.1427 62.6698 33.5926 63.2097C39.0425 63.7496 44.52 62.4983 49.1948 59.6455C53.8697 56.7926 57.4872 52.4936 59.4993 47.3999C61.5113 42.3063 61.8081 36.6956 60.3448 31.4181C60.1857 30.8423 60.2618 30.2268 60.5565 29.7071C60.8511 29.1874 61.3402 28.806 61.916 28.6469C62.4919 28.4877 63.1074 28.5639 63.6271 28.8586C64.1468 29.1532 64.5282 29.6423 64.6873 30.2181C65.9054 34.6295 66.0875 39.2628 65.2195 43.7562C64.3515 48.2496 62.4569 52.4817 59.6834 56.122C56.9099 59.7624 53.3327 62.7126 49.2309 64.7423C45.1292 66.772 40.6138 67.8264 36.0373 67.8231Z" fill="#AA182C"/>
</svg>
