<svg width="72" height="72" viewBox="0 0 72 72" fill="none" xmlns="http://www.w3.org/2000/svg">
<path fill-rule="evenodd" clip-rule="evenodd" d="M63.1377 36.5878C62.3446 36.6013 61.5643 36.7902 60.853 37.1411L47.5159 43.533C47.1855 42.7919 46.642 42.1658 45.9546 41.7346C45.2673 41.3034 44.4671 41.0865 43.656 41.1116L36.0209 41.359C34.289 41.2917 32.5772 40.9625 30.9438 40.3826C28.7241 39.682 26.411 39.3221 24.0833 39.3151C21.2304 39.4383 18.4116 39.9845 15.7192 40.9359V39.2696C15.7176 39.0861 15.68 38.9048 15.6085 38.7358C15.5369 38.5621 15.4306 38.4048 15.2961 38.2737C15.1721 38.1396 15.0213 38.0332 14.8535 37.9612C14.6842 37.8908 14.503 37.8533 14.3197 37.8506H6.62601C6.44256 37.8521 6.2612 37.8897 6.09226 37.9612C5.74398 38.1101 5.46653 38.3875 5.31769 38.7358C5.24617 38.9048 5.20858 39.0861 5.20703 39.2696V60.3915C5.20785 60.5834 5.24541 60.7734 5.31769 60.9512C5.46653 61.2995 5.74398 61.577 6.09226 61.7258C6.26241 61.7911 6.44382 61.8221 6.62601 61.8169H14.3197C14.5083 61.8233 14.6964 61.7923 14.873 61.7258C15.0408 61.6539 15.1916 61.5474 15.3156 61.4134C15.4501 61.2822 15.5564 61.1249 15.628 60.9512C15.7003 60.7734 15.7379 60.5834 15.7387 60.3915V58.6145C25.0857 56.9612 30.6444 59.7731 39.0606 59.7731C40.8051 59.7731 42.6146 58.9139 44.9188 57.7292C47.223 56.5446 49.8201 54.9564 52.4628 53.2445C57.7481 49.8338 63.1767 45.9479 65.9951 44.0407C66.4579 43.7351 66.8492 43.3333 67.1424 42.8626C67.4356 42.3919 67.6237 41.8635 67.694 41.3134C67.8042 40.3073 67.5426 39.2955 66.9585 38.4689C66.523 37.8679 65.9473 37.3823 65.2814 37.0545C64.6155 36.7267 63.8796 36.5665 63.1377 36.5878ZM8.04498 40.6885H9.34679V58.9725H8.04498V40.6885Z" fill="#AA182C"/>
<path fill-rule="evenodd" clip-rule="evenodd" d="M36.4525 14.0212C36.2235 14.0347 36.0007 14.1003 35.801 14.2131C35.6013 14.3259 35.4301 14.483 35.3004 14.6721C34.1483 16.371 32.1435 18.9876 30.4186 21.6629C28.6937 24.3381 27.1641 26.9873 27.1641 29.5649C27.2284 32.002 28.2417 34.3177 29.9882 36.0187C31.7347 37.7198 34.0763 38.6717 36.5143 38.6717C38.9523 38.6717 41.2939 37.7198 43.0404 36.0187C44.7869 34.3177 45.8003 32.002 45.8646 29.5649C45.8646 26.9612 44.2894 24.3576 42.558 21.6629C40.8266 18.9681 38.7762 16.3385 37.6241 14.6396C37.4989 14.4358 37.3224 14.2684 37.1122 14.1542C36.902 14.04 36.6656 13.9829 36.4264 13.9887L36.4525 14.0212ZM36.4525 17.9267C37.5786 19.5019 38.9455 21.3374 40.1301 23.186C41.7704 25.7245 42.9746 28.3932 42.9746 29.5518C42.9746 31.2781 42.2888 32.9338 41.0681 34.1544C39.8474 35.3751 38.1918 36.0609 36.4655 36.0609C34.7392 36.0609 33.0836 35.3751 31.8629 34.1544C30.6422 32.9338 29.9564 31.2781 29.9564 29.5518C29.9564 28.3672 31.1541 25.7245 32.7944 23.186C33.9856 21.3374 35.3264 19.5019 36.459 17.9267H36.4525Z" fill="#AA182C"/>
<path fill-rule="evenodd" clip-rule="evenodd" d="M32.2628 26.9805C32.0771 26.9868 31.8941 27.0265 31.7225 27.0976C31.5518 27.1741 31.3972 27.2824 31.2669 27.4166C31.1353 27.5475 31.0332 27.7051 30.9675 27.8787C30.8973 28.0524 30.8619 28.2382 30.8633 28.4255C30.8633 30.1518 31.5491 31.8074 32.7698 33.0281C33.9905 34.2488 35.6461 34.9345 37.3724 34.9345C37.5621 34.9398 37.751 34.9068 37.9277 34.8375C38.1044 34.7681 38.2653 34.6639 38.4008 34.531C38.5353 34.3998 38.6416 34.2425 38.7132 34.0688C38.7861 33.8946 38.8236 33.7077 38.8236 33.5188C38.8236 33.33 38.7861 33.143 38.7132 32.9688C38.64 32.796 38.5339 32.6391 38.4008 32.5067C38.2676 32.3762 38.1108 32.2724 37.9387 32.2007C37.7618 32.1336 37.5745 32.0984 37.3854 32.0966C36.9046 32.0992 36.4281 32.0063 35.9834 31.8233C35.5388 31.6403 35.1349 31.3708 34.7952 31.0306C34.4556 30.6903 34.1868 30.2859 34.0046 29.841C33.8224 29.396 33.7304 28.9193 33.7338 28.4385C33.7325 28.2472 33.6973 28.0577 33.6297 27.8787C33.5557 27.7044 33.4497 27.5454 33.3172 27.4101C33.1796 27.2774 33.0185 27.1714 32.8421 27.0976C32.6661 27.0275 32.4782 26.9921 32.2888 26.9935L32.2628 26.9805Z" fill="#AA182C"/>
<path fill-rule="evenodd" clip-rule="evenodd" d="M23.8464 10.4455C23.619 10.4545 23.3966 10.5146 23.1955 10.6212C23.0006 10.7316 22.8336 10.8853 22.7074 11.0704C22.089 11.9881 20.9434 13.4657 19.9605 14.9758C18.9777 16.4859 18.0078 17.996 18.0078 19.7469C18.0078 21.3006 18.625 22.7907 19.7236 23.8893C20.8222 24.9879 22.3123 25.6051 23.866 25.6051C25.4196 25.6051 26.9097 24.9879 28.0083 23.8893C29.1069 22.7907 29.7241 21.3006 29.7241 19.7469C29.7241 17.996 28.7543 16.4924 27.7714 14.9758C26.7885 13.4592 25.669 11.9686 25.0441 11.0704C24.9069 10.8731 24.7237 10.7122 24.5104 10.6017C24.3054 10.4954 24.0773 10.4417 23.8464 10.4455ZM23.892 14.3509C24.3997 15.0539 24.9139 15.8155 25.4021 16.5705C26.0836 17.5493 26.5942 18.6365 26.9122 19.786C26.9122 20.587 26.594 21.3552 26.0276 21.9216C25.4612 22.488 24.693 22.8062 23.892 22.8062C23.091 22.8062 22.3228 22.488 21.7564 21.9216C21.19 21.3552 20.8718 20.587 20.8718 19.786C21.1796 18.6363 21.6839 17.5484 22.3624 16.5705C22.844 15.7959 23.3843 15.0344 23.892 14.3509Z" fill="#AA182C"/>
<path fill-rule="evenodd" clip-rule="evenodd" d="M48.9858 10.4441C48.7581 10.4512 48.5352 10.5114 48.3349 10.6198C48.1372 10.7265 47.9694 10.8809 47.8467 11.0689C47.1958 11.9867 46.0762 13.4643 45.0933 14.9744C44.1105 16.4845 43.1406 17.9946 43.1406 19.7455C43.1406 21.2992 43.7578 22.7892 44.8564 23.8879C45.9551 24.9865 47.4451 25.6037 48.9988 25.6037C50.5525 25.6037 52.0425 24.9865 53.1411 23.8879C54.2397 22.7892 54.8569 21.2992 54.8569 19.7455C54.8569 17.9946 53.8936 16.491 52.9042 14.9744C51.9148 13.4578 50.8018 11.9672 50.1769 11.0689C50.0449 10.8671 49.8642 10.7017 49.6515 10.588C49.4388 10.4742 49.2009 10.4158 48.9597 10.418L48.9858 10.4441ZM49.0248 14.3495C49.5325 15.0525 50.0728 15.814 50.561 16.5691C51.2428 17.5406 51.7535 18.6215 52.0711 19.765C52.035 20.5409 51.7014 21.2731 51.1396 21.8095C50.5777 22.3458 49.8308 22.6451 49.0541 22.6451C48.2774 22.6451 47.5305 22.3458 46.9686 21.8095C46.4068 21.2731 46.0732 20.5409 46.0372 19.765C46.3394 18.6156 46.8394 17.5276 47.5147 16.5496C47.9834 15.7945 48.5171 15.033 49.0248 14.3495Z" fill="#AA182C"/>
</svg>
