<svg width="100" height="100" viewBox="0 0 100 100" fill="none" xmlns="http://www.w3.org/2000/svg">
<path d="M65.4584 55.0409C65.071 55.4314 64.6102 55.7414 64.1025 55.9529C63.5947 56.1644 63.0501 56.2734 62.5001 56.2734C61.95 56.2734 61.4054 56.1644 60.8977 55.9529C60.3899 55.7414 59.9291 55.4314 59.5417 55.0409L58.3334 53.7909V64.5825C58.3334 65.6876 57.8944 66.7474 57.113 67.5288C56.3316 68.3102 55.2718 68.7492 54.1667 68.7492C53.0617 68.7492 52.0018 68.3102 51.2204 67.5288C50.439 66.7474 50.0001 65.6876 50.0001 64.5825V53.7909L48.7917 55.0409C48.0071 55.8255 46.943 56.2662 45.8334 56.2662C44.7238 56.2662 43.6597 55.8255 42.8751 55.0409C42.0905 54.2563 41.6497 53.1921 41.6497 52.0825C41.6497 50.9729 42.0905 49.9088 42.8751 49.1242L51.2084 40.7909C51.5957 40.4003 52.0566 40.0904 52.5643 39.8788C53.0721 39.6673 53.6167 39.5584 54.1667 39.5584C54.7168 39.5584 55.2614 39.6673 55.7691 39.8788C56.2769 40.0904 56.7377 40.4003 57.1251 40.7909L65.4584 49.1242C65.8489 49.5115 66.1589 49.9724 66.3704 50.4801C66.582 50.9879 66.6909 51.5325 66.6909 52.0825C66.6909 52.6326 66.582 53.1772 66.3704 53.6849C66.1589 54.1927 65.8489 54.6535 65.4584 55.0409ZM83.3334 48.0825C83.3748 47.3331 83.3748 46.582 83.3334 45.8325C83.3395 40.324 81.5262 34.9678 78.175 30.5959C74.8239 26.224 70.1227 23.0812 64.8018 21.656C59.4809 20.2308 53.8382 20.6028 48.7505 22.7143C43.6628 24.8258 39.4148 28.5585 36.6667 33.3325C33.8102 33.4849 31.041 34.3698 28.6256 35.9023C26.2101 37.4347 24.2298 39.5631 22.8751 42.0825C18.3069 42.8101 14.1715 45.208 11.2708 48.8113C8.37002 52.4146 6.91049 56.9665 7.17512 61.5847C7.43976 66.203 9.40972 70.5584 12.7031 73.8067C15.9965 77.0551 20.3786 78.9648 25.0001 79.1659H75.0001C78.6635 79.1594 82.2228 77.946 85.1274 75.7135C88.032 73.481 90.1201 70.3536 91.0687 66.8151C92.0174 63.2766 91.7738 59.5241 90.3755 56.138C88.9773 52.7518 86.5023 49.9207 83.3334 48.0825Z" fill="#AA182C" fill-opacity="0.2"/>
</svg>
