<svg width="36" height="36" viewBox="0 0 36 36" fill="none" xmlns="http://www.w3.org/2000/svg">
<path d="M15.2976 15.7497C14.2345 15.7498 13.1954 15.435 12.3114 14.8445C11.4274 14.254 10.7383 13.4147 10.3313 12.4326C9.92435 11.4504 9.81775 10.3693 10.025 9.32661C10.2323 8.28392 10.7442 7.32605 11.4959 6.57427C12.2475 5.82248 13.2051 5.3109 14.2478 5.10344C15.2904 4.89597 16.3713 5.00201 17.3535 5.4088C18.3357 5.81558 19.175 6.50449 19.7656 7.38841C20.3563 8.27233 20.6717 9.31157 20.6717 10.3747C20.6702 11.7996 20.1035 13.1656 19.096 14.1733C18.0885 15.1809 16.7225 15.7479 15.2976 15.7497ZM15.2976 7.0967C14.6493 7.09652 14.0155 7.28869 13.4764 7.64872C12.9372 8.00874 12.5171 8.52066 12.2688 9.11955C12.0206 9.71843 11.9553 10.3773 12.0816 11.0132C12.2079 11.649 12.52 12.2334 12.9783 12.692C13.4366 13.1505 14.0206 13.4627 14.6564 13.5894C15.2922 13.716 15.9512 13.6516 16.5502 13.4037C17.1493 13.1558 17.6614 12.7358 18.0218 12.1968C18.3821 11.6579 18.5745 11.0239 18.5747 10.3756C18.5739 9.50653 18.2283 8.67343 17.614 8.05875C16.9997 7.44407 16.1667 7.09794 15.2976 7.0967Z" fill="white"/>
<path d="M18.8917 30.9749H7.01243C6.21383 30.974 5.44824 30.6563 4.88354 30.0916C4.31885 29.5269 4.00099 28.7613 4 27.9627C4.00321 25.0163 5.17517 22.1915 7.25863 20.108C9.34208 18.0246 12.1669 16.8528 15.1134 16.8496C15.3914 16.8496 15.6583 16.9602 15.8549 17.1568C16.0516 17.3534 16.1619 17.62 16.1619 17.8981C16.1619 18.1762 16.0516 18.4428 15.8549 18.6395C15.6583 18.8361 15.3914 18.9466 15.1134 18.9466C12.7229 18.9493 10.4311 19.8999 8.74083 21.5902C7.05054 23.2805 6.09974 25.5723 6.09702 27.9627C6.09727 28.2054 6.19394 28.4383 6.36552 28.6099C6.53711 28.7815 6.76977 28.8777 7.01243 28.8779H18.8917C19.1698 28.8779 19.4366 28.9885 19.6333 29.1851C19.8299 29.3817 19.9402 29.6484 19.9402 29.9264C19.9402 30.2045 19.8299 30.4711 19.6333 30.6678C19.4366 30.8644 19.1698 30.9749 18.8917 30.9749Z" fill="white"/>
<path d="M24.7966 30.5588H23.3922C22.86 30.558 22.3498 30.3462 21.9735 29.9699C21.5972 29.5936 21.3854 29.0836 21.3846 28.5514V28.0945C21.1995 27.9998 21.0193 27.8956 20.8449 27.7823L20.4264 28.0244C20.0976 28.2097 19.7236 28.2994 19.3465 28.2829C18.9695 28.2664 18.6047 28.1448 18.2932 27.9316C18.0576 27.7671 17.8622 27.5512 17.7219 27.3004L17.006 26.0607C16.7407 25.5993 16.6691 25.0517 16.8069 24.5376C16.9448 24.0234 17.2809 23.5848 17.7415 23.3179L18.1365 23.0895C18.1271 22.9031 18.1271 22.6515 18.1365 22.4651L17.7415 22.2367C17.2989 21.9801 16.9705 21.5648 16.8233 21.0748C16.6762 20.5849 16.7212 20.0574 16.9492 19.5995C16.9678 19.5622 16.9716 19.5535 17.7219 18.2524C17.9113 17.9254 18.1899 17.6591 18.5251 17.4847C18.8603 17.3102 19.2383 17.2347 19.6148 17.2671C19.9013 17.2912 20.1785 17.3804 20.4255 17.5275L20.8449 17.7696C21.0193 17.6563 21.1995 17.5521 21.3846 17.4574V17.0009C21.3851 16.4686 21.5967 15.9581 21.973 15.5815C22.3494 15.205 22.8599 14.9929 23.3922 14.9922H24.7948C25.3272 14.9929 25.8376 15.205 26.214 15.5815C26.5903 15.9581 26.8019 16.4686 26.8024 17.0009V17.4574C26.9876 17.5519 27.1678 17.6561 27.3421 17.7696L27.7353 17.5425C27.9638 17.4103 28.2161 17.3245 28.4778 17.2899C28.7394 17.2553 29.0054 17.2726 29.2603 17.3409C29.5152 17.4092 29.7541 17.5269 29.9634 17.6876C30.1727 17.8484 30.3484 18.0492 30.4802 18.2779L31.196 19.518C31.3832 19.8449 31.4737 20.2184 31.4572 20.5947C31.4407 20.971 31.3178 21.3349 31.1027 21.6441C30.9381 21.8828 30.7211 22.0805 30.4681 22.2221L30.0476 22.4651C30.0569 22.6515 30.0569 22.904 30.0476 23.0895L30.469 23.333C30.72 23.4738 30.9357 23.6696 31.1 23.9059C31.3159 24.2157 31.4391 24.5808 31.4556 24.9581C31.4721 25.3353 31.3811 25.7092 31.193 26.0366L30.4633 27.3013C30.3335 27.5264 30.1606 27.7237 29.9545 27.882C29.7484 28.0402 29.5131 28.1564 29.2621 28.2237C29.0111 28.2911 28.7493 28.3086 28.4917 28.2747C28.234 28.2409 27.9857 28.1566 27.7606 28.0267L27.3421 27.7841C27.1678 27.8975 26.9876 28.0017 26.8024 28.0963V28.5532C26.8012 29.0848 26.5894 29.594 26.2135 29.9699C25.8376 30.3458 25.3282 30.5575 24.7966 30.5588ZM23.4835 28.4617H24.7081V28.0267C24.7096 27.654 24.8152 27.2892 25.0128 26.9732C25.2104 26.6572 25.4923 26.4022 25.8267 26.2378C25.9646 26.1687 26.0981 26.0916 26.2265 26.0061C26.5337 25.7977 26.8932 25.6797 27.2641 25.6657C27.635 25.6517 28.0024 25.7419 28.3244 25.9265L28.7083 26.1486L29.3217 25.0859L28.9545 24.8734C28.6299 24.6863 28.3641 24.4121 28.1877 24.0816C28.0112 23.7511 27.9311 23.3777 27.9563 23.0039C27.9637 22.8865 27.9637 22.661 27.9563 22.5379C27.9321 22.165 28.0129 21.7929 28.1893 21.4635C28.3657 21.1341 28.6307 20.8605 28.9545 20.6739L29.3217 20.4614L28.7083 19.3988L28.3244 19.6208C28.0024 19.8058 27.6347 19.8964 27.2636 19.8825C26.8925 19.8687 26.5329 19.751 26.2256 19.5426C26.0976 19.457 25.9644 19.3795 25.8267 19.3105C25.4923 19.146 25.2104 18.8915 25.0128 18.5755C24.8152 18.2595 24.7096 17.8947 24.7081 17.522V17.0865H23.4853V17.522C23.4839 17.8947 23.3787 18.2595 23.1811 18.5755C22.9835 18.8915 22.7014 19.1461 22.3669 19.3105C22.2298 19.3796 22.0969 19.4568 21.969 19.5417C21.6615 19.7502 21.3019 19.8683 20.9307 19.8825C20.5595 19.8967 20.1916 19.8063 19.8692 19.6218L19.4851 19.3997L18.8728 20.4632L19.2382 20.6748C19.5627 20.8621 19.8282 21.1367 20.0046 21.4671C20.181 21.7976 20.2614 22.1705 20.2365 22.5443C20.229 22.6627 20.229 22.8873 20.2365 23.0103C20.2616 23.3841 20.1813 23.7574 20.0048 24.0879C19.8284 24.4184 19.5628 24.6932 19.2382 24.8802L18.8719 25.0923L19.4851 26.1549L19.8692 25.9333C20.1916 25.7487 20.5594 25.6584 20.9307 25.6725C21.3019 25.6867 21.6616 25.8047 21.969 26.0134C22.0969 26.0981 22.2298 26.175 22.3669 26.2437C22.7014 26.4083 22.9833 26.6629 23.1808 26.9791C23.3784 27.2952 23.4839 27.6603 23.4853 28.0331L23.4835 28.4617Z" fill="white"/>
<path d="M24.0914 22.0697C24.2317 22.0697 24.3689 22.111 24.4855 22.1889C24.6022 22.2668 24.6931 22.3779 24.7467 22.5075C24.8004 22.6371 24.8144 22.7795 24.787 22.917C24.7596 23.0546 24.6921 23.181 24.5929 23.2802C24.4937 23.3794 24.3673 23.4472 24.2298 23.4745C24.0922 23.5019 23.9496 23.4877 23.82 23.434C23.6904 23.3803 23.5798 23.2894 23.5019 23.1728C23.4239 23.0562 23.3822 22.919 23.3822 22.7787C23.3824 22.5907 23.4572 22.4106 23.5901 22.2777C23.7231 22.1447 23.9034 22.0699 24.0914 22.0697ZM24.0914 19.9727C23.5364 19.9727 22.9938 20.1371 22.5323 20.4455C22.0708 20.7538 21.7112 21.1924 21.4988 21.7052C21.2864 22.2179 21.2308 22.7818 21.3391 23.3262C21.4474 23.8705 21.7146 24.3709 22.107 24.7633C22.4995 25.1558 22.9996 25.4228 23.5439 25.531C24.0883 25.6393 24.6526 25.5837 25.1654 25.3713C25.6782 25.1589 26.1165 24.7993 26.4249 24.3378C26.7332 23.8763 26.8977 23.3337 26.8977 22.7787C26.8977 22.0344 26.6021 21.3208 26.0758 20.7945C25.5495 20.2683 24.8357 19.9727 24.0914 19.9727Z" fill="white"/>
</svg>
