<svg width="36" height="36" viewBox="0 0 36 36" fill="none" xmlns="http://www.w3.org/2000/svg">
<path d="M29.9744 26.7334C26.8514 26.0694 22.0744 25.0571 21.7074 24.9971L21.6473 24.9873C21.2091 24.9055 20.794 24.7288 20.4313 24.4697C20.0685 24.2106 19.7669 23.8753 19.5474 23.4873C18.8014 22.0593 19.5904 20.6178 20.0624 19.7568C21.0811 18.0124 21.6495 16.0424 21.7163 14.0234C21.7184 13.4418 21.6058 12.8651 21.3848 12.3271C21.1637 11.7892 20.8387 11.2998 20.4283 10.8877C20.0949 10.5661 19.6994 10.3165 19.2659 10.1533C18.8324 9.99011 18.37 9.91755 17.9073 9.93944C15.5483 10.0114 14.3073 12.2035 14.3403 14.2265C14.4357 16.2253 15.0283 18.168 16.0643 19.8799C16.4296 20.3742 16.6665 20.9521 16.7538 21.5605C16.841 22.1689 16.776 22.7891 16.5643 23.3662C16.348 23.7866 16.0384 24.1522 15.6592 24.4346C15.2799 24.7169 14.8411 24.9084 14.3763 24.9951C14.3629 24.9987 14.3492 25.0012 14.3353 25.0029C13.9773 25.0639 9.35134 26.1034 6.52234 26.7334L6.02734 24.5332C8.24434 24.0332 13.3603 22.8874 13.9773 22.7754C14.0543 22.7594 14.4224 22.64 14.5204 22.418C14.6084 22.218 14.5484 21.7437 14.1204 21.0097C12.8909 18.9629 12.1927 16.6413 12.0894 14.2558C12.0314 10.6108 14.5023 7.78755 17.8363 7.68455C18.5979 7.65297 19.3581 7.77534 20.0707 8.04588C20.7833 8.31642 21.4335 8.72875 21.9823 9.2578C22.608 9.87652 23.1053 10.6132 23.4454 11.4248C23.7856 12.2364 23.962 13.1073 23.9644 13.9873C23.9058 16.3852 23.2467 18.7294 22.0474 20.8066C21.7304 21.3866 21.3473 22.0805 21.5383 22.4385C21.603 22.5291 21.6851 22.6053 21.7797 22.664C21.8742 22.7227 21.9795 22.7625 22.0894 22.7803C22.8264 22.9133 28.6273 24.1452 30.4403 24.5322L29.9744 26.7334Z" fill="#AA182C"/>
<path d="M18.083 4.71875C20.7448 4.71875 23.3468 5.5075 25.56 6.98633C27.7731 8.46516 29.4981 10.5672 30.5166 13.0264C31.5352 15.4856 31.8017 18.1921 31.2824 20.8027C30.763 23.4134 29.4811 25.8113 27.5989 27.6934C25.7167 29.5755 23.3186 30.8568 20.7079 31.376C18.0973 31.8951 15.3913 31.6281 12.9322 30.6094C10.4731 29.5906 8.37127 27.8656 6.89261 25.6523C5.41395 23.4391 4.62484 20.8376 4.62503 18.1758C4.62927 14.6079 6.04847 11.1869 8.57144 8.66406C11.0944 6.14127 14.5151 4.72272 18.083 4.71875ZM18.083 2.46875C14.9762 2.46875 11.9392 3.39015 9.35599 5.11621C6.7728 6.84227 4.75946 9.2957 3.57059 12.166C2.38172 15.0363 2.07074 18.1941 2.67691 21.2412C3.28309 24.2883 4.7792 27.0874 6.97611 29.2842C9.17301 31.4809 11.972 32.977 15.0191 33.583C18.0662 34.189 21.2246 33.8775 24.0949 32.6885C26.9651 31.4994 29.4183 29.4856 31.1442 26.9023C32.8701 24.319 33.7912 21.2826 33.791 18.1758C33.791 16.113 33.3847 14.0698 32.5952 12.1641C31.8058 10.2583 30.6489 8.5269 29.1902 7.06836C27.7316 5.60982 25.9999 4.45335 24.0941 3.66406C22.1884 2.87477 20.1458 2.46862 18.083 2.46875Z" fill="#AA182C"/>
</svg>
