<svg width="72" height="72" viewBox="0 0 72 72" fill="none" xmlns="http://www.w3.org/2000/svg">
<path d="M31.6176 36.1376C33.4124 36.1376 35.1669 35.6054 36.6592 34.6082C38.1515 33.6111 39.3147 32.1938 40.0015 30.5357C40.6883 28.8775 40.8681 27.0529 40.5179 25.2926C40.1678 23.5322 39.3035 21.9153 38.0344 20.6462C36.7653 19.3771 35.1483 18.5128 33.388 18.1627C31.6277 17.8125 29.8031 17.9922 28.1449 18.6791C26.4867 19.3659 25.0695 20.529 24.0723 22.0213C23.0752 23.5136 22.543 25.2681 22.543 27.0629C22.5474 29.4683 23.5049 31.7739 25.2058 33.4748C26.9066 35.1757 29.2122 36.1332 31.6176 36.1376Z" fill="#AA182C"/>
<path d="M31.6169 38.1328C26.9443 38.1387 22.4649 39.9975 19.1609 43.3015C15.8569 46.6055 13.9981 51.085 13.9922 55.7575C13.9922 56.2094 14.0813 56.6569 14.2544 57.0744C14.4275 57.4919 14.6813 57.8711 15.0011 58.1904C15.3209 58.5097 15.7006 58.7628 16.1183 58.9353C16.5361 59.1077 16.9837 59.1961 17.4356 59.1954H45.8037C46.7155 59.1954 47.5899 58.8332 48.2346 58.1884C48.8794 57.5437 49.2416 56.6693 49.2416 55.7575C49.2357 51.085 47.3769 46.6055 44.0729 43.3015C40.7689 39.9975 36.2894 38.1387 31.6169 38.1328Z" fill="#AA182C"/>
<path d="M57.521 18.1H53.4134V13.9868C53.4134 13.5427 53.237 13.1169 52.923 12.8029C52.609 12.4889 52.1831 12.3125 51.7391 12.3125C51.295 12.3125 50.8692 12.4889 50.5552 12.8029C50.2412 13.1169 50.0648 13.5427 50.0648 13.9868V18.1H45.9516C45.5076 18.1 45.0817 18.2764 44.7677 18.5904C44.4537 18.9043 44.2773 19.3302 44.2773 19.7743C44.2773 20.2183 44.4537 20.6442 44.7677 20.9582C45.0817 21.2721 45.5076 21.4485 45.9516 21.4485H50.0648V25.5561C50.0648 26.0002 50.2412 26.426 50.5552 26.74C50.8692 27.054 51.295 27.2304 51.7391 27.2304C52.1831 27.2304 52.609 27.054 52.923 26.74C53.237 26.426 53.4134 26.0002 53.4134 25.5561V21.4485H57.521C57.965 21.4485 58.3909 21.2721 58.7049 20.9582C59.0189 20.6442 59.1953 20.2183 59.1953 19.7743C59.1953 19.3302 59.0189 18.9043 58.7049 18.5904C58.3909 18.2764 57.965 18.1 57.521 18.1Z" fill="#AA182C"/>
</svg>
